SplineFontDB: 3.0
FontName: Boon-400i
FullName: Boon 400 Oblique
FamilyName: Boon
Weight: 400
Copyright: Copyright 2013-2015, Sungsit Sawaiwan (https://fontuni.com | uni@fontuni.com). This Font Software is licensed under the SIL Open Font License, Version 1.1 (http://scripts.sil.org/OFL).
Version: 1.0-beta1
ItalicAngle: -12
UnderlinePosition: -120
UnderlineWidth: 60
Ascent: 960
Descent: 240
InvalidEm: 0
UFOAscent: 960
UFODescent: -240
LayerCount: 2
Layer: 0 0 "Back" 1
Layer: 1 0 "Fore" 0
StyleMap: 0x0000
FSType: 0
OS2Version: 0
OS2_WeightWidthSlopeOnly: 0
OS2_UseTypoMetrics: 0
CreationTime: 1369324892
ModificationTime: 1444829193
PfmFamily: 33
TTFWeight: 400
TTFWidth: 5
LineGap: 90
VLineGap: 0
Panose: 2 0 2 3 0 0 0 0 0 0
OS2TypoAscent: 960
OS2TypoAOffset: 0
OS2TypoDescent: -240
OS2TypoDOffset: 0
OS2TypoLinegap: 90
OS2WinAscent: 1320
OS2WinAOffset: 0
OS2WinDescent: 480
OS2WinDOffset: 0
HheadAscent: 1320
HheadAOffset: 0
HheadDescent: -480
HheadDOffset: 0
OS2SubXSize: 780
OS2SubYSize: 840
OS2SubXOff: 0
OS2SubYOff: 180
OS2SupXSize: 780
OS2SupYSize: 840
OS2SupXOff: 0
OS2SupYOff: 600
OS2StrikeYSize: 60
OS2StrikeYPos: 300
OS2CapHeight: 780
OS2XHeight: 600
OS2Vendor: 'FUni'
OS2CodePages: 00010000.00000000
OS2UnicodeRanges: 81000003.1000200a.00000000.00000000
Lookup: 1 0 0 "ThaiRC.rd" { "ThaiRC.rd subtable"  } ['ss01' ('thai' <'dflt' > ) 'salt' ('thai' <'dflt' > ) 'ccmp' ('thai' <'PAL ' 'SAN ' > ) 'locl' ('thai' <'PAL ' 'SAN ' > ) ]
Lookup: 6 0 0 "ThaiContextRC.rd" { "ThaiContextRC.rd subtable"  } ['ccmp' ('thai' <'dflt' > ) ]
Lookup: 2 0 0 "ThaiDecomp" { "ThaiDecomp subtable"  } ['ccmp' ('thai' <'dflt' > ) ]
Lookup: 1 0 0 "ThaiT.0E4D" { "ThaiT.0E4D subtable"  } []
Lookup: 1 0 0 "Thai0E4D.0E48" { "Thai0E4D.0E48 subtable"  } []
Lookup: 1 0 0 "Thai0E4D.0E49" { "Thai0E4D.0E49 subtable"  } []
Lookup: 1 0 0 "Thai0E4D.0E4A" { "Thai0E4D.0E4A subtable"  } []
Lookup: 1 0 0 "Thai0E4D.0E4B" { "Thai0E4D.0E4B subtable"  } []

StartChar: .notdef
Encoding: 1114112 -1 0
GlifName: _notdef
Width: 660
VWidth: 0
Flags: HMW
LayerCount: 2
Fore
SplineSet
42 0 m 1
 170 600 l 1
 398 600 l 1
 626 600 l 1
 498 0 l 1
 270 0 l 1
 42 0 l 1
285 69 m 1
 428 69 l 1
 526 531 l 1
 383 531 l 1
 240 531 l 1
 142 69 l 1
 285 69 l 1
EndSplineSet
PickledDataWithLists: "(dp0
Vcom.fontlab.hintData
p1
(dp2
Vvhints
p3
(lp4
(dp5
Vposition
p6
L160L
sVwidth
p7
L10L
sa(dp8
g6
L190L
sg7
L10L
sa(dp9
g6
L520L
sg7
L10L
sa(dp10
g6
L550L
sg7
L10L
sasVhhints
p11
(lp12
(dp13
g6
L0L
sg7
L10L
sa(dp14
g6
L30L
sg7
L10L
sa(dp15
g6
L560L
sg7
L10L
sa(dp16
g6
L590L
sg7
L10L
sass."
EndChar

StartChar: exclam
Encoding: 33 33 5
GlifName: exclam
Width: 330
VWidth: 0
Flags: HMW
LayerCount: 2
Fore
SplineSet
133 133 m 0
 168 133 193 113 193 81 c 0
 193 76 192 71 191 65 c 0
 182 23 145 -3 104 -3 c 0
 69 -3 45 17 45 49 c 0
 45 54 46 59 47 65 c 0
 56 107 92 133 133 133 c 0
222 810 m 1
 332 810 l 1
 193 270 l 1
 131 270 l 1
 222 810 l 1
EndSplineSet
PickledDataWithLists: "(dp0
Vcom.fontlab.hintData
p1
(dp2
Vvhints
p3
(lp4
(dp5
Vposition
p6
L81L
sVwidth
p7
L10L
sa(dp8
g6
L101L
sg7
L10L
sa(dp9
g6
L125L
sg7
L10L
sa(dp10
g6
L195L
sg7
L10L
sa(dp11
g6
L210L
sg7
L10L
sa(dp12
g6
L239L
sg7
L10L
sasVhhints
p13
(lp14
(dp15
g6
L-5L
sg7
L10L
sa(dp16
g6
L122L
sg7
L10L
sa(dp17
g6
L268L
sg7
L10L
sa(dp18
g6
L826L
sg7
L10L
sass."
EndChar

StartChar: quotedbl
Encoding: 34 34 6
GlifName: quotedbl
Width: 540
VWidth: 0
Flags: HMW
LayerCount: 2
Fore
SplineSet
247 900 m 1
 335 900 l 1
 244 540 l 1
 186 540 l 1
 247 900 l 1
467 900 m 1
 555 900 l 1
 464 540 l 1
 406 540 l 1
 467 900 l 1
EndSplineSet
PickledDataWithLists: "(dp0
Vcom.fontlab.hintData
p1
(dp2
Vvhints
p3
(lp4
(dp5
Vposition
p6
L107L
sVwidth
p7
L10L
sa(dp8
g6
L196L
sg7
L10L
sa(dp9
g6
L304L
sg7
L10L
sa(dp10
g6
L313L
sg7
L10L
sa(dp11
g6
L393L
sg7
L10L
sasVhhints
p12
(lp13
(dp14
g6
L548L
sg7
L10L
sa(dp15
g6
L553L
sg7
L10L
sa(dp16
g6
L829L
sg7
L10L
sass."
EndChar

StartChar: numbersign
Encoding: 35 35 7
GlifName: numbersign
Width: 810
VWidth: 0
Flags: HMW
LayerCount: 2
Fore
SplineSet
45 214 m 1
 59 276 l 1
 191 276 l 1
 301 504 l 1
 167 504 l 1
 180 566 l 1
 330 566 l 1
 434 780 l 1
 508 780 l 1
 404 566 l 1
 620 566 l 1
 724 780 l 1
 798 780 l 1
 694 566 l 1
 810 566 l 1
 797 504 l 1
 665 504 l 1
 555 276 l 1
 689 276 l 1
 675 214 l 1
 525 214 l 1
 422 0 l 1
 348 0 l 1
 451 214 l 1
 235 214 l 1
 132 0 l 1
 58 0 l 1
 161 214 l 1
 45 214 l 1
375 504 m 1
 265 276 l 1
 481 276 l 1
 591 504 l 1
 375 504 l 1
EndSplineSet
PickledDataWithLists: "(dp0
Vcom.fontlab.hintData
p1
(dp2
Vvhints
p3
(lp4
(dp5
Vposition
p6
L111L
sVwidth
p7
L10L
sa(dp8
g6
L329L
sg7
L10L
sa(dp9
g6
L381L
sg7
L10L
sa(dp10
g6
L599L
sg7
L10L
sa(dp11
g6
L649L
sg7
L10L
sa(dp12
g6
L689L
sg7
L10L
sasVhhints
p13
(lp14
(dp15
g6
L-29L
sg7
L10L
sa(dp16
g6
L-19L
sg7
L10L
sa(dp17
g6
L241L
sg7
L7L
sa(dp18
g6
L284L
sg7
L10L
sa(dp19
g6
L521L
sg7
L7L
sa(dp20
g6
L564L
sg7
L10L
sa(dp21
g6
L819L
sg7
L10L
sa(dp22
g6
L829L
sg7
L10L
sass."
EndChar

StartChar: dollar
Encoding: 36 36 8
GlifName: dollar
Width: 660
VWidth: 0
Flags: HMW
LayerCount: 2
Fore
SplineSet
46 182 m 1
 140 188 l 1
 140 185 140 183 140 180 c 0
 140 124 176 69 252 58 c 1
 318 368 l 1
 293 379 269 389 249 398 c 0
 198 421 145 466 145 544 c 0
 145 557 146 570 149 585 c 0
 172 691 267 780 408 792 c 1
 431 900 l 1
 500 900 l 1
 477 791 l 1
 604 776 644 682 644 614 c 0
 644 610 643 607 643 603 c 1
 549 596 l 1
 549 599 549 603 549 606 c 0
 549 658 520 706 462 720 c 1
 400 428 l 1
 426 417 451 407 472 400 c 0
 528 380 580 335 580 251 c 0
 580 235 579 218 575 200 c 0
 552 93 459 2 307 -11 c 1
 283 -120 l 1
 214 -120 l 1
 237 -12 l 1
 92 0 45 100 45 171 c 0
 45 175 46 178 46 182 c 1
337 455 m 1
 393 722 l 1
 320 712 259 666 242 585 c 0
 240 576 240 568 240 560 c 0
 240 505 283 479 317 463 c 0
 323 460 331 458 337 455 c 1
382 342 m 1
 321 58 l 1
 406 69 465 118 482 200 c 0
 484 212 485 222 485 232 c 0
 485 294 441 321 411 331 c 0
 402 334 392 338 382 342 c 1
EndSplineSet
PickledDataWithLists: "(dp0
Vcom.fontlab.hintData
p1
(dp2
Vvhints
p3
(lp4
(dp5
Vposition
p6
L70L
sVwidth
p7
L10L
sa(dp8
g6
L78L
sg7
L10L
sa(dp9
g6
L169L
sg7
L10L
sa(dp10
g6
L319L
sg7
L10L
sa(dp11
g6
L323L
sg7
L10L
sa(dp12
g6
L382L
sg7
L10L
sa(dp13
g6
L392L
sg7
L10L
sa(dp14
g6
L504L
sg7
L10L
sa(dp15
g6
L565L
sg7
L10L
sa(dp16
g6
L604L
sg7
L10L
sa(dp17
g6
L664L
sg7
L10L
sasVhhints
p18
(lp19
(dp20
g6
L-127L
sg7
L10L
sa(dp21
g6
L46L
sg7
L10L
sa(dp22
g6
L192L
sg7
L10L
sa(dp23
g6
L584L
sg7
L10L
sa(dp24
g6
L812L
sg7
L10L
sa(dp25
g6
L916L
sg7
L10L
sass."
EndChar

StartChar: percent
Encoding: 37 37 9
GlifName: percent
Width: 780
VWidth: 0
Flags: HMW
LayerCount: 2
Fore
SplineSet
22 0 m 1
 23 5 l 1
 742 780 l 1
 803 780 l 1
 802 775 l 1
 83 0 l 1
 22 0 l 1
92 576 m 2
 96 594 l 2
 114 681 162 790 273 790 c 0
 352 790 375 734 375 671 c 0
 375 646 371 619 366 594 c 2
 362 576 l 2
 344 489 297 380 186 380 c 0
 107 380 83 436 83 499 c 0
 83 524 87 551 92 576 c 2
195 424 m 0
 241 424 283 480 303 576 c 2
 307 594 l 2
 313 620 316 644 316 664 c 0
 316 717 297 746 264 746 c 0
 218 746 175 690 155 594 c 2
 151 576 l 2
 145 550 143 526 143 506 c 0
 143 453 162 424 195 424 c 0
460 186 m 2
 463 204 l 2
 481 291 529 400 640 400 c 0
 719 400 742 344 742 281 c 0
 742 256 738 229 733 204 c 2
 730 186 l 2
 712 99 664 -10 553 -10 c 0
 474 -10 451 46 451 109 c 0
 451 134 455 161 460 186 c 2
562 34 m 0
 608 34 651 90 671 186 c 2
 674 204 l 2
 680 230 683 254 683 274 c 0
 683 327 664 356 631 356 c 0
 585 356 542 300 522 204 c 2
 519 186 l 2
 513 160 510 136 510 116 c 0
 510 63 529 34 562 34 c 0
EndSplineSet
PickledDataWithLists: "(dp0
Vcom.fontlab.hintData
p1
(dp2
Vvhints
p3
(lp4
(dp5
Vposition
p6
L50L
sVwidth
p7
L10L
sa(dp8
g6
L70L
sg7
L10L
sa(dp9
g6
L120L
sg7
L10L
sa(dp10
g6
L246L
sg7
L10L
sa(dp11
g6
L290L
sg7
L10L
sa(dp12
g6
L320L
sg7
L10L
sa(dp13
g6
L360L
sg7
L10L
sa(dp14
g6
L410L
sg7
L10L
sa(dp15
g6
L480L
sg7
L10L
sa(dp16
g6
L606L
sg7
L10L
sa(dp17
g6
L650L
sg7
L10L
sa(dp18
g6
L680L
sg7
L10L
sa(dp19
g6
L699L
sg7
L10L
sa(dp20
g6
L720L
sg7
L10L
sasVhhints
p21
(lp22
(dp23
g6
L-14L
sg7
L10L
sa(dp24
g6
L6L
sg7
L10L
sa(dp25
g6
L34L
sg7
L10L
sa(dp26
g6
L369L
sg7
L10L
sa(dp27
g6
L374L
sg7
L10L
sa(dp28
g6
L416L
sg7
L10L
sa(dp29
g6
L422L
sg7
L10L
sa(dp30
g6
L757L
sg7
L10L
sa(dp31
g6
L784L
sg7
L10L
sa(dp32
g6
L804L
sg7
L10L
sass."
EndChar

StartChar: ampersand
Encoding: 38 38 10
GlifName: ampersand
Width: 810
VWidth: 0
Flags: HMW
LayerCount: 2
Fore
SplineSet
614 149 m 1
 675 68 723 5 723 5 c 2
 722 0 l 1
 616 0 l 1
 616 0 589 37 549 90 c 1
 465 25 363 -18 250 -18 c 0
 108 -18 43 46 43 129 c 0
 43 141 44 153 47 166 c 0
 72 282 198 362 308 425 c 1
 281 472 261 529 261 584 c 0
 261 598 262 612 265 625 c 0
 288 733 372 798 474 798 c 0
 572 798 612 743 612 682 c 0
 612 672 610 661 608 651 c 0
 587 552 514 479 413 418 c 1
 453 363 515 279 574 202 c 1
 624 261 660 333 683 405 c 1
 761 393 l 1
 734 308 683 221 614 149 c 1
512 140 m 1
 455 218 385 312 341 376 c 1
 235 312 155 243 139 166 c 0
 137 157 136 148 136 140 c 0
 136 84 181 52 265 52 c 0
 364 52 447 86 512 140 c 1
460 736 m 0
 396 736 359 683 346 623 c 0
 344 613 343 603 343 593 c 0
 343 552 358 507 380 467 c 1
 460 519 513 582 528 651 c 0
 530 659 531 667 531 674 c 0
 531 713 506 736 460 736 c 0
EndSplineSet
PickledDataWithLists: "(dp0
Vcom.fontlab.hintData
p1
(dp2
Vvhints
p3
(lp4
(dp5
Vposition
p6
L66L
sVwidth
p7
L10L
sa(dp8
g6
L164L
sg7
L10L
sa(dp9
g6
L202L
sg7
L10L
sa(dp10
g6
L296L
sg7
L10L
sa(dp11
g6
L450L
sg7
L10L
sa(dp12
g6
L538L
sg7
L10L
sa(dp13
g6
L695L
sg7
L10L
sa(dp14
g6
L749L
sg7
L10L
sasVhhints
p15
(lp16
(dp17
g6
L-25L
sg7
L10L
sa(dp18
g6
L39L
sg7
L10L
sa(dp19
g6
L389L
sg7
L10L
sa(dp20
g6
L734L
sg7
L10L
sa(dp21
g6
L796L
sg7
L10L
sass."
EndChar

StartChar: quotesingle
Encoding: 39 39 11
GlifName: quotesingle
Width: 330
VWidth: 0
Flags: HMW
LayerCount: 2
Fore
SplineSet
252 900 m 1
 340 900 l 1
 249 540 l 1
 191 540 l 1
 252 900 l 1
EndSplineSet
PickledDataWithLists: "(dp0
Vcom.fontlab.hintData
p1
(dp2
Vvhints
p3
(lp4
(dp5
Vposition
p6
L110L
sVwidth
p7
L10L
sa(dp8
g6
L209L
sg7
L10L
sasVhhints
p9
(lp10
(dp11
g6
L544L
sg7
L10L
sa(dp12
g6
L832L
sg7
L10L
sass."
EndChar

StartChar: parenleft
Encoding: 40 40 12
GlifName: parenleft
Width: 390
VWidth: 0
Flags: HMW
LayerCount: 2
Fore
SplineSet
95 390 m 0
 142 611 250 784 387 909 c 1
 440 886 l 1
 314 768 224 600 179 390 c 0
 163 315 155 246 155 182 c 0
 155 67 180 -30 229 -106 c 1
 167 -129 l 1
 109 -42 74 68 74 201 c 0
 74 259 81 323 95 390 c 0
EndSplineSet
PickledDataWithLists: "(dp0
Vcom.fontlab.hintData
p1
(dp2
Vvhints
p3
(lp4
(dp5
Vposition
p6
L55L
sVwidth
p7
L10L
sa(dp8
g6
L135L
sg7
L10L
sa(dp9
g6
L270L
sg7
L10L
sasVhhints
p10
(lp11
(dp12
g6
L-112L
sg7
L10L
sa(dp13
g6
L882L
sg7
L10L
sass."
Substitution2: "Latin.subs subtable" parenleft.subs
Substitution2: "Latin.subs subtable" parenleft.subs
Substitution2: "Latin.sups subtable" parenleft.sups
Substitution2: "Latin.sups subtable" parenleft.sups
EndChar

StartChar: parenright
Encoding: 41 41 13
GlifName: parenright
Width: 390
VWidth: 0
Flags: HMW
LayerCount: 2
Fore
SplineSet
341 390 m 0
 294 169 186 -4 49 -129 c 1
 -5 -106 l 1
 121 12 212 180 257 390 c 0
 273 465 281 534 281 598 c 0
 281 713 255 810 206 886 c 1
 269 909 l 1
 327 822 362 712 362 579 c 0
 362 521 355 457 341 390 c 0
EndSplineSet
PickledDataWithLists: "(dp0
Vcom.fontlab.hintData
p1
(dp2
Vvhints
p3
(lp4
(dp5
Vposition
p6
L79L
sVwidth
p7
L10L
sa(dp8
g6
L215L
sg7
L10L
sa(dp9
g6
L295L
sg7
L10L
sasVhhints
p10
(lp11
(dp12
g6
L-112L
sg7
L10L
sa(dp13
g6
L882L
sg7
L10L
sass."
Substitution2: "Latin.subs subtable" parenright.subs
Substitution2: "Latin.subs subtable" parenright.subs
Substitution2: "Latin.sups subtable" parenright.sups
Substitution2: "Latin.sups subtable" parenright.sups
EndChar

StartChar: asterisk
Encoding: 42 42 14
GlifName: asterisk
Width: 570
VWidth: 0
Flags: HMW
LayerCount: 2
Fore
SplineSet
141 702 m 1
 181 778 l 1
 351 700 l 1
 377 900 l 1
 457 900 l 1
 398 700 l 1
 599 778 l 1
 608 702 l 1
 403 655 l 1
 502 503 l 1
 427 456 l 1
 359 628 l 1
 217 456 l 1
 163 503 l 1
 326 655 l 1
 141 702 l 1
EndSplineSet
PickledDataWithLists: "(dp0
Vcom.fontlab.hintData
p1
(dp2
Vvhints
p3
(lp4
(dp5
Vposition
p6
L84L
sVwidth
p7
L10L
sa(dp8
g6
L89L
sg7
L10L
sa(dp9
g6
L256L
sg7
L10L
sa(dp10
g6
L265L
sg7
L10L
sa(dp11
g6
L272L
sg7
L10L
sa(dp12
g6
L326L
sg7
L10L
sa(dp13
g6
L335L
sg7
L10L
sa(dp14
g6
L501L
sg7
L10L
sa(dp15
g6
L506L
sg7
L10L
sasVhhints
p16
(lp17
(dp18
g6
L392L
sg7
L10L
sa(dp19
g6
L488L
sg7
L10L
sa(dp20
g6
L495L
sg7
L10L
sa(dp21
g6
L735L
sg7
L10L
sa(dp22
g6
L742L
sg7
L10L
sa(dp23
g6
L839L
sg7
L10L
sass."
EndChar

StartChar: plus
Encoding: 43 43 15
GlifName: plus
Width: 600
VWidth: 0
Flags: HMW
LayerCount: 2
Fore
SplineSet
107 328 m 1
 120 392 l 1
 280 392 l 1
 315 555 l 1
 401 555 l 1
 366 392 l 1
 526 392 l 1
 513 328 l 1
 353 328 l 1
 318 165 l 1
 232 165 l 1
 267 328 l 1
 107 328 l 1
EndSplineSet
PickledDataWithLists: "(dp0
Vcom.fontlab.hintData
p1
(dp2
Vvhints
p3
(lp4
(dp5
Vposition
p6
L80L
sVwidth
p7
L10L
sa(dp8
g6
L250L
sg7
L10L
sa(dp9
g6
L259L
sg7
L10L
sa(dp10
g6
L340L
sg7
L10L
sa(dp11
g6
L510L
sg7
L10L
sasVhhints
p12
(lp13
(dp14
g6
L145L
sg7
L10L
sa(dp15
g6
L302L
sg7
L10L
sa(dp16
g6
L362L
sg7
L10L
sa(dp17
g6
L370L
sg7
L10L
sa(dp18
g6
L525L
sg7
L10L
sass."
EndChar

StartChar: comma
Encoding: 44 44 16
GlifName: comma
Width: 330
VWidth: 0
Flags: HMW
LayerCount: 2
Fore
SplineSet
45 63 m 0
 54 104 88 133 132 133 c 0
 181 133 201 101 201 59 c 0
 201 48 199 37 197 25 c 0
 175 -79 92 -152 19 -195 c 1
 -1 -156 l 1
 55 -123 106 -72 129 1 c 1
 120 -2 111 -3 101 -3 c 0
 66 -3 44 17 44 48 c 0
 44 53 44 58 45 63 c 0
EndSplineSet
PickledDataWithLists: "(dp0
Vcom.fontlab.hintData
p1
(dp2
Vvhints
p3
(lp4
(dp5
Vposition
p6
L61L
sVwidth
p7
L10L
sa(dp8
g6
L170L
sg7
L10L
sa(dp9
g6
L251L
sg7
L10L
sasVhhints
p10
(lp11
(dp12
g6
L-182L
sg7
L10L
sa(dp13
g6
L48L
sg7
L10L
sa(dp14
g6
L117L
sg7
L10L
sass."
EndChar

StartChar: hyphen
Encoding: 45 45 17
GlifName: hyphen
Width: 600
VWidth: 0
Flags: HMW
LayerCount: 2
Fore
SplineSet
121 395 m 1
 527 395 l 1
 512 325 l 1
 106 325 l 1
 121 395 l 1
EndSplineSet
PickledDataWithLists: "(dp0
Vcom.fontlab.hintData
p1
(dp2
Vvhints
p3
(lp4
(dp5
Vposition
p6
L75L
sVwidth
p7
L10L
sa(dp8
g6
L514L
sg7
L10L
sasVhhints
p9
(lp10
(dp11
g6
L301L
sg7
L10L
sa(dp12
g6
L363L
sg7
L10L
sa(dp13
g6
L371L
sg7
L10L
sass."
EndChar

StartChar: period
Encoding: 46 46 18
GlifName: period
Width: 330
VWidth: 0
Flags: HMW
LayerCount: 2
Fore
SplineSet
133 133 m 0
 168 133 193 113 193 81 c 0
 193 76 192 71 191 65 c 0
 182 23 145 -3 104 -3 c 0
 69 -3 45 17 45 49 c 0
 45 54 46 59 47 65 c 0
 56 107 92 133 133 133 c 0
EndSplineSet
PickledDataWithLists: "(dp0
Vcom.fontlab.hintData
p1
(dp2
Vvhints
p3
(lp4
(dp5
Vposition
p6
L81L
sVwidth
p7
L10L
sa(dp8
g6
L239L
sg7
L10L
sasVhhints
p9
(lp10
(dp11
g6
L-5L
sg7
L10L
sa(dp12
g6
L122L
sg7
L10L
sass."
EndChar

StartChar: slash
Encoding: 47 47 19
GlifName: slash
Width: 510
VWidth: 0
Flags: HMW
LayerCount: 2
Fore
SplineSet
-10 0 m 1
 -9 5 l 1
 485 780 l 1
 566 780 l 1
 565 775 l 1
 72 0 l 1
 -10 0 l 1
EndSplineSet
PickledDataWithLists: "(dp0
Vcom.fontlab.hintData
p1
(dp2
Vvhints
p3
(lp4
(dp5
Vposition
p6
L41L
sVwidth
p7
L10L
sa(dp8
g6
L429L
sg7
L10L
sasVhhints
p9
(lp10
(dp11
g6
L-29L
sg7
L10L
sa(dp12
g6
L818L
sg7
L10L
sass."
Substitution2: "LatinSlash.frac subtable" fraction
EndChar

StartChar: zero
Encoding: 48 48 20
GlifName: zero
Width: 660
VWidth: 0
Flags: HMW
LayerCount: 2
Fore
SplineSet
86 374 m 2
 93 406 l 2
 131 587 228 798 440 798 c 0
 592 798 638 690 638 562 c 0
 638 511 630 458 619 406 c 2
 612 374 l 2
 574 193 478 -18 266 -18 c 0
 114 -18 68 90 68 218 c 0
 68 269 75 322 86 374 c 2
281 52 m 0
 389 52 476 178 518 374 c 2
 525 406 l 2
 536 460 542 509 542 551 c 0
 542 662 503 728 425 728 c 0
 317 728 229 602 187 406 c 2
 180 374 l 2
 169 320 163 271 163 229 c 0
 163 118 203 52 281 52 c 0
EndSplineSet
PickledDataWithLists: "(dp0
Vcom.fontlab.hintData
p1
(dp2
Vvhints
p3
(lp4
(dp5
Vposition
p6
L66L
sVwidth
p7
L10L
sa(dp8
g6
L164L
sg7
L10L
sa(dp9
g6
L456L
sg7
L10L
sa(dp10
g6
L546L
sg7
L10L
sa(dp11
g6
L564L
sg7
L10L
sa(dp12
g6
L644L
sg7
L10L
sasVhhints
p13
(lp14
(dp15
g6
L-24L
sg7
L10L
sa(dp16
g6
L46L
sg7
L10L
sa(dp17
g6
L742L
sg7
L10L
sa(dp18
g6
L811L
sg7
L10L
sass."
Substitution2: "Latin.dnom subtable" zero.dnom
Substitution2: "Latin.numr subtable" zero.numr
Substitution2: "Latin.subs subtable" zero.subs
Substitution2: "Latin.sups subtable" zero.sups
Substitution2: "Latin.pnum subtable" zero.pnum
EndChar

StartChar: one
Encoding: 49 49 21
GlifName: one
Width: 570
VWidth: 0
Flags: HMW
LayerCount: 2
Fore
SplineSet
176 630 m 1
 471 786 l 1
 536 779 l 1
 386 74 l 1
 538 74 l 1
 522 0 l 1
 82 0 l 1
 98 74 l 1
 293 74 l 1
 422 681 l 1
 201 562 l 1
 176 630 l 1
EndSplineSet
PickledDataWithLists: "(dp0
Vcom.fontlab.hintData
p1
(dp2
Vvhints
p3
(lp4
(dp5
Vposition
p6
L126L
sVwidth
p7
L10L
sa(dp8
g6
L364L
sg7
L10L
sa(dp9
g6
L371L
sg7
L10L
sa(dp10
g6
L462L
sg7
L10L
sa(dp11
g6
L469L
sg7
L10L
sa(dp12
g6
L677L
sg7
L10L
sasVhhints
p13
(lp14
(dp15
g6
L-19L
sg7
L10L
sa(dp16
g6
L-9L
sg7
L10L
sa(dp17
g6
L49L
sg7
L10L
sa(dp18
g6
L57L
sg7
L10L
sa(dp19
g6
L591L
sg7
L10L
sa(dp20
g6
L802L
sg7
L10L
sass."
Substitution2: "Latin.dnom subtable" one.dnom
Substitution2: "Latin.numr subtable" one.numr
Substitution2: "Latin.subs subtable" one.subs
Substitution2: "Latin.sups subtable" one.sups
Substitution2: "Latin.pnum subtable" one.pnum
EndChar

StartChar: two
Encoding: 50 50 22
GlifName: two
Width: 660
VWidth: 0
Flags: HMW
LayerCount: 2
Fore
SplineSet
25 36 m 0
 62 212 227 312 353 386 c 0
 442 438 526 492 545 580 c 0
 548 592 550 606 550 619 c 0
 550 673 523 728 425 728 c 0
 340 728 274 663 250 605 c 1
 156 614 l 1
 185 685 281 798 439 798 c 0
 608 798 642 700 642 627 c 0
 642 609 640 593 637 580 c 0
 610 455 486 379 399 327 c 0
 285 259 174 190 136 74 c 1
 538 74 l 1
 522 0 l 1
 22 0 l 1
 22 0 21 16 25 36 c 0
EndSplineSet
PickledDataWithLists: "(dp0
Vcom.fontlab.hintData
p1
(dp2
Vvhints
p3
(lp4
(dp5
Vposition
p6
L71L
sVwidth
p7
L10L
sa(dp8
g6
L81L
sg7
L10L
sa(dp9
g6
L501L
sg7
L10L
sa(dp10
g6
L599L
sg7
L10L
sa(dp11
g6
L639L
sg7
L10L
sasVhhints
p12
(lp13
(dp14
g6
L-13L
sg7
L10L
sa(dp15
g6
L61L
sg7
L10L
sa(dp16
g6
L74L
sg7
L10L
sa(dp17
g6
L620L
sg7
L10L
sa(dp18
g6
L740L
sg7
L10L
sa(dp19
g6
L809L
sg7
L10L
sass."
Substitution2: "Latin.dnom subtable" two.dnom
Substitution2: "Latin.numr subtable" two.numr
Substitution2: "Latin.subs subtable" two.subs
Substitution2: "Latin.sups subtable" two.sups
Substitution2: "Latin.pnum subtable" two.pnum
EndChar

StartChar: three
Encoding: 51 51 23
GlifName: three
Width: 660
VWidth: 0
Flags: HMW
LayerCount: 2
Fore
SplineSet
13 122 m 1
 109 139 l 1
 114 106 137 44 251 44 c 0
 399 44 452 138 466 205 c 0
 468 216 469 228 469 240 c 0
 469 296 437 351 327 351 c 2
 227 351 l 1
 241 420 l 1
 331 420 l 2
 407 420 496 476 517 573 c 0
 520 585 521 599 521 612 c 0
 521 666 494 721 396 721 c 0
 311 721 244 655 220 597 c 1
 126 607 l 1
 155 678 251 791 409 791 c 0
 578 791 613 693 613 620 c 0
 613 602 611 586 608 573 c 0
 589 483 523 427 458 396 c 1
 540 369 566 306 566 250 c 0
 566 236 565 222 562 210 c 0
 545 132 471 -25 237 -25 c 0
 61 -25 20 78 13 122 c 1
EndSplineSet
PickledDataWithLists: "(dp0
Vcom.fontlab.hintData
p1
(dp2
Vvhints
p3
(lp4
(dp5
Vposition
p6
L66L
sVwidth
p7
L10L
sa(dp8
g6
L76L
sg7
L10L
sa(dp9
g6
L203L
sg7
L10L
sa(dp10
g6
L491L
sg7
L10L
sa(dp11
g6
L546L
sg7
L10L
sa(dp12
g6
L589L
sg7
L10L
sa(dp13
g6
L644L
sg7
L10L
sasVhhints
p14
(lp15
(dp16
g6
L-27L
sg7
L10L
sa(dp17
g6
L44L
sg7
L10L
sa(dp18
g6
L150L
sg7
L10L
sa(dp19
g6
L361L
sg7
L10L
sa(dp20
g6
L372L
sg7
L10L
sa(dp21
g6
L630L
sg7
L10L
sa(dp22
g6
L741L
sg7
L10L
sa(dp23
g6
L810L
sg7
L10L
sass."
Substitution2: "Latin.dnom subtable" three.dnom
Substitution2: "Latin.numr subtable" three.numr
Substitution2: "Latin.subs subtable" three.subs
Substitution2: "Latin.sups subtable" three.sups
Substitution2: "Latin.pnum subtable" three.pnum
EndChar

StartChar: four
Encoding: 52 52 24
GlifName: four
Width: 650
VWidth: 0
Flags: HMW
LayerCount: 2
Fore
SplineSet
392 206 m 1
 29 206 l 1
 31 250 l 1
 527 786 l 1
 604 779 l 1
 496 274 l 1
 621 274 l 1
 607 206 l 1
 482 206 l 1
 438 0 l 1
 348 0 l 1
 392 206 l 1
408 274 m 1
 490 657 l 1
 138 274 l 1
 408 274 l 1
EndSplineSet
PickledDataWithLists: "(dp0
Vcom.fontlab.hintData
p1
(dp2
Vvhints
p3
(lp4
(dp5
Vposition
p6
L31L
sVwidth
p7
L10L
sa(dp8
g6
L276L
sg7
L10L
sa(dp9
g6
L374L
sg7
L10L
sa(dp10
g6
L455L
sg7
L10L
sa(dp11
g6
L554L
sg7
L10L
sa(dp12
g6
L679L
sg7
L10L
sasVhhints
p13
(lp14
(dp15
g6
L-30L
sg7
L10L
sa(dp16
g6
L174L
sg7
L10L
sa(dp17
g6
L243L
sg7
L10L
sa(dp18
g6
L259L
sg7
L10L
sa(dp19
g6
L609L
sg7
L10L
sa(dp20
g6
L819L
sg7
L10L
sass."
Substitution2: "Latin.dnom subtable" four.dnom
Substitution2: "Latin.numr subtable" four.numr
Substitution2: "Latin.subs subtable" four.subs
Substitution2: "Latin.sups subtable" four.sups
Substitution2: "Latin.pnum subtable" four.pnum
EndChar

StartChar: five
Encoding: 53 53 25
GlifName: five
Width: 660
VWidth: 0
Flags: HMW
LayerCount: 2
Fore
SplineSet
34 129 m 1
 130 146 l 1
 135 113 159 51 273 51 c 0
 421 51 475 154 491 231 c 0
 495 250 498 270 498 289 c 0
 498 353 470 412 369 412 c 0
 293 412 214 359 177 317 c 1
 115 354 l 1
 220 780 l 1
 660 780 l 1
 645 711 l 1
 292 711 l 1
 221 421 l 1
 265 450 327 479 399 479 c 0
 558 479 593 375 593 294 c 0
 593 272 590 252 587 236 c 0
 569 152 492 -18 258 -18 c 0
 82 -18 41 85 34 129 c 1
EndSplineSet
PickledDataWithLists: "(dp0
Vcom.fontlab.hintData
p1
(dp2
Vvhints
p3
(lp4
(dp5
Vposition
p6
L76L
sVwidth
p7
L10L
sa(dp8
g6
L106L
sg7
L10L
sa(dp9
g6
L125L
sg7
L10L
sa(dp10
g6
L226L
sg7
L10L
sa(dp11
g6
L541L
sg7
L10L
sa(dp12
g6
L614L
sg7
L10L
sa(dp13
g6
L639L
sg7
L10L
sasVhhints
p14
(lp15
(dp16
g6
L-26L
sg7
L10L
sa(dp17
g6
L43L
sg7
L10L
sa(dp18
g6
L150L
sg7
L10L
sa(dp19
g6
L334L
sg7
L10L
sa(dp20
g6
L409L
sg7
L10L
sa(dp21
g6
L477L
sg7
L10L
sa(dp22
g6
L716L
sg7
L10L
sa(dp23
g6
L784L
sg7
L10L
sa(dp24
g6
L795L
sg7
L10L
sass."
Substitution2: "Latin.dnom subtable" five.dnom
Substitution2: "Latin.numr subtable" five.numr
Substitution2: "Latin.subs subtable" five.subs
Substitution2: "Latin.sups subtable" five.sups
Substitution2: "Latin.pnum subtable" five.pnum
EndChar

StartChar: six
Encoding: 54 54 26
GlifName: six
Width: 660
VWidth: 0
Flags: HMW
LayerCount: 2
Fore
SplineSet
90 294 m 2
 121 438 l 2
 149 570 224 798 454 798 c 0
 622 798 649 686 654 642 c 1
 560 627 l 1
 556 666 537 728 439 728 c 0
 312 728 248 592 215 438 c 2
 208 405 l 1
 257 448 321 477 398 477 c 0
 545 477 594 385 594 292 c 0
 594 271 591 250 587 230 c 0
 558 94 445 -18 280 -18 c 0
 144 -18 78 55 78 185 c 0
 78 218 82 254 90 294 c 2
180 266 m 1
 175 237 172 211 172 189 c 0
 172 83 226 52 295 52 c 0
 387 52 469 111 494 230 c 0
 498 249 500 267 500 285 c 0
 500 355 465 411 369 411 c 0
 284 411 213 352 180 266 c 1
EndSplineSet
PickledDataWithLists: "(dp0
Vcom.fontlab.hintData
p1
(dp2
Vvhints
p3
(lp4
(dp5
Vposition
p6
L32L
sVwidth
p7
L10L
sa(dp8
g6
L90L
sg7
L10L
sa(dp9
g6
L188L
sg7
L10L
sa(dp10
g6
L464L
sg7
L10L
sa(dp11
g6
L560L
sg7
L10L
sa(dp12
g6
L658L
sg7
L10L
sasVhhints
p13
(lp14
(dp15
g6
L-29L
sg7
L10L
sa(dp16
g6
L39L
sg7
L10L
sa(dp17
g6
L251L
sg7
L10L
sa(dp18
g6
L397L
sg7
L10L
sa(dp19
g6
L466L
sg7
L10L
sa(dp20
g6
L819L
sg7
L10L
sass."
Substitution2: "Latin.dnom subtable" six.dnom
Substitution2: "Latin.numr subtable" six.numr
Substitution2: "Latin.subs subtable" six.subs
Substitution2: "Latin.sups subtable" six.sups
Substitution2: "Latin.pnum subtable" six.pnum
EndChar

StartChar: seven
Encoding: 55 55 27
GlifName: seven
Width: 585
VWidth: 0
Flags: HMW
LayerCount: 2
Fore
SplineSet
162 706 m 1
 178 780 l 1
 676 780 l 1
 672 728 l 1
 528 576 340 283 289 45 c 2
 279 0 l 1
 181 0 l 1
 191 45 l 2
 238 268 414 542 555 706 c 1
 162 706 l 1
EndSplineSet
PickledDataWithLists: "(dp0
Vcom.fontlab.hintData
p1
(dp2
Vvhints
p3
(lp4
(dp5
Vposition
p6
L69L
sVwidth
p7
L10L
sa(dp8
g6
L199L
sg7
L10L
sa(dp9
g6
L274L
sg7
L10L
sa(dp10
g6
L648L
sg7
L10L
sasVhhints
p11
(lp12
(dp13
g6
L-19L
sg7
L10L
sa(dp14
g6
L554L
sg7
L10L
sa(dp15
g6
L716L
sg7
L10L
sa(dp16
g6
L784L
sg7
L10L
sa(dp17
g6
L795L
sg7
L10L
sass."
Substitution2: "Latin.dnom subtable" seven.dnom
Substitution2: "Latin.numr subtable" seven.numr
Substitution2: "Latin.subs subtable" seven.subs
Substitution2: "Latin.sups subtable" seven.sups
Substitution2: "Latin.pnum subtable" seven.pnum
EndChar

StartChar: eight
Encoding: 56 56 28
GlifName: eight
Width: 660
VWidth: 0
Flags: HMW
LayerCount: 2
Fore
SplineSet
266 -18 m 0
 118 -18 35 56 35 156 c 0
 35 169 36 184 39 198 c 0
 67 329 175 381 249 401 c 1
 196 423 152 467 152 541 c 0
 152 555 154 570 157 586 c 0
 182 704 296 798 440 798 c 0
 565 798 637 726 637 630 c 0
 637 616 636 601 633 586 c 0
 611 484 535 427 461 401 c 1
 518 384 590 342 590 246 c 0
 590 231 589 215 585 198 c 0
 559 77 434 -18 266 -18 c 0
281 50 m 0
 390 50 469 106 489 198 c 0
 492 213 494 226 494 239 c 0
 494 309 447 340 399 353 c 0
 385 358 367 363 348 369 c 1
 327 363 307 358 291 353 c 0
 228 338 156 298 135 198 c 0
 132 186 131 175 131 164 c 0
 131 93 186 50 281 50 c 0
425 730 m 0
 346 730 270 682 250 586 c 0
 247 573 246 561 246 550 c 0
 246 489 284 454 325 443 c 0
 336 440 349 436 362 432 c 1
 377 436 390 440 403 443 c 0
 457 456 522 502 540 586 c 0
 543 600 544 612 544 624 c 0
 544 695 493 730 425 730 c 0
EndSplineSet
PickledDataWithLists: "(dp0
Vcom.fontlab.hintData
p1
(dp2
Vvhints
p3
(lp4
(dp5
Vposition
p6
L76L
sVwidth
p7
L10L
sa(dp8
g6
L87L
sg7
L10L
sa(dp9
g6
L174L
sg7
L10L
sa(dp10
g6
L185L
sg7
L10L
sa(dp11
g6
L549L
sg7
L10L
sa(dp12
g6
L584L
sg7
L10L
sa(dp13
g6
L594L
sg7
L10L
sa(dp14
g6
L649L
sg7
L10L
sasVhhints
p15
(lp16
(dp17
g6
L-24L
sg7
L10L
sa(dp18
g6
L44L
sg7
L10L
sa(dp19
g6
L394L
sg7
L9L
sa(dp20
g6
L610L
sg7
L10L
sa(dp21
g6
L651L
sg7
L10L
sa(dp22
g6
L741L
sg7
L10L
sa(dp23
g6
L809L
sg7
L10L
sass."
Substitution2: "Latin.dnom subtable" eight.dnom
Substitution2: "Latin.numr subtable" eight.numr
Substitution2: "Latin.subs subtable" eight.subs
Substitution2: "Latin.sups subtable" eight.sups
Substitution2: "Latin.pnum subtable" eight.pnum
EndChar

StartChar: nine
Encoding: 57 57 29
GlifName: nine
Width: 660
VWidth: 0
Flags: HMW
LayerCount: 2
Fore
SplineSet
615 486 m 2
 585 342 l 2
 557 210 482 -18 252 -18 c 0
 84 -18 56 94 51 138 c 1
 146 153 l 1
 150 114 169 52 267 52 c 0
 394 52 458 188 491 342 c 2
 498 375 l 1
 449 332 384 303 307 303 c 0
 160 303 112 395 112 488 c 0
 112 509 115 530 119 550 c 0
 148 686 261 798 426 798 c 0
 562 798 628 725 628 595 c 0
 628 562 623 526 615 486 c 2
526 514 m 1
 531 543 534 569 534 591 c 0
 534 697 480 728 411 728 c 0
 319 728 237 669 212 550 c 0
 208 531 206 513 206 495 c 0
 206 425 240 369 336 369 c 0
 421 369 493 428 526 514 c 1
EndSplineSet
PickledDataWithLists: "(dp0
Vcom.fontlab.hintData
p1
(dp2
Vvhints
p3
(lp4
(dp5
Vposition
p6
L52L
sVwidth
p7
L10L
sa(dp8
g6
L150L
sg7
L10L
sa(dp9
g6
L246L
sg7
L10L
sa(dp10
g6
L521L
sg7
L10L
sa(dp11
g6
L620L
sg7
L10L
sa(dp12
g6
L678L
sg7
L10L
sasVhhints
p13
(lp14
(dp15
g6
L-29L
sg7
L10L
sa(dp16
g6
L324L
sg7
L10L
sa(dp17
g6
L393L
sg7
L10L
sa(dp18
g6
L539L
sg7
L10L
sa(dp19
g6
L751L
sg7
L10L
sa(dp20
g6
L819L
sg7
L10L
sass."
Substitution2: "Latin.dnom subtable" nine.dnom
Substitution2: "Latin.numr subtable" nine.numr
Substitution2: "Latin.subs subtable" nine.subs
Substitution2: "Latin.sups subtable" nine.sups
Substitution2: "Latin.pnum subtable" nine.pnum
EndChar

StartChar: colon
Encoding: 58 58 30
GlifName: colon
Width: 330
VWidth: 0
Flags: HMW
LayerCount: 2
Fore
SplineSet
133 133 m 0
 168 133 193 113 193 81 c 0
 193 76 192 71 191 65 c 0
 182 23 145 -3 104 -3 c 0
 69 -3 45 17 45 49 c 0
 45 54 46 59 47 65 c 0
 56 107 92 133 133 133 c 0
223 553 m 0
 258 553 282 533 282 501 c 0
 282 496 281 491 280 485 c 0
 271 443 235 417 194 417 c 0
 159 417 134 437 134 469 c 0
 134 474 135 479 136 485 c 0
 145 527 182 553 223 553 c 0
EndSplineSet
PickledDataWithLists: "(dp0
Vcom.fontlab.hintData
p1
(dp2
Vvhints
p3
(lp4
(dp5
Vposition
p6
L81L
sVwidth
p7
L10L
sa(dp8
g6
L238L
sg7
L10L
sasVhhints
p9
(lp10
(dp11
g6
L-5L
sg7
L10L
sa(dp12
g6
L122L
sg7
L10L
sa(dp13
g6
L475L
sg7
L10L
sa(dp14
g6
L602L
sg7
L10L
sass."
EndChar

StartChar: semicolon
Encoding: 59 59 31
GlifName: semicolon
Width: 330
VWidth: 0
Flags: HMW
LayerCount: 2
Fore
SplineSet
223 553 m 0
 258 553 282 533 282 501 c 0
 282 496 281 491 280 485 c 0
 271 443 235 417 194 417 c 0
 159 417 134 437 134 469 c 0
 134 474 135 479 136 485 c 0
 145 527 182 553 223 553 c 0
45 63 m 0
 54 104 88 133 132 133 c 0
 181 133 201 101 201 59 c 0
 201 48 199 37 197 25 c 0
 175 -79 92 -152 19 -195 c 1
 -1 -156 l 1
 55 -123 106 -72 129 1 c 1
 120 -2 111 -3 101 -3 c 0
 66 -3 44 17 44 48 c 0
 44 53 44 58 45 63 c 0
EndSplineSet
PickledDataWithLists: "(dp0
Vcom.fontlab.hintData
p1
(dp2
Vvhints
p3
(lp4
(dp5
Vposition
p6
L61L
sVwidth
p7
L10L
sa(dp8
g6
L81L
sg7
L10L
sa(dp9
g6
L170L
sg7
L10L
sa(dp10
g6
L239L
sg7
L10L
sa(dp11
g6
L251L
sg7
L10L
sasVhhints
p12
(lp13
(dp14
g6
L-182L
sg7
L10L
sa(dp15
g6
L48L
sg7
L10L
sa(dp16
g6
L117L
sg7
L10L
sa(dp17
g6
L475L
sg7
L10L
sa(dp18
g6
L602L
sg7
L10L
sass."
EndChar

StartChar: less
Encoding: 60 60 32
GlifName: less
Width: 600
VWidth: 0
Flags: HMW
LayerCount: 2
Fore
SplineSet
108 334 m 1
 114 360 l 1
 119 386 l 1
 556 618 l 1
 558 548 l 1
 200 360 l 1
 479 172 l 1
 447 102 l 1
 108 334 l 1
EndSplineSet
PickledDataWithLists: "(dp0
Vcom.fontlab.hintData
p1
(dp2
Vvhints
p3
(lp4
(dp5
Vposition
p6
L63L
sVwidth
p7
L10L
sa(dp8
g6
L514L
sg7
L10L
sa(dp9
g6
L524L
sg7
L10L
sasVhhints
p10
(lp11
(dp12
g6
L65L
sg7
L10L
sa(dp13
g6
L606L
sg7
L10L
sass."
EndChar

StartChar: equal
Encoding: 61 61 33
GlifName: equal
Width: 600
VWidth: 0
Flags: HMW
LayerCount: 2
Fore
SplineSet
127 422 m 1
 141 489 l 1
 547 489 l 1
 533 422 l 1
 127 422 l 1
86 231 m 1
 100 298 l 1
 506 298 l 1
 492 231 l 1
 86 231 l 1
EndSplineSet
PickledDataWithLists: "(dp0
Vcom.fontlab.hintData
p1
(dp2
Vvhints
p3
(lp4
(dp5
Vposition
p6
L75L
sVwidth
p7
L10L
sa(dp8
g6
L514L
sg7
L10L
sasVhhints
p9
(lp10
(dp11
g6
L201L
sg7
L10L
sa(dp12
g6
L263L
sg7
L10L
sa(dp13
g6
L271L
sg7
L10L
sa(dp14
g6
L401L
sg7
L10L
sa(dp15
g6
L463L
sg7
L10L
sa(dp16
g6
L471L
sg7
L10L
sass."
EndChar

StartChar: greater
Encoding: 62 62 34
GlifName: greater
Width: 600
VWidth: 0
Flags: HMW
LayerCount: 2
Fore
SplineSet
525 386 m 1
 520 360 l 1
 514 334 l 1
 77 102 l 1
 75 172 l 1
 434 360 l 1
 154 548 l 1
 186 618 l 1
 525 386 l 1
EndSplineSet
PickledDataWithLists: "(dp0
Vcom.fontlab.hintData
p1
(dp2
Vvhints
p3
(lp4
(dp5
Vposition
p6
L66L
sVwidth
p7
L10L
sa(dp8
g6
L76L
sg7
L10L
sa(dp9
g6
L527L
sg7
L10L
sasVhhints
p10
(lp11
(dp12
g6
L64L
sg7
L10L
sa(dp13
g6
L605L
sg7
L10L
sass."
EndChar

StartChar: question
Encoding: 63 63 35
GlifName: question
Width: 570
VWidth: 0
Flags: HMW
LayerCount: 2
Fore
SplineSet
253 133 m 0
 288 133 313 113 313 81 c 0
 313 76 312 71 311 65 c 0
 302 23 265 -3 224 -3 c 0
 189 -3 165 17 165 49 c 0
 165 54 166 59 167 65 c 0
 176 107 212 133 253 133 c 0
140 650 m 0
 162 752 264 828 400 828 c 0
 510 828 577 775 577 683 c 0
 577 668 576 653 572 636 c 0
 537 472 324 430 298 309 c 0
 296 300 295 292 295 283 c 0
 295 272 296 261 299 250 c 1
 222 241 l 1
 218 256 216 270 216 285 c 0
 216 295 217 305 219 314 c 0
 252 470 449 501 477 633 c 0
 480 647 481 659 481 670 c 0
 481 734 436 757 383 757 c 0
 310 757 251 720 236 650 c 0
 233 638 232 625 232 613 c 0
 232 603 232 594 235 585 c 1
 141 561 l 1
 138 576 136 592 136 609 c 0
 136 623 137 636 140 650 c 0
EndSplineSet
PickledDataWithLists: "(dp0
Vcom.fontlab.hintData
p1
(dp2
Vvhints
p3
(lp4
(dp5
Vposition
p6
L11L
sVwidth
p7
L10L
sa(dp8
g6
L98L
sg7
L10L
sa(dp9
g6
L120L
sg7
L10L
sa(dp10
g6
L152L
sg7
L10L
sa(dp11
g6
L161L
sg7
L10L
sa(dp12
g6
L241L
sg7
L10L
sa(dp13
g6
L254L
sg7
L10L
sa(dp14
g6
L310L
sg7
L10L
sa(dp15
g6
L351L
sg7
L10L
sa(dp16
g6
L439L
sg7
L10L
sasVhhints
p17
(lp18
(dp19
g6
L-5L
sg7
L10L
sa(dp20
g6
L122L
sg7
L10L
sa(dp21
g6
L255L
sg7
L10L
sa(dp22
g6
L594L
sg7
L10L
sa(dp23
g6
L784L
sg7
L10L
sa(dp24
g6
L846L
sg7
L10L
sass."
EndChar

StartChar: at
Encoding: 64 64 36
GlifName: at
Width: 1020
VWidth: 0
Flags: HMW
LayerCount: 2
Fore
SplineSet
75 236 m 0
 129 491 363 780 665 780 c 0
 877 780 970 653 970 494 c 0
 970 463 967 431 960 398 c 0
 925 233 789 40 648 40 c 0
 594 40 578 69 578 106 c 0
 578 111 578 116 579 121 c 1
 534 71 480 35 419 35 c 0
 315 35 280 101 280 175 c 0
 280 193 282 211 286 229 c 0
 315 367 452 561 644 561 c 0
 718 561 744 515 744 468 c 0
 744 458 743 449 741 439 c 0
 732 396 708 341 689 299 c 0
 663 234 647 186 640 153 c 0
 637 137 635 125 635 115 c 0
 635 94 642 87 657 87 c 0
 739 87 872 236 906 398 c 0
 913 429 916 459 916 488 c 0
 916 629 834 732 655 732 c 0
 397 732 180 478 129 236 c 0
 121 200 118 166 118 133 c 0
 118 -22 204 -142 412 -142 c 0
 482 -142 575 -105 604 -89 c 1
 626 -128 l 1
 588 -149 490 -190 402 -190 c 0
 160 -190 63 -46 63 126 c 0
 63 162 67 199 75 236 c 0
431 89 m 0
 509 89 572 178 626 307 c 0
 644 347 670 407 677 439 c 0
 679 447 680 454 680 461 c 0
 680 492 662 508 633 508 c 0
 513 508 384 363 356 229 c 0
 352 212 350 195 350 181 c 0
 350 122 380 89 431 89 c 0
EndSplineSet
PickledDataWithLists: "(dp0
Vcom.fontlab.hintData
p1
(dp2
Vvhints
p3
(lp4
(dp5
Vposition
p6
L74L
sVwidth
p7
L10L
sa(dp8
g6
L143L
sg7
L10L
sa(dp9
g6
L293L
sg7
L10L
sa(dp10
g6
L372L
sg7
L10L
sa(dp11
g6
L622L
sg7
L10L
sa(dp12
g6
L670L
sg7
L10L
sa(dp13
g6
L702L
sg7
L10L
sa(dp14
g6
L726L
sg7
L10L
sa(dp15
g6
L865L
sg7
L10L
sa(dp16
g6
L935L
sg7
L10L
sasVhhints
p17
(lp18
(dp19
g6
L-179L
sg7
L10L
sa(dp20
g6
L-131L
sg7
L10L
sa(dp21
g6
L-76L
sg7
L10L
sa(dp22
g6
L38L
sg7
L10L
sa(dp23
g6
L92L
sg7
L10L
sa(dp24
g6
L352L
sg7
L10L
sa(dp25
g6
L399L
sg7
L10L
sa(dp26
g6
L490L
sg7
L10L
sa(dp27
g6
L544L
sg7
L10L
sa(dp28
g6
L711L
sg7
L10L
sa(dp29
g6
L759L
sg7
L10L
sass."
EndChar

StartChar: A
Encoding: 65 65 37
GlifName: A_
Width: 750
VWidth: 0
Flags: HMW
AnchorPoint: "LatinOgonek.mark" 610 0 basechar 0
AnchorPoint: "LatinBelow.mark" 315 0 basechar 0
AnchorPoint: "LatinAbove.mark" 347 150 basechar 0
LayerCount: 2
Fore
SplineSet
667 0 m 1
 559 0 l 1
 532 176 l 1
 172 176 l 1
 71 0 l 1
 -37 0 l 1
 -36 6 l 1
 441 780 l 1
 521 780 l 1
 668 6 l 1
 667 0 l 1
522 244 m 1
 457 670 l 1
 212 244 l 1
 522 244 l 1
EndSplineSet
PickledDataWithLists: "(dp0
Vcom.fontlab.hintData
p1
(dp2
Vvhints
p3
(lp4
(dp5
Vposition
p6
L33L
sVwidth
p7
L10L
sa(dp8
g6
L39L
sg7
L10L
sa(dp9
g6
L763L
sg7
L10L
sasVhhints
p10
(lp11
(dp12
g6
L-16L
sg7
L10L
sa(dp13
g6
L3L
sg7
L10L
sa(dp14
g6
L179L
sg7
L10L
sa(dp15
g6
L209L
sg7
L10L
sa(dp16
g6
L271L
sg7
L10L
sa(dp17
g6
L810L
sg7
L10L
sass."
EndChar

StartChar: B
Encoding: 66 66 38
GlifName: B_
Width: 745
VWidth: 0
Flags: HMW
AnchorPoint: "LatinBelow.mark" 260 0 basechar 0
AnchorPoint: "LatinAbove.mark" 292 150 basechar 0
LayerCount: 2
Fore
SplineSet
526 430 m 1
 617 406 675 352 675 267 c 0
 675 253 673 237 670 221 c 0
 639 73 488 -9 308 -9 c 0
 196 -9 66 -2 38 0 c 1
 204 780 l 1
 228 782 346 789 446 789 c 0
 578 789 679 737 679 633 c 0
 679 621 677 608 674 594 c 0
 657 512 597 459 526 430 c 1
404 444 m 1
 480 452 562 497 581 587 c 0
 583 598 584 608 584 617 c 0
 584 689 518 721 421 721 c 0
 366 721 308 718 280 716 c 1
 221 439 l 1
 273 442 340 444 404 444 c 1
142 64 m 1
 184 62 253 60 313 60 c 0
 441 60 552 105 577 221 c 0
 580 234 581 245 581 256 c 0
 581 345 495 380 381 380 c 0
 321 380 250 378 208 376 c 1
 142 64 l 1
EndSplineSet
PickledDataWithLists: "(dp0
Vcom.fontlab.hintData
p1
(dp2
Vvhints
p3
(lp4
(dp5
Vposition
p6
L26L
sVwidth
p7
L10L
sa(dp8
g6
L116L
sg7
L10L
sa(dp9
g6
L121L
sg7
L10L
sa(dp10
g6
L223L
sg7
L10L
sa(dp11
g6
L537L
sg7
L10L
sa(dp12
g6
L636L
sg7
L10L
sa(dp13
g6
L735L
sg7
L10L
sasVhhints
p14
(lp15
(dp16
g6
L-22L
sg7
L10L
sa(dp17
g6
L49L
sg7
L10L
sa(dp18
g6
L395L
sg7
L10L
sa(dp19
g6
L634L
sg7
L10L
sa(dp20
g6
L661L
sg7
L10L
sa(dp21
g6
L742L
sg7
L10L
sa(dp22
g6
L809L
sg7
L10L
sass."
Colour: ff00
EndChar

StartChar: C
Encoding: 67 67 39
GlifName: C_
Width: 755
VWidth: 0
Flags: HMW
AnchorPoint: "LatinCedilla.mark" 352 0 basechar 0
AnchorPoint: "LatinBelow.mark" 350 0 basechar 0
AnchorPoint: "LatinAbove.mark" 382 150 basechar 0
LayerCount: 2
Fore
SplineSet
94 405 m 2
 134 593 258 797 522 797 c 0
 711 797 774 677 774 597 c 0
 774 595 774 593 774 591 c 1
 673 581 l 1
 673 582 673 582 673 583 c 0
 673 644 628 724 507 724 c 0
 339 724 234 592 194 405 c 2
 187 373 l 2
 178 333 174 294 174 260 c 0
 174 135 232 54 364 54 c 0
 486 54 567 136 592 197 c 1
 688 187 l 1
 657 107 543 -19 349 -19 c 0
 141 -19 74 107 74 252 c 0
 74 291 78 333 87 373 c 2
 94 405 l 2
EndSplineSet
PickledDataWithLists: "(dp0
Vcom.fontlab.hintData
p1
(dp2
Vvhints
p3
(lp4
(dp5
Vposition
p6
L68L
sVwidth
p7
L10L
sa(dp8
g6
L172L
sg7
L10L
sa(dp9
g6
L569L
sg7
L10L
sa(dp10
g6
L673L
sg7
L10L
sa(dp11
g6
L707L
sg7
L10L
sasVhhints
p12
(lp13
(dp14
g6
L-20L
sg7
L10L
sa(dp15
g6
L52L
sg7
L10L
sa(dp16
g6
L169L
sg7
L10L
sa(dp17
g6
L586L
sg7
L10L
sa(dp18
g6
L739L
sg7
L10L
sa(dp19
g6
L811L
sg7
L10L
sass."
Colour: ff00
EndChar

StartChar: D
Encoding: 68 68 40
GlifName: D_
Width: 770
VWidth: 0
Flags: HMW
AnchorPoint: "LatinBelow.mark" 260 0 basechar 0
AnchorPoint: "LatinAbove.mark" 292 150 basechar 0
LayerCount: 2
Fore
SplineSet
147 64 m 1
 177 63 215 61 243 61 c 0
 477 61 589 195 627 374 c 2
 634 406 l 2
 641 440 645 471 645 501 c 0
 645 630 573 719 383 719 c 0
 355 719 315 717 285 716 c 1
 147 64 l 1
204 780 m 1
 204 780 314 789 398 789 c 0
 653 789 740 658 740 505 c 0
 740 473 736 439 729 406 c 2
 722 374 l 2
 682 184 537 -9 228 -9 c 0
 144 -9 38 0 38 0 c 1
 204 780 l 1
EndSplineSet
PickledDataWithLists: "(dp0
Vcom.fontlab.hintData
p1
(dp2
Vvhints
p3
(lp4
(dp5
Vposition
p6
L26L
sVwidth
p7
L10L
sa(dp8
g6
L116L
sg7
L10L
sa(dp9
g6
L121L
sg7
L10L
sa(dp10
g6
L223L
sg7
L10L
sa(dp11
g6
L630L
sg7
L10L
sa(dp12
g6
L729L
sg7
L10L
sasVhhints
p13
(lp14
(dp15
g6
L-21L
sg7
L10L
sa(dp16
g6
L49L
sg7
L10L
sa(dp17
g6
L634L
sg7
L10L
sa(dp18
g6
L661L
sg7
L10L
sa(dp19
g6
L742L
sg7
L10L
sa(dp20
g6
L810L
sg7
L10L
sass."
EndChar

StartChar: E
Encoding: 69 69 41
GlifName: E_
Width: 675
VWidth: 0
Flags: HMW
AnchorPoint: "LatinOgonek.mark" 485 0 basechar 0
AnchorPoint: "LatinBelow.mark" 290 0 basechar 0
AnchorPoint: "LatinAbove.mark" 322 150 basechar 0
LayerCount: 2
Fore
SplineSet
38 0 m 1
 204 780 l 1
 704 780 l 1
 688 706 l 1
 284 706 l 1
 223 420 l 1
 593 420 l 1
 578 350 l 1
 208 350 l 1
 150 74 l 1
 569 74 l 1
 553 0 l 1
 38 0 l 1
EndSplineSet
PickledDataWithLists: "(dp0
Vcom.fontlab.hintData
p1
(dp2
Vvhints
p3
(lp4
(dp5
Vposition
p6
L66L
sVwidth
p7
L10L
sa(dp8
g6
L106L
sg7
L10L
sa(dp9
g6
L121L
sg7
L10L
sa(dp10
g6
L204L
sg7
L10L
sa(dp11
g6
L220L
sg7
L10L
sa(dp12
g6
L564L
sg7
L10L
sa(dp13
g6
L644L
sg7
L10L
sa(dp14
g6
L674L
sg7
L10L
sasVhhints
p15
(lp16
(dp17
g6
L-24L
sg7
L10L
sa(dp18
g6
L-9L
sg7
L10L
sa(dp19
g6
L46L
sg7
L10L
sa(dp20
g6
L59L
sg7
L10L
sa(dp21
g6
L361L
sg7
L10L
sa(dp22
g6
L423L
sg7
L10L
sa(dp23
g6
L726L
sg7
L10L
sa(dp24
g6
L794L
sg7
L10L
sa(dp25
g6
L799L
sg7
L10L
sa(dp26
g6
L804L
sg7
L10L
sass."
Colour: ff00
EndChar

StartChar: F
Encoding: 70 70 42
GlifName: F_
Width: 640
VWidth: 0
Flags: HMW
AnchorPoint: "LatinBelow.mark" 100 0 basechar 0
AnchorPoint: "LatinAbove.mark" 312 150 basechar 0
LayerCount: 2
Fore
SplineSet
38 0 m 1
 204 780 l 1
 694 780 l 1
 678 706 l 1
 284 706 l 1
 224 422 l 1
 584 422 l 1
 568 348 l 1
 208 348 l 1
 134 0 l 1
 38 0 l 1
EndSplineSet
PickledDataWithLists: "(dp0
Vcom.fontlab.hintData
p1
(dp2
Vvhints
p3
(lp4
(dp5
Vposition
p6
L59L
sVwidth
p7
L10L
sa(dp8
g6
L66L
sg7
L10L
sa(dp9
g6
L116L
sg7
L10L
sa(dp10
g6
L124L
sg7
L10L
sa(dp11
g6
L214L
sg7
L10L
sa(dp12
g6
L222L
sg7
L10L
sa(dp13
g6
L564L
sg7
L10L
sa(dp14
g6
L644L
sg7
L10L
sasVhhints
p15
(lp16
(dp17
g6
L-14L
sg7
L10L
sa(dp18
g6
L355L
sg7
L10L
sa(dp19
g6
L360L
sg7
L10L
sa(dp20
g6
L423L
sg7
L10L
sa(dp21
g6
L726L
sg7
L10L
sa(dp22
g6
L794L
sg7
L10L
sa(dp23
g6
L799L
sg7
L10L
sa(dp24
g6
L804L
sg7
L10L
sass."
Colour: ff00
EndChar

StartChar: G
Encoding: 71 71 43
GlifName: G_
Width: 770
VWidth: 0
Flags: HMW
AnchorPoint: "LatinBelow.mark" 350 0 basechar 0
AnchorPoint: "LatinAbove.mark" 382 150 basechar 0
LayerCount: 2
Fore
SplineSet
428 311 m 1
 443 379 l 1
 724 379 l 1
 672 138 l 1
 628 74 521 -18 349 -18 c 0
 141 -18 74 108 74 253 c 0
 74 292 78 333 87 373 c 2
 95 407 l 2
 135 595 259 798 523 798 c 0
 712 798 774 678 774 598 c 0
 774 596 774 594 774 592 c 1
 675 583 l 1
 675 584 675 584 675 585 c 0
 675 646 630 726 507 726 c 0
 337 726 233 596 193 407 c 2
 185 373 l 2
 176 332 172 294 172 259 c 0
 172 133 231 54 364 54 c 0
 482 54 550 103 587 147 c 1
 622 311 l 1
 428 311 l 1
EndSplineSet
PickledDataWithLists: "(dp0
Vcom.fontlab.hintData
p1
(dp2
Vvhints
p3
(lp4
(dp5
Vposition
p6
L71L
sVwidth
p7
L10L
sa(dp8
g6
L169L
sg7
L10L
sa(dp9
g6
L386L
sg7
L10L
sa(dp10
g6
L572L
sg7
L10L
sa(dp11
g6
L615L
sg7
L10L
sa(dp12
g6
L670L
sg7
L10L
sa(dp13
g6
L715L
sg7
L10L
sasVhhints
p14
(lp15
(dp16
g6
L-24L
sg7
L10L
sa(dp17
g6
L44L
sg7
L10L
sa(dp18
g6
L290L
sg7
L10L
sa(dp19
g6
L390L
sg7
L10L
sa(dp20
g6
L587L
sg7
L10L
sa(dp21
g6
L741L
sg7
L10L
sa(dp22
g6
L810L
sg7
L10L
sass."
Colour: ff00
EndChar

StartChar: H
Encoding: 72 72 44
GlifName: H_
Width: 790
VWidth: 0
Flags: HMW
AnchorPoint: "LatinBelow.mark" 335 0 basechar 0
AnchorPoint: "LatinAbove.mark" 367 150 basechar 0
LayerCount: 2
Fore
SplineSet
37 0 m 1
 203 780 l 1
 299 780 l 1
 224 427 l 1
 628 427 l 1
 703 780 l 1
 799 780 l 1
 633 0 l 1
 537 0 l 1
 612 353 l 1
 208 353 l 1
 133 0 l 1
 37 0 l 1
EndSplineSet
PickledDataWithLists: "(dp0
Vcom.fontlab.hintData
p1
(dp2
Vvhints
p3
(lp4
(dp5
Vposition
p6
L66L
sVwidth
p7
L10L
sa(dp8
g6
L101L
sg7
L10L
sa(dp9
g6
L111L
sg7
L10L
sa(dp10
g6
L211L
sg7
L10L
sa(dp11
g6
L605L
sg7
L10L
sa(dp12
g6
L704L
sg7
L10L
sa(dp13
g6
L744L
sg7
L10L
sasVhhints
p14
(lp15
(dp16
g6
L-14L
sg7
L10L
sa(dp17
g6
L355L
sg7
L10L
sa(dp18
g6
L423L
sg7
L10L
sa(dp19
g6
L794L
sg7
L10L
sa(dp20
g6
L799L
sg7
L10L
sass."
Colour: ff00
EndChar

StartChar: I
Encoding: 73 73 45
GlifName: I_
Width: 320
VWidth: 0
Flags: HMW
AnchorPoint: "LatinOgonek.mark" 105 0 basechar 0
AnchorPoint: "LatinBelow.mark" 100 0 basechar 0
AnchorPoint: "LatinAbove.mark" 132 150 basechar 0
LayerCount: 2
Fore
SplineSet
52 0 m 1
 218 780 l 1
 314 780 l 1
 148 0 l 1
 52 0 l 1
EndSplineSet
PickledDataWithLists: "(dp0
Vcom.fontlab.hintData
p1
(dp2
Vvhints
p3
(lp4
(dp5
Vposition
p6
L53L
sVwidth
p7
L10L
sa(dp8
g6
L77L
sg7
L10L
sa(dp9
g6
L188L
sg7
L10L
sa(dp10
g6
L194L
sg7
L10L
sa(dp11
g6
L282L
sg7
L10L
sa(dp12
g6
L288L
sg7
L10L
sa(dp13
g6
L414L
sg7
L10L
sasVhhints
p14
(lp15
(dp16
g6
L-3L
sg7
L10L
sa(dp17
g6
L3L
sg7
L10L
sa(dp18
g6
L59L
sg7
L10L
sa(dp19
g6
L67L
sg7
L10L
sa(dp20
g6
L729L
sg7
L10L
sa(dp21
g6
L788L
sg7
L10L
sass."
Colour: ff00
EndChar

StartChar: J
Encoding: 74 74 46
GlifName: J_
Width: 520
VWidth: 0
Flags: HMW
AnchorPoint: "LatinBelow.mark" 170 0 basechar 0
AnchorPoint: "LatinAbove.mark" 332 150 basechar 0
LayerCount: 2
Fore
SplineSet
-3 136 m 1
 94 143 l 1
 94 140 94 138 94 135 c 0
 94 82 124 53 177 53 c 0
 233 53 284 84 301 162 c 2
 433 781 l 1
 529 781 l 1
 397 162 l 2
 376 63 287 -17 162 -17 c 0
 44 -17 -3 55 -3 126 c 0
 -3 129 -3 133 -3 136 c 1
EndSplineSet
PickledDataWithLists: "(dp0
Vcom.fontlab.hintData
p1
(dp2
Vvhints
p3
(lp4
(dp5
Vposition
p6
L16L
sVwidth
p7
L10L
sa(dp8
g6
L152L
sg7
L10L
sa(dp9
g6
L318L
sg7
L10L
sa(dp10
g6
L412L
sg7
L10L
sa(dp11
g6
L492L
sg7
L10L
sasVhhints
p12
(lp13
(dp14
g6
L-14L
sg7
L10L
sa(dp15
g6
L55L
sg7
L9L
sa(dp16
g6
L129L
sg7
L10L
sa(dp17
g6
L730L
sg7
L10L
sa(dp18
g6
L788L
sg7
L10L
sass."
Colour: ff00
EndChar

StartChar: K
Encoding: 75 75 47
GlifName: K_
Width: 715
VWidth: 0
Flags: HMW
AnchorPoint: "LatinBelow.mark" 300 0 basechar 0
AnchorPoint: "LatinAbove.mark" 332 150 basechar 0
LayerCount: 2
Fore
SplineSet
37 0 m 1
 203 780 l 1
 295 780 l 1
 209 378 l 1
 654 780 l 1
 758 772 l 1
 757 768 l 1
 391 452 l 1
 643 5 l 1
 642 0 l 1
 529 0 l 1
 316 388 l 1
 188 276 l 1
 129 0 l 1
 37 0 l 1
EndSplineSet
PickledDataWithLists: "(dp0
Vcom.fontlab.hintData
p1
(dp2
Vvhints
p3
(lp4
(dp5
Vposition
p6
L64L
sVwidth
p7
L10L
sa(dp8
g6
L86L
sg7
L10L
sa(dp9
g6
L116L
sg7
L10L
sa(dp10
g6
L211L
sg7
L10L
sa(dp11
g6
L219L
sg7
L10L
sa(dp12
g6
L679L
sg7
L10L
sa(dp13
g6
L734L
sg7
L10L
sasVhhints
p14
(lp15
(dp16
g6
L-14L
sg7
L10L
sa(dp17
g6
L-9L
sg7
L10L
sa(dp18
g6
L799L
sg7
L10L
sass."
Colour: ff00
EndChar

StartChar: L
Encoding: 76 76 48
GlifName: L_
Width: 570
VWidth: 0
Flags: HMW
AnchorPoint: "LatinBelow.mark" 260 0 basechar 0
AnchorPoint: "LatinAbove.mark" 132 150 basechar 0
LayerCount: 2
Fore
SplineSet
38 0 m 1
 204 780 l 1
 300 780 l 1
 150 74 l 1
 494 74 l 1
 478 0 l 1
 38 0 l 1
EndSplineSet
PickledDataWithLists: "(dp0
Vcom.fontlab.hintData
p1
(dp2
Vvhints
p3
(lp4
(dp5
Vposition
p6
L126L
sVwidth
p7
L10L
sa(dp8
g6
L131L
sg7
L10L
sa(dp9
g6
L144L
sg7
L10L
sa(dp10
g6
L224L
sg7
L10L
sa(dp11
g6
L242L
sg7
L10L
sa(dp12
g6
L624L
sg7
L10L
sasVhhints
p13
(lp14
(dp15
g6
L-23L
sg7
L10L
sa(dp16
g6
L-9L
sg7
L10L
sa(dp17
g6
L45L
sg7
L10L
sa(dp18
g6
L59L
sg7
L10L
sa(dp19
g6
L794L
sg7
L10L
sass."
Colour: ff00
EndChar

StartChar: M
Encoding: 77 77 49
GlifName: M_
Width: 880
VWidth: 0
Flags: HMW
AnchorPoint: "LatinBelow.mark" 380 0 basechar 0
AnchorPoint: "LatinAbove.mark" 412 150 basechar 0
LayerCount: 2
Fore
SplineSet
723 0 m 1
 629 0 l 1
 757 600 l 1
 445 195 l 1
 397 195 l 1
 259 600 l 1
 131 0 l 1
 37 0 l 1
 201 771 l 1
 283 780 l 1
 442 294 l 1
 809 780 l 1
 887 771 l 1
 723 0 l 1
EndSplineSet
PickledDataWithLists: "(dp0
Vcom.fontlab.hintData
p1
(dp2
Vvhints
p3
(lp4
(dp5
Vposition
p6
L66L
sVwidth
p7
L10L
sa(dp8
g6
L102L
sg7
L10L
sa(dp9
g6
L197L
sg7
L10L
sa(dp10
g6
L691L
sg7
L10L
sa(dp11
g6
L785L
sg7
L10L
sa(dp12
g6
L824L
sg7
L10L
sasVhhints
p13
(lp14
(dp15
g6
L-19L
sg7
L10L
sa(dp16
g6
L-9L
sg7
L10L
sa(dp17
g6
L137L
sg7
L10L
sa(dp18
g6
L604L
sg7
L20L
sa(dp19
g6
L783L
sg7
L10L
sa(dp20
g6
L795L
sg7
L10L
sass."
Colour: ff00
EndChar

StartChar: N
Encoding: 78 78 50
GlifName: N_
Width: 790
VWidth: 0
Flags: HMW
AnchorPoint: "LatinBelow.mark" 335 0 basechar 0
AnchorPoint: "LatinAbove.mark" 367 150 basechar 0
LayerCount: 2
Fore
SplineSet
38 0 m 1
 202 771 l 1
 286 780 l 1
 571 152 l 1
 705 780 l 1
 798 780 l 1
 632 0 l 1
 550 0 l 1
 264 628 l 1
 131 0 l 1
 38 0 l 1
EndSplineSet
PickledDataWithLists: "(dp0
Vcom.fontlab.hintData
p1
(dp2
Vvhints
p3
(lp4
(dp5
Vposition
p6
L97L
sVwidth
p7
L10L
sa(dp8
g6
L111L
sg7
L10L
sa(dp9
g6
L209L
sg7
L10L
sa(dp10
g6
L601L
sg7
L10L
sa(dp11
g6
L613L
sg7
L10L
sa(dp12
g6
L699L
sg7
L10L
sa(dp13
g6
L711L
sg7
L10L
sasVhhints
p14
(lp15
(dp16
g6
L-14L
sg7
L10L
sa(dp17
g6
L-8L
sg7
L10L
sa(dp18
g6
L794L
sg7
L10L
sass."
Colour: ff00
EndChar

StartChar: O
Encoding: 79 79 51
GlifName: O_
Width: 820
VWidth: 0
Flags: HMW
AnchorPoint: "LatinOgonek.mark" 420 0 basechar 0
AnchorPoint: "LatinBelow.mark" 350 0 basechar 0
AnchorPoint: "LatinAbove.mark" 382 150 basechar 0
LayerCount: 2
Fore
SplineSet
87 372 m 2
 95 408 l 2
 135 594 257 798 520 798 c 0
 726 798 792 673 792 529 c 0
 792 489 788 448 779 408 c 2
 771 372 l 2
 731 186 609 -18 346 -18 c 0
 140 -18 74 107 74 251 c 0
 74 291 78 332 87 372 c 2
361 54 m 0
 530 54 633 186 673 372 c 2
 681 408 l 2
 690 449 694 486 694 521 c 0
 694 645 636 726 504 726 c 0
 335 726 233 594 193 408 c 2
 185 372 l 2
 176 331 172 294 172 259 c 0
 172 135 229 54 361 54 c 0
EndSplineSet
PickledDataWithLists: "(dp0
Vcom.fontlab.hintData
p1
(dp2
Vvhints
p3
(lp4
(dp5
Vposition
p6
L66L
sVwidth
p7
L10L
sa(dp8
g6
L164L
sg7
L10L
sa(dp9
g6
L572L
sg7
L10L
sa(dp10
g6
L659L
sg7
L10L
sa(dp11
g6
L690L
sg7
L10L
sa(dp12
g6
L757L
sg7
L10L
sasVhhints
p13
(lp14
(dp15
g6
L-22L
sg7
L10L
sa(dp16
g6
L47L
sg7
L10L
sa(dp17
g6
L742L
sg7
L10L
sa(dp18
g6
L811L
sg7
L10L
sass."
Colour: ff00
EndChar

StartChar: P
Encoding: 80 80 52
GlifName: P_
Width: 710
VWidth: 0
Flags: HMW
AnchorPoint: "LatinBelow.mark" 100 0 basechar 0
AnchorPoint: "LatinAbove.mark" 332 150 basechar 0
LayerCount: 2
Fore
SplineSet
217 402 m 1
 253 400 308 398 365 398 c 0
 493 398 602 443 627 559 c 0
 630 572 631 584 631 595 c 0
 631 684 547 720 433 720 c 0
 376 720 320 718 284 716 c 1
 217 402 l 1
203 333 m 1
 132 0 l 1
 38 0 l 1
 110 338 l 1
 204 780 l 1
 232 782 346 789 458 789 c 0
 618 789 727 725 727 606 c 0
 727 591 725 575 722 559 c 0
 691 411 540 329 360 329 c 0
 304 329 249 331 203 333 c 1
EndSplineSet
PickledDataWithLists: "(dp0
Vcom.fontlab.hintData
p1
(dp2
Vvhints
p3
(lp4
(dp5
Vposition
p6
L26L
sVwidth
p7
L10L
sa(dp8
g6
L36L
sg7
L10L
sa(dp9
g6
L116L
sg7
L10L
sa(dp10
g6
L130L
sg7
L10L
sa(dp11
g6
L228L
sg7
L10L
sa(dp12
g6
L592L
sg7
L10L
sa(dp13
g6
L693L
sg7
L10L
sasVhhints
p14
(lp15
(dp16
g6
L-24L
sg7
L10L
sa(dp17
g6
L302L
sg7
L10L
sa(dp18
g6
L369L
sg7
L10L
sa(dp19
g6
L429L
sg7
L10L
sa(dp20
g6
L634L
sg7
L10L
sa(dp21
g6
L661L
sg7
L10L
sa(dp22
g6
L744L
sg7
L10L
sa(dp23
g6
L813L
sg7
L10L
sass."
Colour: ff00
EndChar

StartChar: Q
Encoding: 81 81 53
GlifName: Q_
Width: 820
VWidth: 0
Flags: HMW
AnchorPoint: "LatinBelow.mark" 350 0 basechar 0
AnchorPoint: "LatinAbove.mark" 382 150 basechar 0
LayerCount: 2
Fore
SplineSet
87 372 m 2
 95 408 l 2
 135 594 257 798 520 798 c 0
 726 798 792 673 792 529 c 0
 792 489 788 448 779 408 c 2
 771 372 l 2
 752 283 714 189 650 116 c 1
 741 29 l 1
 689 -25 l 1
 597 65 l 1
 533 14 451 -18 346 -18 c 0
 140 -18 74 107 74 251 c 0
 74 291 78 332 87 372 c 2
388 269 m 1
 437 319 l 1
 590 173 l 1
 629 226 656 294 673 372 c 2
 681 408 l 2
 690 449 694 486 694 521 c 0
 694 645 636 726 504 726 c 0
 335 726 233 594 193 408 c 2
 185 372 l 2
 176 331 172 294 172 259 c 0
 172 135 229 54 361 54 c 0
 433 54 493 77 541 119 c 1
 388 269 l 1
EndSplineSet
PickledDataWithLists: "(dp0
Vcom.fontlab.hintData
p1
(dp2
Vvhints
p3
(lp4
(dp5
Vposition
p6
L66L
sVwidth
p7
L10L
sa(dp8
g6
L164L
sg7
L10L
sa(dp9
g6
L407L
sg7
L10L
sa(dp10
g6
L491L
sg7
L10L
sa(dp11
g6
L675L
sg7
L10L
sa(dp12
g6
L690L
sg7
L10L
sa(dp13
g6
L760L
sg7
L10L
sa(dp14
g6
L769L
sg7
L10L
sasVhhints
p15
(lp16
(dp17
g6
L-206L
sg7
L10L
sa(dp18
g6
L-17L
sg7
L10L
sa(dp19
g6
L46L
sg7
L10L
sa(dp20
g6
L514L
sg7
L10L
sa(dp21
g6
L576L
sg7
L10L
sa(dp22
g6
L598L
sg7
L10L
sa(dp23
g6
L742L
sg7
L10L
sa(dp24
g6
L811L
sg7
L10L
sass."
Colour: ff00
EndChar

StartChar: R
Encoding: 82 82 54
GlifName: R_
Width: 730
VWidth: 0
Flags: HMW
AnchorPoint: "LatinBelow.mark" 300 0 basechar 0
AnchorPoint: "LatinAbove.mark" 332 150 basechar 0
LayerCount: 2
Fore
SplineSet
217 402 m 1
 253 400 308 398 365 398 c 0
 493 398 602 443 627 559 c 0
 630 572 631 584 631 595 c 0
 631 684 547 720 433 720 c 0
 376 720 320 718 284 716 c 1
 217 402 l 1
328 329 m 1
 283 330 240 331 203 333 c 1
 132 0 l 1
 38 0 l 1
 110 338 l 1
 204 780 l 1
 232 782 346 789 458 789 c 0
 618 789 727 725 727 606 c 0
 727 591 725 575 722 559 c 0
 695 431 578 352 431 333 c 1
 634 5 l 1
 633 0 l 1
 525 0 l 1
 328 329 l 1
EndSplineSet
PickledDataWithLists: "(dp0
Vcom.fontlab.hintData
p1
(dp2
Vvhints
p3
(lp4
(dp5
Vposition
p6
L26L
sVwidth
p7
L10L
sa(dp8
g6
L116L
sg7
L10L
sa(dp9
g6
L126L
sg7
L10L
sa(dp10
g6
L228L
sg7
L10L
sa(dp11
g6
L605L
sg7
L10L
sa(dp12
g6
L705L
sg7
L10L
sa(dp13
g6
L734L
sg7
L10L
sasVhhints
p14
(lp15
(dp16
g6
L-29L
sg7
L10L
sa(dp17
g6
L-24L
sg7
L10L
sa(dp18
g6
L332L
sg7
L10L
sa(dp19
g6
L401L
sg7
L10L
sa(dp20
g6
L430L
sg7
L10L
sa(dp21
g6
L634L
sg7
L10L
sa(dp22
g6
L661L
sg7
L10L
sa(dp23
g6
L745L
sg7
L10L
sa(dp24
g6
L812L
sg7
L10L
sass."
Colour: ff00
EndChar

StartChar: S
Encoding: 83 83 55
GlifName: S_
Width: 710
VWidth: 0
Flags: HMW
AnchorPoint: "LatinCedilla.mark" 320 0 basechar 0
AnchorPoint: "LatinBelow.mark" 295 0 basechar 0
AnchorPoint: "LatinAbove.mark" 327 150 basechar 0
LayerCount: 2
Fore
SplineSet
40 177 m 1
 136 190 l 1
 136 188 136 186 136 184 c 0
 136 123 184 52 306 52 c 0
 437 52 517 109 536 197 c 0
 538 208 539 218 539 227 c 0
 539 288 494 315 456 327 c 0
 401 343 319 370 265 392 c 0
 208 415 141 460 141 545 c 0
 141 557 142 570 145 583 c 0
 171 707 301 798 465 798 c 0
 633 798 696 690 696 612 c 0
 696 610 696 609 696 607 c 1
 598 594 l 1
 598 595 598 595 598 596 c 0
 598 658 555 728 450 728 c 0
 338 728 257 672 239 587 c 0
 237 579 236 571 236 564 c 0
 236 511 282 487 324 469 c 0
 376 449 455 421 506 405 c 0
 569 384 635 338 635 247 c 0
 635 233 634 218 630 201 c 0
 603 75 475 -18 291 -18 c 0
 105 -18 40 93 40 173 c 0
 40 174 40 176 40 177 c 1
EndSplineSet
PickledDataWithLists: "(dp0
Vcom.fontlab.hintData
p1
(dp2
Vvhints
p3
(lp4
(dp5
Vposition
p6
L60L
sVwidth
p7
L10L
sa(dp8
g6
L68L
sg7
L10L
sa(dp9
g6
L159L
sg7
L10L
sa(dp10
g6
L494L
sg7
L10L
sa(dp11
g6
L555L
sg7
L10L
sa(dp12
g6
L594L
sg7
L10L
sa(dp13
g6
L654L
sg7
L10L
sasVhhints
p14
(lp15
(dp16
g6
L-22L
sg7
L10L
sa(dp17
g6
L46L
sg7
L10L
sa(dp18
g6
L192L
sg7
L10L
sa(dp19
g6
L584L
sg7
L10L
sa(dp20
g6
L744L
sg7
L10L
sa(dp21
g6
L812L
sg7
L10L
sass."
Colour: ff00
EndChar

StartChar: T
Encoding: 84 84 56
GlifName: T_
Width: 620
VWidth: 0
Flags: HMW
AnchorPoint: "LatinCedilla.mark" 260 0 basechar 0
AnchorPoint: "LatinBelow.mark" 250 0 basechar 0
AnchorPoint: "LatinAbove.mark" 282 150 basechar 0
LayerCount: 2
Fore
SplineSet
127 708 m 1
 143 780 l 1
 689 780 l 1
 673 708 l 1
 448 708 l 1
 298 0 l 1
 202 0 l 1
 352 708 l 1
 127 708 l 1
EndSplineSet
PickledDataWithLists: "(dp0
Vcom.fontlab.hintData
p1
(dp2
Vvhints
p3
(lp4
(dp5
Vposition
p6
L25L
sVwidth
p7
L10L
sa(dp8
g6
L301L
sg7
L10L
sa(dp9
g6
L306L
sg7
L10L
sa(dp10
g6
L407L
sg7
L10L
sa(dp11
g6
L674L
sg7
L10L
sasVhhints
p12
(lp13
(dp14
g6
L-19L
sg7
L10L
sa(dp15
g6
L722L
sg7
L10L
sa(dp16
g6
L731L
sg7
L10L
sa(dp17
g6
L790L
sg7
L10L
sa(dp18
g6
L800L
sg7
L10L
sass."
Colour: ff00
EndChar

StartChar: U
Encoding: 85 85 57
GlifName: U_
Width: 770
VWidth: 0
Flags: HMW
AnchorPoint: "LatinOgonek.mark" 420 0 basechar 0
AnchorPoint: "LatinBelow.mark" 325 0 basechar 0
AnchorPoint: "LatinAbove.mark" 357 150 basechar 0
LayerCount: 2
Fore
SplineSet
77 236 m 2
 193 780 l 1
 289 780 l 1
 173 236 l 2
 170 220 168 205 168 191 c 0
 168 102 234 54 336 54 c 0
 454 54 552 118 577 236 c 2
 693 780 l 1
 789 780 l 1
 673 236 l 2
 642 90 501 -18 321 -18 c 0
 164 -18 71 65 71 183 c 0
 71 200 73 218 77 236 c 2
EndSplineSet
PickledDataWithLists: "(dp0
Vcom.fontlab.hintData
p1
(dp2
Vvhints
p3
(lp4
(dp5
Vposition
p6
L96L
sVwidth
p7
L10L
sa(dp8
g6
L107L
sg7
L10L
sa(dp9
g6
L194L
sg7
L10L
sa(dp10
g6
L205L
sg7
L10L
sa(dp11
g6
L603L
sg7
L10L
sa(dp12
g6
L616L
sg7
L10L
sa(dp13
g6
L704L
sg7
L10L
sa(dp14
g6
L714L
sg7
L10L
sasVhhints
p15
(lp16
(dp17
g6
L-24L
sg7
L10L
sa(dp18
g6
L44L
sg7
L10L
sa(dp19
g6
L789L
sg7
L10L
sass."
EndChar

StartChar: V
Encoding: 86 86 58
GlifName: V_
Width: 750
VWidth: 0
Flags: HMW
AnchorPoint: "LatinBelow.mark" 315 0 basechar 0
AnchorPoint: "LatinAbove.mark" 347 150 basechar 0
LayerCount: 2
Fore
SplineSet
130 764 m 1
 132 771 l 1
 246 780 l 1
 340 116 l 1
 716 780 l 1
 826 771 l 1
 824 764 l 1
 356 0 l 1
 274 0 l 1
 130 764 l 1
EndSplineSet
PickledDataWithLists: "(dp0
Vcom.fontlab.hintData
p1
(dp2
Vvhints
p3
(lp4
(dp5
Vposition
p6
L41L
sVwidth
p7
L10L
sa(dp8
g6
L759L
sg7
L10L
sasVhhints
p9
(lp10
(dp11
g6
L-21L
sg7
L10L
sa(dp12
g6
L781L
sg7
L10L
sa(dp13
g6
L794L
sg7
L10L
sass."
EndChar

StartChar: W
Encoding: 87 87 59
GlifName: W_
Width: 1060
VWidth: 0
Flags: HMW
AnchorPoint: "LatinBelow.mark" 470 0 basechar 0
AnchorPoint: "LatinAbove.mark" 502 150 basechar 0
LayerCount: 2
Fore
SplineSet
1131 765 m 1
 738 0 l 1
 654 0 l 1
 603 624 l 1
 286 0 l 1
 202 0 l 1
 135 765 l 1
 136 771 l 1
 242 780 l 1
 278 129 l 1
 592 760 l 1
 672 760 l 1
 716 129 l 1
 1030 780 l 1
 1132 771 l 1
 1131 765 l 1
EndSplineSet
PickledDataWithLists: "(dp0
Vcom.fontlab.hintData
p1
(dp2
Vvhints
p3
(lp4
(dp5
Vposition
p6
L46L
sVwidth
p7
L10L
sa(dp8
g6
L1045L
sg7
L10L
sasVhhints
p9
(lp10
(dp11
g6
L-10L
sg7
L10L
sa(dp12
g6
L762L
sg7
L10L
sa(dp13
g6
L790L
sg7
L10L
sass."
Colour: ff00
EndChar

StartChar: X
Encoding: 88 88 60
GlifName: X_
Width: 740
VWidth: 0
Flags: HMW
AnchorPoint: "LatinBelow.mark" 310 0 basechar 0
AnchorPoint: "LatinAbove.mark" 342 150 basechar 0
LayerCount: 2
Fore
SplineSet
165 764 m 1
 167 770 l 1
 274 780 l 1
 412 475 l 1
 679 780 l 1
 782 770 l 1
 780 764 l 1
 452 415 l 1
 669 6 l 1
 668 0 l 1
 557 0 l 1
 383 340 l 1
 64 0 l 1
 -47 0 l 1
 -46 6 l 1
 345 415 l 1
 165 764 l 1
EndSplineSet
PickledDataWithLists: "(dp0
Vcom.fontlab.hintData
p1
(dp2
Vvhints
p3
(lp4
(dp5
Vposition
p6
L31L
sVwidth
p7
L10L
sa(dp8
g6
L91L
sg7
L10L
sa(dp9
g6
L687L
sg7
L10L
sa(dp10
g6
L734L
sg7
L10L
sasVhhints
p11
(lp12
(dp13
g6
L-9L
sg7
L10L
sa(dp14
g6
L4L
sg7
L10L
sa(dp15
g6
L789L
sg7
L10L
sass."
Colour: ff00
EndChar

StartChar: Y
Encoding: 89 89 61
GlifName: Y_
Width: 670
VWidth: 0
Flags: HMW
AnchorPoint: "LatinBelow.mark" 275 0 basechar 0
AnchorPoint: "LatinAbove.mark" 307 150 basechar 0
LayerCount: 2
Fore
SplineSet
121 765 m 1
 122 772 l 1
 231 780 l 1
 358 392 l 1
 651 780 l 1
 756 772 l 1
 755 765 l 1
 387 301 l 1
 323 0 l 1
 227 0 l 1
 291 301 l 1
 121 765 l 1
EndSplineSet
PickledDataWithLists: "(dp0
Vcom.fontlab.hintData
p1
(dp2
Vvhints
p3
(lp4
(dp5
Vposition
p6
L35L
sVwidth
p7
L10L
sa(dp8
g6
L310L
sg7
L10L
sa(dp9
g6
L408L
sg7
L10L
sa(dp10
g6
L414L
sg7
L10L
sa(dp11
g6
L675L
sg7
L10L
sasVhhints
p12
(lp13
(dp14
g6
L-20L
sg7
L10L
sa(dp15
g6
L789L
sg7
L10L
sa(dp16
g6
L800L
sg7
L10L
sass."
EndChar

StartChar: Z
Encoding: 90 90 62
GlifName: Z_
Width: 670
VWidth: 0
Flags: HMW
AnchorPoint: "LatinBelow.mark" 275 0 basechar 0
AnchorPoint: "LatinAbove.mark" 307 150 basechar 0
LayerCount: 2
Fore
SplineSet
-5 55 m 1
 580 706 l 1
 157 706 l 1
 173 780 l 1
 717 780 l 1
 712 725 l 1
 127 74 l 1
 584 74 l 1
 568 0 l 1
 -10 0 l 1
 -5 55 l 1
EndSplineSet
PickledDataWithLists: "(dp0
Vcom.fontlab.hintData
p1
(dp2
Vvhints
p3
(lp4
(dp5
Vposition
p6
L46L
sVwidth
p7
L10L
sa(dp8
g6
L66L
sg7
L10L
sa(dp9
g6
L679L
sg7
L10L
sa(dp10
g6
L699L
sg7
L10L
sasVhhints
p11
(lp12
(dp13
g6
L-13L
sg7
L10L
sa(dp14
g6
L64L
sg7
L10L
sa(dp15
g6
L75L
sg7
L10L
sa(dp16
g6
L709L
sg7
L10L
sa(dp17
g6
L779L
sg7
L10L
sa(dp18
g6
L785L
sg7
L10L
sa(dp19
g6
L790L
sg7
L10L
sass."
Colour: ff00
EndChar

StartChar: bracketleft
Encoding: 91 91 63
GlifName: bracketleft
Width: 435
VWidth: 0
Flags: HMW
LayerCount: 2
Fore
SplineSet
41 -120 m 1
 258 900 l 1
 468 900 l 1
 456 844 l 1
 324 844 l 1
 131 -64 l 1
 261 -64 l 1
 249 -120 l 1
 41 -120 l 1
EndSplineSet
PickledDataWithLists: "(dp0
Vcom.fontlab.hintData
p1
(dp2
Vvhints
p3
(lp4
(dp5
Vposition
p6
L71L
sVwidth
p7
L10L
sa(dp8
g6
L92L
sg7
L10L
sa(dp9
g6
L161L
sg7
L10L
sa(dp10
g6
L289L
sg7
L10L
sasVhhints
p11
(lp12
(dp13
g6
L-91L
sg7
L10L
sa(dp14
g6
L-44L
sg7
L10L
sa(dp15
g6
L830L
sg7
L10L
sa(dp16
g6
L877L
sg7
L10L
sass."
EndChar

StartChar: backslash
Encoding: 92 92 64
GlifName: backslash
Width: 510
VWidth: 0
Flags: HMW
LayerCount: 2
Fore
SplineSet
400 0 m 1
 318 0 l 1
 155 775 l 1
 156 780 l 1
 237 780 l 1
 401 5 l 1
 400 0 l 1
EndSplineSet
PickledDataWithLists: "(dp0
Vcom.fontlab.hintData
p1
(dp2
Vvhints
p3
(lp4
(dp5
Vposition
p6
L40L
sVwidth
p7
L10L
sa(dp8
g6
L430L
sg7
L10L
sasVhhints
p9
(lp10
(dp11
g6
L-29L
sg7
L10L
sa(dp12
g6
L819L
sg7
L10L
sass."
EndChar

StartChar: bracketright
Encoding: 93 93 65
GlifName: bracketright
Width: 435
VWidth: 0
Flags: HMW
LayerCount: 2
Fore
SplineSet
439 900 m 1
 222 -120 l 1
 12 -120 l 1
 24 -64 l 1
 156 -64 l 1
 349 844 l 1
 219 844 l 1
 231 900 l 1
 439 900 l 1
EndSplineSet
PickledDataWithLists: "(dp0
Vcom.fontlab.hintData
p1
(dp2
Vvhints
p3
(lp4
(dp5
Vposition
p6
L61L
sVwidth
p7
L10L
sa(dp8
g6
L189L
sg7
L10L
sa(dp9
g6
L258L
sg7
L10L
sa(dp10
g6
L279L
sg7
L10L
sasVhhints
p11
(lp12
(dp13
g6
L-90L
sg7
L10L
sa(dp14
g6
L-42L
sg7
L10L
sa(dp15
g6
L829L
sg7
L10L
sa(dp16
g6
L879L
sg7
L10L
sass."
EndChar

StartChar: asciicircum
Encoding: 94 94 66
GlifName: asciicircum
Width: 630
VWidth: 0
Flags: HMW
LayerCount: 2
Fore
SplineSet
102 586 m 1
 424 883 l 1
 461 883 l 1
 657 586 l 1
 603 553 l 1
 422 786 l 1
 141 553 l 1
 102 586 l 1
EndSplineSet
PickledDataWithLists: "(dp0
Vcom.fontlab.hintData
p1
(dp2
Vvhints
p3
(lp4
(dp5
Vposition
p6
L23L
sVwidth
p7
L10L
sasVhhints
p8
(lp9
(dp10
g6
L532L
sg7
L10L
sa(dp11
g6
L839L
sg7
L10L
sass."
EndChar

StartChar: underscore
Encoding: 95 95 67
GlifName: underscore
Width: 600
VWidth: 0
Flags: HMW
LayerCount: 2
Fore
SplineSet
-60 0 m 25
 540 0 l 25
 525 -70 l 25
 -75 -70 l 25
 -60 0 l 25
EndSplineSet
PickledDataWithLists: "(dp0
Vcom.fontlab.hintData
p1
(dp2
Vvhints
p3
(lp4
(dp5
Vposition
p6
L30L
sVwidth
p7
L10L
sa(dp8
g6
L559L
sg7
L10L
sasVhhints
p9
(lp10
(dp11
g6
L-69L
sg7
L10L
sa(dp12
g6
L-6L
sg7
L10L
sa(dp13
g6
L1L
sg7
L10L
sass."
EndChar

StartChar: grave
Encoding: 96 96 68
GlifName: grave
Width: 390
VWidth: 0
Flags: HMW
LayerCount: 2
Fore
SplineSet
124 830 m 1
 204 882 l 1
 418 586 l 1
 364 553 l 1
 124 830 l 1
EndSplineSet
PickledDataWithLists: "(dp0
Vcom.fontlab.hintData
p1
(dp2
Vvhints
p3
(lp4
(dp5
Vposition
p6
L20L
sVwidth
p7
L10L
sasVhhints
p8
(lp9
(dp10
g6
L541L
sg7
L10L
sa(dp11
g6
L838L
sg7
L10L
sass."
EndChar

StartChar: a
Encoding: 97 97 69
GlifName: a
Width: 625
VWidth: 0
Flags: HMW
AnchorPoint: "LatinOgonek.mark" 455 0 basechar 0
AnchorPoint: "LatinBelow.mark" 270 0 basechar 0
AnchorPoint: "LatinAbove.mark" 250 0 basechar 0
LayerCount: 2
Fore
SplineSet
40 172 m 0
 56 249 133 320 259 320 c 0
 332 320 401 314 451 308 c 1
 476 422 l 2
 479 434 480 446 480 456 c 0
 480 522 430 552 357 552 c 0
 277 552 216 505 189 429 c 1
 100 435 l 1
 133 528 227 618 371 618 c 0
 495 618 567 556 567 464 c 0
 567 451 566 436 563 422 c 2
 502 137 l 2
 499 123 498 110 498 100 c 0
 498 66 514 52 553 47 c 1
 518 -13 l 1
 475 -8 421 13 421 85 c 0
 421 86 421 88 421 89 c 1
 375 35 306 -13 212 -13 c 0
 100 -13 35 39 35 128 c 0
 35 142 37 156 40 172 c 0
444 252 m 1
 400 258 333 266 253 266 c 0
 195 266 140 232 127 171 c 0
 124 159 124 148 124 138 c 0
 124 73 172 43 234 43 c 0
 341 43 405 133 435 210 c 1
 444 252 l 1
EndSplineSet
PickledDataWithLists: "(dp0
Vcom.fontlab.hintData
p1
(dp2
Vvhints
p3
(lp4
(dp5
Vposition
p6
L60L
sVwidth
p7
L10L
sa(dp8
g6
L149L
sg7
L10L
sa(dp9
g6
L441L
sg7
L10L
sa(dp10
g6
L529L
sg7
L10L
sa(dp11
g6
L649L
sg7
L10L
sasVhhints
p12
(lp13
(dp14
g6
L-21L
sg7
L10L
sa(dp15
g6
L-11L
sg7
L10L
sa(dp16
g6
L41L
sg7
L10L
sa(dp17
g6
L362L
sg7
L10L
sa(dp18
g6
L432L
sg7
L10L
sa(dp19
g6
L549L
sg7
L10L
sa(dp20
g6
L611L
sg7
L10L
sass."
Substitution2: "Latin.ss20 subtable" uni0251
Substitution2: "Latin.ss19 subtable" uni0251
Colour: ff00
EndChar

StartChar: b
Encoding: 98 98 70
GlifName: b
Width: 675
VWidth: 0
Flags: HMW
AnchorPoint: "LatinBelow.mark" 300 0 basechar 0
AnchorPoint: "LatinAbove.mark" 113 180 basechar 0
LayerCount: 2
Fore
SplineSet
619 312 m 2
 614 288 l 2
 584 146 486 -13 300 -13 c 0
 210 -13 163 42 140 106 c 1
 110 0 l 1
 33 0 l 1
 205 810 l 1
 292 810 l 1
 227 504 l 1
 278 563 348 613 433 613 c 0
 579 613 629 515 629 404 c 0
 629 374 625 342 619 312 c 2
200 378 m 1
 167 222 l 1
 169 140 204 54 304 54 c 0
 416 54 493 144 524 288 c 2
 529 312 l 2
 536 344 539 372 539 398 c 0
 539 491 496 546 409 546 c 0
 309 546 236 460 200 378 c 1
EndSplineSet
PickledDataWithLists: "(dp0
Vcom.fontlab.hintData
p1
(dp2
Vvhints
p3
(lp4
(dp5
Vposition
p6
L81L
sVwidth
p7
L10L
sa(dp8
g6
L91L
sg7
L10L
sa(dp9
g6
L179L
sg7
L10L
sa(dp10
g6
L211L
sg7
L10L
sa(dp11
g6
L504L
sg7
L10L
sa(dp12
g6
L593L
sg7
L10L
sasVhhints
p13
(lp14
(dp15
g6
L-21L
sg7
L10L
sa(dp16
g6
L41L
sg7
L10L
sa(dp17
g6
L524L
sg7
L10L
sa(dp18
g6
L546L
sg7
L10L
sa(dp19
g6
L607L
sg7
L10L
sa(dp20
g6
L836L
sg7
L10L
sass."
Colour: ff00
EndChar

StartChar: c
Encoding: 99 99 71
GlifName: c
Width: 605
VWidth: 0
Flags: HMW
AnchorPoint: "LatinCedilla.mark" 270 0 basechar 0
AnchorPoint: "LatinBelow.mark" 270 0 basechar 0
AnchorPoint: "LatinAbove.mark" 270 0 basechar 0
LayerCount: 2
Fore
SplineSet
64 287 m 2
 70 313 l 2
 100 455 193 618 402 618 c 0
 551 618 600 524 600 461 c 0
 600 459 600 457 600 455 c 1
 508 447 l 1
 508 448 508 450 508 451 c 0
 508 496 472 551 388 551 c 0
 271 551 192 456 162 313 c 2
 156 287 l 2
 149 256 146 227 146 201 c 0
 146 107 189 49 281 49 c 0
 367 49 428 107 446 153 c 1
 534 145 l 1
 511 82 421 -18 267 -18 c 0
 104 -18 53 81 53 192 c 0
 53 223 57 256 64 287 c 2
EndSplineSet
PickledDataWithLists: "(dp0
Vcom.fontlab.hintData
p1
(dp2
Vvhints
p3
(lp4
(dp5
Vposition
p6
L58L
sVwidth
p7
L10L
sa(dp8
g6
L152L
sg7
L10L
sa(dp9
g6
L433L
sg7
L10L
sa(dp10
g6
L527L
sg7
L10L
sa(dp11
g6
L552L
sg7
L10L
sasVhhints
p12
(lp13
(dp14
g6
L-22L
sg7
L10L
sa(dp15
g6
L44L
sg7
L10L
sa(dp16
g6
L133L
sg7
L10L
sa(dp17
g6
L433L
sg7
L10L
sa(dp18
g6
L548L
sg7
L10L
sa(dp19
g6
L614L
sg7
L10L
sass."
Colour: ff00
EndChar

StartChar: d
Encoding: 100 100 72
GlifName: d
Width: 680
VWidth: 0
Flags: HMW
AnchorPoint: "LatinBelow.mark" 300 0 basechar 0
AnchorPoint: "LatinAbove.mark" 503 180 basechar 0
LayerCount: 2
Fore
SplineSet
63 288 m 2
 68 312 l 2
 98 454 196 613 382 613 c 0
 470 613 517 561 541 500 c 1
 607 810 l 1
 694 810 l 1
 551 137 l 2
 548 123 547 110 547 100 c 0
 547 66 563 52 602 47 c 1
 567 -13 l 1
 524 -8 468 13 468 86 c 0
 468 95 468 104 470 114 c 1
 418 47 343 -13 249 -13 c 0
 103 -13 53 85 53 196 c 0
 53 226 57 258 63 288 c 2
515 378 m 1
 513 460 478 546 378 546 c 0
 266 546 189 456 158 312 c 2
 153 288 l 2
 146 256 143 228 143 202 c 0
 143 109 186 54 273 54 c 0
 373 54 446 140 482 222 c 1
 515 378 l 1
EndSplineSet
PickledDataWithLists: "(dp0
Vcom.fontlab.hintData
p1
(dp2
Vvhints
p3
(lp4
(dp5
Vposition
p6
L61L
sVwidth
p7
L10L
sa(dp8
g6
L149L
sg7
L10L
sa(dp9
g6
L476L
sg7
L10L
sa(dp10
g6
L564L
sg7
L10L
sa(dp11
g6
L679L
sg7
L10L
sasVhhints
p12
(lp13
(dp14
g6
L-21L
sg7
L10L
sa(dp15
g6
L41L
sg7
L10L
sa(dp16
g6
L544L
sg7
L10L
sa(dp17
g6
L606L
sg7
L10L
sa(dp18
g6
L836L
sg7
L10L
sass."
Colour: ff00
EndChar

StartChar: e
Encoding: 101 101 73
GlifName: e
Width: 640
VWidth: 0
Flags: HMW
AnchorPoint: "LatinOgonek.mark" 350 0 basechar 0
AnchorPoint: "LatinBelow.mark" 270 0 basechar 0
AnchorPoint: "LatinAbove.mark" 270 0 basechar 0
LayerCount: 2
Fore
SplineSet
64 286 m 2
 70 314 l 2
 100 456 195 618 398 618 c 0
 537 618 602 532 602 425 c 0
 602 405 600 383 595 362 c 0
 590 337 582 311 572 286 c 1
 152 286 l 1
 145 254 142 225 142 198 c 0
 142 105 184 47 277 47 c 0
 367 47 428 107 446 153 c 1
 531 145 l 1
 506 81 415 -18 263 -18 c 0
 103 -18 53 81 53 191 c 0
 53 222 57 254 64 286 c 2
165 344 m 1
 506 344 l 1
 507 351 509 357 510 363 c 0
 515 384 517 404 517 422 c 0
 517 508 466 554 385 554 c 0
 275 554 200 470 165 344 c 1
EndSplineSet
PickledDataWithLists: "(dp0
Vcom.fontlab.hintData
p1
(dp2
Vvhints
p3
(lp4
(dp5
Vposition
p6
L45L
sVwidth
p7
L10L
sa(dp8
g6
L71L
sg7
L10L
sa(dp9
g6
L159L
sg7
L10L
sa(dp10
g6
L471L
sg7
L10L
sa(dp11
g6
L559L
sg7
L10L
sa(dp12
g6
L570L
sg7
L10L
sasVhhints
p13
(lp14
(dp15
g6
L-20L
sg7
L10L
sa(dp16
g6
L42L
sg7
L10L
sa(dp17
g6
L131L
sg7
L10L
sa(dp18
g6
L552L
sg7
L10L
sa(dp19
g6
L613L
sg7
L10L
sass."
Colour: ff00
EndChar

StartChar: f
Encoding: 102 102 74
GlifName: f
Width: 400
VWidth: 0
Flags: HMW
AnchorPoint: "LatinBelow.mark" 120 0 basechar 0
AnchorPoint: "LatinAbove.mark" 248 180 basechar 0
LayerCount: 2
Fore
SplineSet
90 542 m 1
 103 600 l 1
 198 600 l 1
 215 683 l 2
 228 743 283 828 399 828 c 0
 476 828 515 794 527 784 c 1
 477 735 l 1
 466 744 440 765 392 765 c 0
 344 765 312 729 302 683 c 2
 285 600 l 1
 443 600 l 1
 430 542 l 1
 275 542 l 1
 160 0 l 1
 70 0 l 1
 185 542 l 1
 90 542 l 1
EndSplineSet
PickledDataWithLists: "(dp0
Vcom.fontlab.hintData
p1
(dp2
Vvhints
p3
(lp4
(dp5
Vposition
p6
L20L
sVwidth
p7
L10L
sa(dp8
g6
L132L
sg7
L10L
sa(dp9
g6
L166L
sg7
L10L
sa(dp10
g6
L219L
sg7
L9L
sa(dp11
g6
L255L
sg7
L10L
sa(dp12
g6
L399L
sg7
L10L
sa(dp13
g6
L469L
sg7
L10L
sasVhhints
p14
(lp15
(dp16
g6
L-20L
sg7
L10L
sa(dp17
g6
L521L
sg7
L10L
sa(dp18
g6
L586L
sg7
L10L
sa(dp19
g6
L591L
sg7
L10L
sa(dp20
g6
L759L
sg7
L10L
sa(dp21
g6
L803L
sg7
L10L
sa(dp22
g6
L864L
sg7
L10L
sass."
Colour: ff00
EndChar

StartChar: h
Encoding: 104 104 76
GlifName: h
Width: 665
VWidth: 0
Flags: HMW
AnchorPoint: "LatinBelow.mark" 300 0 basechar 0
AnchorPoint: "LatinAbove.mark" 113 180 basechar 0
LayerCount: 2
Fore
SplineSet
33 0 m 1
 205 810 l 1
 293 810 l 1
 213 433 l 1
 274 524 368 613 486 613 c 0
 582 613 624 555 624 477 c 0
 624 459 621 440 617 421 c 2
 528 0 l 1
 438 0 l 1
 527 418 l 2
 530 433 532 448 532 460 c 0
 532 518 497 541 448 541 c 0
 339 541 228 412 187 301 c 1
 123 0 l 1
 33 0 l 1
EndSplineSet
PickledDataWithLists: "(dp0
Vcom.fontlab.hintData
p1
(dp2
Vvhints
p3
(lp4
(dp5
Vposition
p6
L65L
sVwidth
p7
L10L
sa(dp8
g6
L106L
sg7
L10L
sa(dp9
g6
L187L
sg7
L10L
sa(dp10
g6
L491L
sg7
L10L
sa(dp11
g6
L496L
sg7
L10L
sa(dp12
g6
L579L
sg7
L10L
sa(dp13
g6
L584L
sg7
L10L
sasVhhints
p14
(lp15
(dp16
g6
L-14L
sg7
L10L
sa(dp17
g6
L549L
sg7
L10L
sa(dp18
g6
L611L
sg7
L10L
sa(dp19
g6
L836L
sg7
L10L
sass."
Colour: ff00
EndChar

StartChar: i
Encoding: 105 105 77
GlifName: i
Width: 300
VWidth: 0
GlyphClass: 3
Flags: HMW
AnchorPoint: "LatinOgonek.mark" 95 0 basechar 0
AnchorPoint: "LatinBelow.mark" 90 0 basechar 0
AnchorPoint: "LatinAbove.mark" 128 180 basechar 0
LayerCount: 2
Fore
SplineSet
45 0 m 1
 173 600 l 1
 263 600 l 1
 135 0 l 1
 45 0 l 1
270 848 m 0
 305 848 330 828 330 796 c 0
 330 791 329 786 328 780 c 0
 319 738 282 712 241 712 c 0
 206 712 182 732 182 764 c 0
 182 769 183 774 184 780 c 0
 193 822 229 848 270 848 c 0
EndSplineSet
PickledDataWithLists: "(dp0
Vcom.fontlab.hintData
p1
(dp2
Vvhints
p3
(lp4
(dp5
Vposition
p6
L86L
sVwidth
p7
L10L
sa(dp8
g6
L116L
sg7
L10L
sa(dp9
g6
L204L
sg7
L10L
sa(dp10
g6
L234L
sg7
L10L
sa(dp11
g6
L244L
sg7
L10L
sasVhhints
p12
(lp13
(dp14
g6
L-21L
sg7
L10L
sa(dp15
g6
L595L
sg7
L10L
sa(dp16
g6
L725L
sg7
L10L
sa(dp17
g6
L826L
sg7
L20L
sa(dp18
g6
L852L
sg7
L10L
sass."
Substitution2: "Latin.ij.dotless subtable" dotlessi
Ligature2: "Latin.ij subtable" dotlessi uni0307
EndChar

StartChar: j
Encoding: 106 106 78
GlifName: j
Width: 310
VWidth: 0
GlyphClass: 3
Flags: HMW
AnchorPoint: "LatinBelow.mark" 52 -180 basechar 0
AnchorPoint: "LatinAbove.mark" 128 180 basechar 0
LayerCount: 2
Fore
SplineSet
-94 -164 m 1
 -20 -140 34 -102 52 -19 c 2
 184 600 l 1
 274 600 l 1
 141 -24 l 2
 118 -133 22 -195 -78 -223 c 1
 -94 -164 l 1
281 848 m 0
 316 848 341 828 341 796 c 0
 341 791 340 786 339 780 c 0
 330 738 293 712 252 712 c 0
 217 712 193 732 193 764 c 0
 193 769 194 774 195 780 c 0
 204 822 240 848 281 848 c 0
EndSplineSet
PickledDataWithLists: "(dp0
Vcom.fontlab.hintData
p1
(dp2
Vvhints
p3
(lp4
(dp5
Vposition
p6
L31L
sVwidth
p7
L10L
sa(dp8
g6
L86L
sg7
L10L
sa(dp9
g6
L126L
sg7
L10L
sa(dp10
g6
L146L
sg7
L10L
sa(dp11
g6
L234L
sg7
L10L
sa(dp12
g6
L244L
sg7
L10L
sasVhhints
p13
(lp14
(dp15
g6
L-246L
sg7
L10L
sa(dp16
g6
L596L
sg7
L10L
sa(dp17
g6
L725L
sg7
L10L
sa(dp18
g6
L826L
sg7
L20L
sa(dp19
g6
L852L
sg7
L10L
sass."
Substitution2: "Latin.ij.dotless subtable" uni0237
Ligature2: "Latin.ij subtable" uni0237 uni200D uni0307
Ligature2: "Latin.ij subtable" uni0237 uni0307
Ligature2: "Latin.ij subtable" dotlessi uni200D uni0307
EndChar

StartChar: k
Encoding: 107 107 79
GlifName: k
Width: 605
VWidth: 0
Flags: HMW
AnchorPoint: "LatinBelow.mark" 300 0 basechar 0
AnchorPoint: "LatinAbove.mark" 113 180 basechar 0
LayerCount: 2
Fore
SplineSet
42 0 m 1
 214 810 l 1
 300 810 l 1
 193 305 l 1
 527 600 l 1
 623 594 l 1
 622 590 l 1
 333 345 l 1
 533 4 l 1
 532 0 l 1
 428 0 l 1
 264 287 l 1
 172 209 l 1
 128 0 l 1
 42 0 l 1
EndSplineSet
PickledDataWithLists: "(dp0
Vcom.fontlab.hintData
p1
(dp2
Vvhints
p3
(lp4
(dp5
Vposition
p6
L75L
sVwidth
p7
L10L
sa(dp8
g6
L105L
sg7
L10L
sa(dp9
g6
L194L
sg7
L10L
sa(dp10
g6
L539L
sg7
L10L
sa(dp11
g6
L580L
sg7
L10L
sasVhhints
p12
(lp13
(dp14
g6
L-11L
sg7
L10L
sa(dp15
g6
L596L
sg7
L10L
sa(dp16
g6
L836L
sg7
L10L
sass."
Colour: ff00
EndChar

StartChar: l
Encoding: 108 108 80
GlifName: l
Width: 315
VWidth: 0
Flags: HMW
AnchorPoint: "LatinBelow.mark" 130 0 basechar 0
AnchorPoint: "LatinAbove.mark" 118 180 basechar 0
LayerCount: 2
Fore
SplineSet
66 122 m 2
 212 810 l 1
 302 810 l 1
 158 130 l 2
 156 122 155 115 155 109 c 0
 155 66 192 52 250 47 c 1
 219 -13 l 1
 150 -8 63 11 63 93 c 0
 63 102 64 111 66 122 c 2
EndSplineSet
PickledDataWithLists: "(dp0
Vcom.fontlab.hintData
p1
(dp2
Vvhints
p3
(lp4
(dp5
Vposition
p6
L106L
sVwidth
p7
L10L
sa(dp8
g6
L111L
sg7
L10L
sa(dp9
g6
L194L
sg7
L10L
sa(dp10
g6
L199L
sg7
L10L
sa(dp11
g6
L315L
sg7
L10L
sasVhhints
p12
(lp13
(dp14
g6
L-23L
sg7
L10L
sa(dp15
g6
L830L
sg7
L10L
sass."
EndChar

StartChar: m
Encoding: 109 109 81
GlifName: m
Width: 945
VWidth: 0
Flags: HMW
AnchorPoint: "LatinBelow.mark" 420 0 basechar 0
AnchorPoint: "LatinAbove.mark" 420 0 basechar 0
LayerCount: 2
Fore
SplineSet
148 595 m 1
 232 603 l 1
 217 464 l 1
 265 540 334 607 431 607 c 0
 520 607 560 550 560 475 c 0
 560 472 560 470 560 467 c 1
 608 542 678 607 773 607 c 0
 863 607 902 550 902 474 c 0
 902 457 900 439 896 420 c 2
 807 0 l 1
 717 0 l 1
 806 418 l 2
 809 434 811 448 811 460 c 0
 811 514 780 536 736 536 c 0
 646 536 572 428 535 328 c 1
 465 0 l 1
 375 0 l 1
 464 418 l 2
 467 434 469 448 469 460 c 0
 469 515 437 536 393 536 c 0
 301 536 226 423 190 322 c 1
 122 0 l 1
 32 0 l 1
 121 420 l 1
 148 595 l 1
EndSplineSet
PickledDataWithLists: "(dp0
Vcom.fontlab.hintData
p1
(dp2
Vvhints
p3
(lp4
(dp5
Vposition
p6
L76L
sVwidth
p7
L10L
sa(dp8
g6
L96L
sg7
L10L
sa(dp9
g6
L167L
sg7
L10L
sa(dp10
g6
L436L
sg7
L10L
sa(dp11
g6
L441L
sg7
L10L
sa(dp12
g6
L776L
sg7
L10L
sa(dp13
g6
L781L
sg7
L10L
sa(dp14
g6
L864L
sg7
L10L
sa(dp15
g6
L869L
sg7
L10L
sasVhhints
p16
(lp17
(dp18
g6
L-19L
sg7
L10L
sa(dp19
g6
L-10L
sg7
L10L
sa(dp20
g6
L549L
sg7
L10L
sa(dp21
g6
L606L
sg7
L10L
sa(dp22
g6
L611L
sg7
L10L
sass."
Colour: ff00
EndChar

StartChar: n
Encoding: 110 110 82
GlifName: n
Width: 655
VWidth: 0
Flags: HMW
AnchorPoint: "LatinBelow.mark" 300 0 basechar 0
AnchorPoint: "LatinAbove.mark" 270 0 basechar 0
LayerCount: 2
Fore
SplineSet
32 0 m 1
 121 420 l 1
 148 595 l 1
 232 603 l 1
 213 438 l 1
 272 527 362 613 477 613 c 0
 571 613 613 554 613 476 c 0
 613 458 610 440 606 421 c 2
 517 0 l 1
 427 0 l 1
 516 418 l 2
 519 434 521 448 521 460 c 0
 521 518 487 541 440 541 c 0
 333 541 227 413 186 302 c 1
 122 0 l 1
 32 0 l 1
EndSplineSet
PickledDataWithLists: "(dp0
Vcom.fontlab.hintData
p1
(dp2
Vvhints
p3
(lp4
(dp5
Vposition
p6
L55L
sVwidth
p7
L10L
sa(dp8
g6
L96L
sg7
L10L
sa(dp9
g6
L481L
sg7
L10L
sa(dp10
g6
L486L
sg7
L10L
sa(dp11
g6
L569L
sg7
L10L
sa(dp12
g6
L574L
sg7
L10L
sasVhhints
p13
(lp14
(dp15
g6
L-15L
sg7
L10L
sa(dp16
g6
L-10L
sg7
L10L
sa(dp17
g6
L549L
sg7
L10L
sa(dp18
g6
L606L
sg7
L10L
sa(dp19
g6
L611L
sg7
L10L
sass."
Substitution2: "Latin.sups subtable" n.sups
Substitution2: "Latin.sups subtable" n.sups
Colour: ff00
EndChar

StartChar: o
Encoding: 111 111 83
GlifName: o
Width: 660
VWidth: 0
Flags: HMW
AnchorPoint: "LatinOgonek.mark" 340 0 basechar 0
AnchorPoint: "LatinBelow.mark" 270 0 basechar 0
AnchorPoint: "LatinAbove.mark" 270 0 basechar 0
LayerCount: 2
Fore
SplineSet
63 286 m 2
 69 314 l 2
 99 456 193 618 401 618 c 0
 564 618 615 518 615 407 c 0
 615 376 612 345 605 314 c 2
 599 286 l 2
 569 144 474 -18 266 -18 c 0
 103 -18 52 82 52 193 c 0
 52 224 56 255 63 286 c 2
280 48 m 0
 400 48 479 143 509 286 c 2
 515 314 l 2
 522 345 525 374 525 400 c 0
 525 494 481 552 387 552 c 0
 267 552 189 457 159 314 c 2
 153 286 l 2
 146 255 143 226 143 200 c 0
 143 106 186 48 280 48 c 0
EndSplineSet
PickledDataWithLists: "(dp0
Vcom.fontlab.hintData
p1
(dp2
Vvhints
p3
(lp4
(dp5
Vposition
p6
L61L
sVwidth
p7
L10L
sa(dp8
g6
L149L
sg7
L10L
sa(dp9
g6
L441L
sg7
L10L
sa(dp10
g6
L506L
sg7
L10L
sa(dp11
g6
L594L
sg7
L10L
sasVhhints
p12
(lp13
(dp14
g6
L-21L
sg7
L10L
sa(dp15
g6
L42L
sg7
L9L
sa(dp16
g6
L552L
sg7
L10L
sa(dp17
g6
L614L
sg7
L10L
sass."
Colour: ff00
EndChar

StartChar: p
Encoding: 112 112 84
GlifName: p
Width: 675
VWidth: 0
Flags: HMW
AnchorPoint: "LatinBelow.mark" 52 -180 basechar 0
AnchorPoint: "LatinAbove.mark" 270 0 basechar 0
LayerCount: 2
Fore
SplineSet
619 312 m 2
 614 288 l 2
 584 146 486 -13 300 -13 c 0
 215 -13 167 37 143 96 c 1
 78 -210 l 1
 -12 -210 l 1
 122 420 l 1
 149 595 l 1
 233 603 l 1
 221 497 l 1
 272 559 344 613 433 613 c 0
 579 613 629 515 629 404 c 0
 629 374 625 342 619 312 c 2
168 210 m 1
 172 132 209 54 304 54 c 0
 416 54 493 144 524 288 c 2
 529 312 l 2
 536 344 539 372 539 398 c 0
 539 491 496 546 409 546 c 0
 314 546 244 468 206 390 c 1
 168 210 l 1
EndSplineSet
PickledDataWithLists: "(dp0
Vcom.fontlab.hintData
p1
(dp2
Vvhints
p3
(lp4
(dp5
Vposition
p6
L41L
sVwidth
p7
L10L
sa(dp8
g6
L101L
sg7
L10L
sa(dp9
g6
L108L
sg7
L10L
sa(dp10
g6
L193L
sg7
L10L
sa(dp11
g6
L523L
sg7
L10L
sa(dp12
g6
L612L
sg7
L10L
sasVhhints
p13
(lp14
(dp15
g6
L-246L
sg7
L10L
sa(dp16
g6
L-16L
sg7
L10L
sa(dp17
g6
L46L
sg7
L10L
sa(dp18
g6
L549L
sg7
L10L
sa(dp19
g6
L610L
sg7
L10L
sass."
Colour: ff00
EndChar

StartChar: q
Encoding: 113 113 85
GlifName: q
Width: 675
VWidth: 0
Flags: HMW
AnchorPoint: "LatinBelow.mark" 424 -240 basechar 0
AnchorPoint: "LatinAbove.mark" 300 0 basechar 0
LayerCount: 2
Fore
SplineSet
63 288 m 2
 68 312 l 2
 98 454 196 613 382 613 c 0
 472 613 520 558 543 494 c 1
 573 600 l 1
 650 600 l 1
 477 -210 l 1
 390 -210 l 1
 455 96 l 1
 404 37 334 -13 249 -13 c 0
 103 -13 53 85 53 196 c 0
 53 226 57 258 63 288 c 2
482 222 m 1
 515 378 l 1
 513 460 478 546 378 546 c 0
 266 546 189 456 158 312 c 2
 153 288 l 2
 146 256 143 228 143 202 c 0
 143 109 186 54 273 54 c 0
 373 54 446 140 482 222 c 1
EndSplineSet
PickledDataWithLists: "(dp0
Vcom.fontlab.hintData
p1
(dp2
Vvhints
p3
(lp4
(dp5
Vposition
p6
L59L
sVwidth
p7
L10L
sa(dp8
g6
L149L
sg7
L10L
sa(dp9
g6
L444L
sg7
L10L
sa(dp10
g6
L459L
sg7
L10L
sa(dp11
g6
L471L
sg7
L10L
sa(dp12
g6
L547L
sg7
L10L
sa(dp13
g6
L559L
sg7
L10L
sa(dp14
g6
L649L
sg7
L10L
sasVhhints
p15
(lp16
(dp17
g6
L-261L
sg7
L10L
sa(dp18
g6
L-184L
sg7
L10L
sa(dp19
g6
L-17L
sg7
L10L
sa(dp20
g6
L44L
sg7
L10L
sa(dp21
g6
L66L
sg7
L10L
sa(dp22
g6
L549L
sg7
L10L
sa(dp23
g6
L611L
sg7
L10L
sass."
Colour: ff00
EndChar

StartChar: r
Encoding: 114 114 86
GlifName: r
Width: 435
VWidth: 0
Flags: HMW
AnchorPoint: "LatinBelow.mark" 110 0 basechar 0
AnchorPoint: "LatinAbove.mark" 180 0 basechar 0
LayerCount: 2
Fore
SplineSet
143 594 m 1
 221 603 l 1
 223 453 l 1
 264 535 330 613 427 613 c 0
 455 613 476 607 494 598 c 1
 444 524 l 1
 431 531 417 535 397 535 c 0
 309 535 245 428 212 327 c 1
 142 0 l 1
 52 0 l 1
 143 427 l 1
 143 594 l 1
EndSplineSet
PickledDataWithLists: "(dp0
Vcom.fontlab.hintData
p1
(dp2
Vvhints
p3
(lp4
(dp5
Vposition
p6
L20L
sVwidth
p7
L10L
sa(dp8
g6
L171L
sg7
L10L
sa(dp9
g6
L261L
sg7
L10L
sa(dp10
g6
L479L
sg7
L10L
sasVhhints
p11
(lp12
(dp13
g6
L-13L
sg7
L10L
sa(dp14
g6
L524L
sg7
L10L
sa(dp15
g6
L549L
sg7
L10L
sa(dp16
g6
L596L
sg7
L10L
sa(dp17
g6
L611L
sg7
L10L
sass."
Colour: ff00
EndChar

StartChar: s
Encoding: 115 115 87
GlifName: s
Width: 570
VWidth: 0
Flags: HMW
AnchorPoint: "LatinCedilla.mark" 250 0 basechar 0
AnchorPoint: "LatinBelow.mark" 225 0 basechar 0
AnchorPoint: "LatinAbove.mark" 225 0 basechar 0
LayerCount: 2
Fore
SplineSet
21 137 m 1
 111 147 l 1
 111 146 111 144 111 143 c 0
 111 97 147 47 238 47 c 0
 330 47 390 89 404 153 c 0
 406 161 406 167 406 174 c 0
 406 219 371 240 343 249 c 0
 301 263 240 281 199 297 c 0
 154 315 100 349 100 417 c 0
 100 427 101 437 103 448 c 0
 124 546 223 618 355 618 c 0
 492 618 540 533 540 471 c 0
 540 470 540 468 540 467 c 1
 451 455 l 1
 451 456 451 458 451 459 c 0
 451 504 420 553 342 553 c 0
 262 553 203 514 190 451 c 0
 189 445 188 440 188 435 c 0
 188 396 221 374 251 363 c 0
 292 349 354 329 391 317 c 0
 442 301 494 267 494 194 c 0
 494 182 493 169 490 155 c 0
 469 56 364 -18 220 -18 c 0
 71 -18 21 69 21 133 c 0
 21 134 21 136 21 137 c 1
EndSplineSet
PickledDataWithLists: "(dp0
Vcom.fontlab.hintData
p1
(dp2
Vvhints
p3
(lp4
(dp5
Vposition
p6
L60L
sVwidth
p7
L10L
sa(dp8
g6
L139L
sg7
L10L
sa(dp9
g6
L381L
sg7
L10L
sa(dp10
g6
L431L
sg7
L10L
sa(dp11
g6
L470L
sg7
L10L
sa(dp12
g6
L516L
sg7
L10L
sasVhhints
p13
(lp14
(dp15
g6
L-20L
sg7
L10L
sa(dp16
g6
L42L
sg7
L10L
sa(dp17
g6
L151L
sg7
L10L
sa(dp18
g6
L434L
sg7
L10L
sa(dp19
g6
L554L
sg7
L10L
sa(dp20
g6
L616L
sg7
L10L
sass."
Colour: ff00
EndChar

StartChar: t
Encoding: 116 116 88
GlifName: t
Width: 415
VWidth: 0
Flags: HMW
AnchorPoint: "LatinCedilla.mark" 210 0 basechar 0
AnchorPoint: "LatinBelow.mark" 220 0 basechar 0
AnchorPoint: "LatinAbove.mark" 146 120 basechar 0
LayerCount: 2
Fore
SplineSet
90 542 m 1
 103 600 l 1
 201 600 l 1
 228 728 l 1
 315 735 l 1
 287 600 l 1
 443 600 l 1
 430 542 l 1
 275 542 l 1
 188 133 l 2
 185 118 184 106 184 96 c 0
 184 62 201 52 233 52 c 0
 277 52 322 69 340 79 c 1
 349 19 l 1
 319 3 266 -13 208 -13 c 0
 136 -13 91 15 91 81 c 0
 91 93 93 106 96 121 c 2
 185 542 l 1
 90 542 l 1
EndSplineSet
PickledDataWithLists: "(dp0
Vcom.fontlab.hintData
p1
(dp2
Vvhints
p3
(lp4
(dp5
Vposition
p6
L20L
sVwidth
p7
L10L
sa(dp8
g6
L131L
sg7
L10L
sa(dp9
g6
L136L
sg7
L10L
sa(dp10
g6
L141L
sg7
L10L
sa(dp11
g6
L219L
sg7
L10L
sa(dp12
g6
L225L
sg7
L10L
sa(dp13
g6
L399L
sg7
L10L
sa(dp14
g6
L439L
sg7
L10L
sasVhhints
p15
(lp16
(dp17
g6
L-18L
sg7
L10L
sa(dp18
g6
L41L
sg7
L10L
sa(dp19
g6
L86L
sg7
L10L
sa(dp20
g6
L524L
sg7
L10L
sa(dp21
g6
L586L
sg7
L10L
sa(dp22
g6
L741L
sg7
L10L
sass."
Colour: ff00
EndChar

StartChar: u
Encoding: 117 117 89
GlifName: u
Width: 620
VWidth: 0
Flags: HMW
AnchorPoint: "LatinOgonek.mark" 320 0 basechar 0
AnchorPoint: "LatinBelow.mark" 250 0 basechar 0
AnchorPoint: "LatinAbove.mark" 250 0 basechar 0
LayerCount: 2
Fore
SplineSet
51 184 m 2
 140 600 l 1
 230 600 l 1
 141 184 l 2
 138 171 137 160 137 149 c 0
 137 82 186 48 260 48 c 0
 346 48 418 94 437 184 c 2
 526 600 l 1
 616 600 l 1
 527 184 l 2
 503 69 392 -18 246 -18 c 0
 119 -18 46 49 46 142 c 0
 46 156 48 169 51 184 c 2
EndSplineSet
PickledDataWithLists: "(dp0
Vcom.fontlab.hintData
p1
(dp2
Vvhints
p3
(lp4
(dp5
Vposition
p6
L81L
sVwidth
p7
L10L
sa(dp8
g6
L86L
sg7
L10L
sa(dp9
g6
L174L
sg7
L10L
sa(dp10
g6
L471L
sg7
L10L
sa(dp11
g6
L649L
sg7
L10L
sasVhhints
p12
(lp13
(dp14
g6
L-21L
sg7
L10L
sa(dp15
g6
L-16L
sg7
L10L
sa(dp16
g6
L41L
sg7
L10L
sa(dp17
g6
L601L
sg7
L10L
sass."
EndChar

StartChar: v
Encoding: 118 118 90
GlifName: v
Width: 600
VWidth: 0
Flags: HMW
AnchorPoint: "LatinBelow.mark" 240 0 basechar 0
AnchorPoint: "LatinAbove.mark" 240 0 basechar 0
LayerCount: 2
Fore
SplineSet
82 588 m 1
 83 593 l 1
 183 600 l 1
 265 96 l 1
 563 600 l 1
 659 593 l 1
 658 588 l 1
 281 0 l 1
 209 0 l 1
 82 588 l 1
EndSplineSet
PickledDataWithLists: "(dp0
Vcom.fontlab.hintData
p1
(dp2
Vvhints
p3
(lp4
(dp5
Vposition
p6
L35L
sVwidth
p7
L10L
sa(dp8
g6
L584L
sg7
L10L
sasVhhints
p9
(lp10
(dp11
g6
L-18L
sg7
L10L
sa(dp12
g6
L581L
sg7
L10L
sa(dp13
g6
L591L
sg7
L10L
sass."
Colour: ff00
EndChar

StartChar: w
Encoding: 119 119 91
GlifName: w
Width: 830
VWidth: 0
Flags: HMW
AnchorPoint: "LatinBelow.mark" 355 0 basechar 0
AnchorPoint: "LatinAbove.mark" 355 0 basechar 0
LayerCount: 2
Fore
SplineSet
868 588 m 1
 567 0 l 1
 489 0 l 1
 453 461 l 1
 221 0 l 1
 143 0 l 1
 92 588 l 1
 93 592 l 1
 191 600 l 1
 215 125 l 1
 443 585 l 1
 515 585 l 1
 549 125 l 1
 775 600 l 1
 869 592 l 1
 868 588 l 1
EndSplineSet
PickledDataWithLists: "(dp0
Vcom.fontlab.hintData
p1
(dp2
Vvhints
p3
(lp4
(dp5
Vposition
p6
L41L
sVwidth
p7
L10L
sa(dp8
g6
L790L
sg7
L10L
sasVhhints
p9
(lp10
(dp11
g6
L-11L
sg7
L10L
sa(dp12
g6
L568L
sg7
L10L
sa(dp13
g6
L590L
sg7
L10L
sass."
Colour: ff00
EndChar

StartChar: x
Encoding: 120 120 92
GlifName: x
Width: 600
VWidth: 0
Flags: HMW
AnchorPoint: "LatinBelow.mark" 240 0 basechar 0
AnchorPoint: "LatinAbove.mark" 240 0 basechar 0
LayerCount: 2
Fore
SplineSet
123 588 m 1
 124 593 l 1
 222 600 l 1
 321 380 l 1
 515 600 l 1
 609 593 l 1
 608 588 l 1
 359 324 l 1
 524 4 l 1
 523 0 l 1
 422 0 l 1
 294 255 l 1
 59 0 l 1
 -42 0 l 1
 -41 4 l 1
 260 324 l 1
 123 588 l 1
EndSplineSet
PickledDataWithLists: "(dp0
Vcom.fontlab.hintData
p1
(dp2
Vvhints
p3
(lp4
(dp5
Vposition
p6
L26L
sVwidth
p7
L10L
sa(dp8
g6
L71L
sg7
L10L
sa(dp9
g6
L524L
sg7
L10L
sa(dp10
g6
L559L
sg7
L10L
sasVhhints
p11
(lp12
(dp13
g6
L-6L
sg7
L10L
sa(dp14
g6
L5L
sg7
L10L
sa(dp15
g6
L591L
sg7
L10L
sass."
Colour: ff00
EndChar

StartChar: y
Encoding: 121 121 93
GlifName: y
Width: 600
VWidth: 0
Flags: HMW
AnchorPoint: "LatinBelow.mark" 202 -180 basechar 0
AnchorPoint: "LatinAbove.mark" 240 0 basechar 0
LayerCount: 2
Fore
SplineSet
87 588 m 1
 88 593 l 1
 188 600 l 1
 261 103 l 1
 549 600 l 1
 644 593 l 1
 643 588 l 1
 262 -29 l 2
 206 -113 137 -228 30 -228 c 0
 -20 -228 -48 -206 -68 -186 c 1
 -12 -131 l 1
 3 -147 16 -165 41 -165 c 0
 89 -165 137 -96 191 -12 c 2
 202 3 l 1
 87 588 l 1
EndSplineSet
PickledDataWithLists: "(dp0
Vcom.fontlab.hintData
p1
(dp2
Vvhints
p3
(lp4
(dp5
Vposition
p6
L56L
sVwidth
p7
L10L
sa(dp8
g6
L130L
sg7
L10L
sasVhhints
p9
(lp10
(dp11
g6
L-257L
sg7
L10L
sa(dp12
g6
L-195L
sg7
L10L
sa(dp13
g6
L-164L
sg7
L10L
sa(dp14
g6
L4L
sg7
L10L
sa(dp15
g6
L584L
sg7
L10L
sa(dp16
g6
L595L
sg7
L10L
sass."
Colour: ff00
EndChar

StartChar: z
Encoding: 122 122 94
GlifName: z
Width: 530
VWidth: 0
Flags: HMW
AnchorPoint: "LatinBelow.mark" 205 0 basechar 0
AnchorPoint: "LatinAbove.mark" 205 0 basechar 0
LayerCount: 2
Fore
SplineSet
-13 46 m 1
 421 536 l 1
 111 536 l 1
 125 600 l 1
 547 600 l 1
 543 554 l 1
 110 64 l 1
 446 64 l 1
 432 0 l 1
 -17 0 l 1
 -13 46 l 1
EndSplineSet
PickledDataWithLists: "(dp0
Vcom.fontlab.hintData
p1
(dp2
Vvhints
p3
(lp4
(dp5
Vposition
p6
L46L
sVwidth
p7
L10L
sa(dp8
g6
L61L
sg7
L10L
sa(dp9
g6
L531L
sg7
L10L
sa(dp10
g6
L544L
sg7
L10L
sasVhhints
p11
(lp12
(dp13
g6
L-17L
sg7
L10L
sa(dp14
g6
L51L
sg7
L10L
sa(dp15
g6
L59L
sg7
L10L
sa(dp16
g6
L525L
sg7
L15L
sa(dp17
g6
L587L
sg7
L10L
sa(dp18
g6
L592L
sg7
L10L
sass."
Colour: ff00
EndChar

StartChar: braceleft
Encoding: 123 123 95
GlifName: braceleft
Width: 390
VWidth: 0
Flags: HMW
LayerCount: 2
Fore
SplineSet
71 373 m 1
 75 390 l 1
 79 407 l 1
 122 414 186 452 204 538 c 0
 207 551 208 571 208 594 c 0
 208 611 207 629 207 647 c 0
 207 679 209 712 214 738 c 0
 234 834 301 900 393 900 c 2
 438 900 l 1
 428 852 l 1
 393 852 l 2
 357 852 313 828 293 732 c 0
 282 680 291 580 280 530 c 0
 264 456 215 410 164 390 c 1
 199 374 224 341 224 289 c 0
 224 277 223 264 220 250 c 0
 209 200 158 100 147 48 c 0
 143 28 141 11 141 -3 c 0
 141 -57 169 -72 197 -72 c 2
 232 -72 l 1
 221 -120 l 1
 176 -120 l 2
 100 -120 61 -75 61 -5 c 0
 61 10 62 25 66 42 c 0
 79 102 132 202 141 242 c 0
 144 255 145 267 145 278 c 0
 145 339 105 367 71 373 c 1
EndSplineSet
PickledDataWithLists: "(dp0
Vcom.fontlab.hintData
p1
(dp2
Vvhints
p3
(lp4
(dp5
Vposition
p6
L22L
sVwidth
p7
L10L
sa(dp8
g6
L112L
sg7
L10L
sa(dp9
g6
L128L
sg7
L10L
sa(dp10
g6
L182L
sg7
L10L
sa(dp11
g6
L197L
sg7
L10L
sa(dp12
g6
L205L
sg7
L10L
sa(dp13
g6
L289L
sg7
L10L
sasVhhints
p14
(lp15
(dp16
g6
L-89L
sg7
L10L
sa(dp17
g6
L-41L
sg7
L10L
sa(dp18
g6
L830L
sg7
L10L
sa(dp19
g6
L879L
sg7
L10L
sass."
EndChar

StartChar: bar
Encoding: 124 124 96
GlifName: bar
Width: 360
VWidth: 0
Flags: HMW
LayerCount: 2
Fore
SplineSet
54 -120 m 1
 271 900 l 1
 351 900 l 1
 134 -120 l 1
 54 -120 l 1
EndSplineSet
PickledDataWithLists: "(dp0
Vcom.fontlab.hintData
p1
(dp2
Vvhints
p3
(lp4
(dp5
Vposition
p6
L131L
sVwidth
p7
L10L
sa(dp8
g6
L209L
sg7
L10L
sa(dp9
g6
L216L
sg7
L10L
sasVhhints
p10
(lp11
(dp12
g6
L-92L
sg7
L10L
sa(dp13
g6
L882L
sg7
L10L
sass."
EndChar

StartChar: braceright
Encoding: 125 125 97
GlifName: braceright
Width: 390
VWidth: 0
Flags: HMW
LayerCount: 2
Fore
SplineSet
365 407 m 1
 361 390 l 1
 357 373 l 1
 314 366 249 328 231 242 c 0
 228 229 228 209 228 186 c 0
 228 169 228 151 228 133 c 0
 228 101 227 68 222 42 c 0
 202 -54 134 -120 42 -120 c 2
 -3 -120 l 1
 8 -72 l 1
 43 -72 l 2
 79 -72 123 -48 143 48 c 0
 154 100 145 200 156 250 c 0
 172 324 221 370 272 390 c 1
 237 406 211 439 211 491 c 0
 211 503 213 516 216 530 c 0
 227 580 278 680 289 732 c 0
 293 752 295 769 295 783 c 0
 295 837 267 852 239 852 c 2
 204 852 l 1
 214 900 l 1
 259 900 l 2
 335 900 375 855 375 785 c 0
 375 770 374 755 370 738 c 0
 357 678 303 578 294 538 c 0
 291 525 290 513 290 502 c 0
 290 441 331 413 365 407 c 1
EndSplineSet
PickledDataWithLists: "(dp0
Vcom.fontlab.hintData
p1
(dp2
Vvhints
p3
(lp4
(dp5
Vposition
p6
L61L
sVwidth
p7
L10L
sa(dp8
g6
L145L
sg7
L10L
sa(dp9
g6
L153L
sg7
L10L
sa(dp10
g6
L166L
sg7
L10L
sa(dp11
g6
L216L
sg7
L10L
sa(dp12
g6
L222L
sg7
L10L
sa(dp13
g6
L237L
sg7
L10L
sa(dp14
g6
L328L
sg7
L10L
sasVhhints
p15
(lp16
(dp17
g6
L-89L
sg7
L10L
sa(dp18
g6
L-41L
sg7
L10L
sa(dp19
g6
L831L
sg7
L10L
sa(dp20
g6
L879L
sg7
L10L
sass."
EndChar

StartChar: asciitilde
Encoding: 126 126 98
GlifName: asciitilde
Width: 600
VWidth: 0
Flags: HMW
LayerCount: 2
Fore
SplineSet
62 329 m 1
 100 395 155 481 242 481 c 0
 300 481 330 442 352 414 c 0
 376 384 395 365 420 365 c 0
 462 365 504 420 528 469 c 1
 583 451 l 1
 547 385 489 299 403 299 c 0
 345 299 314 338 292 366 c 0
 268 396 251 415 226 415 c 0
 184 415 143 361 117 311 c 1
 62 329 l 1
EndSplineSet
PickledDataWithLists: "(dp0
Vcom.fontlab.hintData
p1
(dp2
Vvhints
p3
(lp4
(dp5
Vposition
p6
L51L
sVwidth
p7
L10L
sa(dp8
g6
L539L
sg7
L10L
sasVhhints
p9
(lp10
(dp11
g6
L249L
sg7
L10L
sa(dp12
g6
L260L
sg7
L10L
sa(dp13
g6
L311L
sg7
L10L
sa(dp14
g6
L359L
sg7
L10L
sa(dp15
g6
L411L
sg7
L10L
sa(dp16
g6
L421L
sg7
L10L
sass."
EndChar

StartChar: copyright
Encoding: 169 169 100
GlifName: copyright
Width: 1020
VWidth: 0
Flags: HMW
LayerCount: 2
Fore
SplineSet
369 412 m 2
 389 504 450 608 586 608 c 0
 684 608 716 545 716 505 c 0
 716 504 716 504 716 503 c 1
 653 497 l 1
 653 525 631 562 576 562 c 0
 500 562 452 504 432 412 c 2
 428 396 l 2
 424 376 422 357 422 340 c 0
 422 280 450 244 509 244 c 0
 564 244 601 282 613 310 c 1
 674 304 l 1
 657 264 599 199 499 199 c 0
 392 199 359 264 359 337 c 0
 359 357 361 376 365 396 c 2
 369 412 l 2
449 -4 m 0
 232 -4 108 124 108 308 c 0
 108 339 112 371 119 405 c 0
 169 639 369 814 623 814 c 0
 840 814 964 686 964 502 c 0
 964 471 960 439 953 405 c 0
 903 171 703 -4 449 -4 c 0
459 44 m 0
 679 44 854 191 899 405 c 0
 906 437 909 467 909 495 c 0
 909 659 800 766 613 766 c 0
 393 766 218 619 173 405 c 0
 166 373 163 343 163 315 c 0
 163 151 272 44 459 44 c 0
EndSplineSet
PickledDataWithLists: "(dp0
Vcom.fontlab.hintData
p1
(dp2
Vvhints
p3
(lp4
(dp5
Vposition
p6
L83L
sVwidth
p7
L10L
sa(dp8
g6
L147L
sg7
L10L
sa(dp9
g6
L315L
sg7
L10L
sa(dp10
g6
L395L
sg7
L10L
sa(dp11
g6
L565L
sg7
L10L
sa(dp12
g6
L645L
sg7
L10L
sa(dp13
g6
L661L
sg7
L10L
sa(dp14
g6
L798L
sg7
L10L
sa(dp15
g6
L863L
sg7
L10L
sa(dp16
g6
L927L
sg7
L10L
sasVhhints
p17
(lp18
(dp19
g6
L-27L
sg7
L10L
sa(dp20
g6
L17L
sg7
L10L
sa(dp21
g6
L170L
sg7
L10L
sa(dp22
g6
L224L
sg7
L10L
sa(dp23
g6
L283L
sg7
L10L
sa(dp24
g6
L472L
sg7
L10L
sa(dp25
g6
L549L
sg7
L10L
sa(dp26
g6
L603L
sg7
L10L
sa(dp27
g6
L773L
sg7
L10L
sa(dp28
g6
L817L
sg7
L10L
sass."
EndChar

StartChar: registered
Encoding: 174 174 101
GlifName: registered
Width: 870
VWidth: 0
Flags: HMW
LayerCount: 2
Fore
SplineSet
432 270 m 0
 256 270 156 374 156 522 c 0
 156 547 159 573 165 600 c 0
 205 788 367 930 573 930 c 0
 749 930 849 826 849 678 c 0
 849 653 847 627 841 600 c 0
 801 412 638 270 432 270 c 0
440 308 m 0
 616 308 759 426 796 600 c 0
 801 626 804 650 804 673 c 0
 804 806 715 892 565 892 c 0
 389 892 247 774 210 600 c 0
 205 574 201 550 201 527 c 0
 201 394 290 308 440 308 c 0
471 560 m 1
 454 560 438 560 424 561 c 1
 390 400 l 1
 330 400 l 1
 365 564 l 1
 413 790 l 1
 422 790 484 794 544 794 c 0
 628 794 682 760 682 701 c 0
 682 694 681 685 679 677 c 0
 666 614 610 574 537 563 c 1
 636 403 l 1
 635 400 l 1
 567 400 l 1
 471 560 l 1
434 605 m 1
 450 604 472 603 496 603 c 0
 556 603 607 621 619 677 c 0
 620 683 621 690 621 695 c 0
 621 737 581 752 528 752 c 0
 504 752 480 751 464 750 c 1
 434 605 l 1
EndSplineSet
PickledDataWithLists: "(dp0
Vcom.fontlab.hintData
p1
(dp2
Vvhints
p3
(lp4
(dp5
Vposition
p6
L90L
sVwidth
p7
L10L
sa(dp8
g6
L140L
sg7
L10L
sa(dp9
g6
L263L
sg7
L10L
sa(dp10
g6
L301L
sg7
L10L
sa(dp11
g6
L303L
sg7
L10L
sa(dp12
g6
L363L
sg7
L10L
sa(dp13
g6
L480L
sg7
L10L
sa(dp14
g6
L544L
sg7
L10L
sa(dp15
g6
L557L
sg7
L10L
sa(dp16
g6
L628L
sg7
L10L
sa(dp17
g6
L677L
sg7
L10L
sa(dp18
g6
L727L
sg7
L10L
sasVhhints
p19
(lp20
(dp21
g6
L319L
sg7
L10L
sa(dp22
g6
L351L
sg7
L10L
sa(dp23
g6
L469L
sg7
L10L
sa(dp24
g6
L596L
sg7
L20L
sa(dp25
g6
L644L
sg7
L10L
sa(dp26
g6
L654L
sg7
L10L
sa(dp27
g6
L725L
sg7
L11L
sa(dp28
g6
L757L
sg7
L10L
sa(dp29
g6
L799L
sg7
L10L
sa(dp30
g6
L919L
sg7
L10L
sa(dp31
g6
L951L
sg7
L10L
sass."
EndChar

StartChar: guillemotleft
Encoding: 171 171 102
GlifName: guillemotleft
Width: 780
VWidth: 0
Flags: HMW
LayerCount: 2
Fore
SplineSet
95 342 m 1
 102 378 l 1
 456 638 l 1
 478 592 l 1
 195 360 l 1
 379 128 l 1
 337 82 l 1
 95 342 l 1
380 342 m 1
 387 378 l 1
 740 638 l 1
 763 592 l 1
 480 360 l 1
 664 128 l 1
 621 82 l 1
 380 342 l 1
EndSplineSet
PickledDataWithLists: "(dp0
Vcom.fontlab.hintData
p1
(dp2
Vvhints
p3
(lp4
(dp5
Vposition
p6
L66L
sVwidth
p7
L10L
sa(dp8
g6
L336L
sg7
L10L
sa(dp9
g6
L356L
sg7
L10L
sa(dp10
g6
L368L
sg7
L10L
sa(dp11
g6
L626L
sg7
L10L
sa(dp12
g6
L638L
sg7
L10L
sasVhhints
p13
(lp14
(dp15
g6
L65L
sg7
L10L
sa(dp16
g6
L605L
sg7
L10L
sass."
EndChar

StartChar: guillemotright
Encoding: 187 187 103
GlifName: guillemotright
Width: 780
VWidth: 0
Flags: HMW
LayerCount: 2
Fore
SplineSet
718 378 m 1
 711 342 l 1
 357 82 l 1
 335 128 l 1
 619 360 l 1
 434 592 l 1
 476 638 l 1
 718 378 l 1
433 378 m 1
 426 342 l 1
 73 82 l 1
 50 128 l 1
 334 360 l 1
 149 592 l 1
 192 638 l 1
 433 378 l 1
EndSplineSet
PickledDataWithLists: "(dp0
Vcom.fontlab.hintData
p1
(dp2
Vvhints
p3
(lp4
(dp5
Vposition
p6
L72L
sVwidth
p7
L10L
sa(dp8
g6
L84L
sg7
L10L
sa(dp9
g6
L342L
sg7
L10L
sa(dp10
g6
L354L
sg7
L10L
sa(dp11
g6
L374L
sg7
L10L
sa(dp12
g6
L644L
sg7
L10L
sasVhhints
p13
(lp14
(dp15
g6
L64L
sg7
L10L
sa(dp16
g6
L605L
sg7
L10L
sass."
EndChar

StartChar: uni2010
Encoding: 8208 8208 111
GlifName: uni2010
Width: 600
VWidth: 0
Flags: HMW
LayerCount: 2
Fore
SplineSet
121 395 m 1
 527 395 l 1
 512 325 l 1
 106 325 l 1
 121 395 l 1
EndSplineSet
PickledDataWithLists: "(dp0
Vcom.fontlab.hintData
p1
(dp2
Vvhints
p3
(lp4
(dp5
Vposition
p6
L75L
sVwidth
p7
L10L
sa(dp8
g6
L514L
sg7
L10L
sasVhhints
p9
(lp10
(dp11
g6
L301L
sg7
L10L
sa(dp12
g6
L363L
sg7
L10L
sa(dp13
g6
L371L
sg7
L10L
sass."
EndChar

StartChar: uni2011
Encoding: 8209 8209 112
GlifName: uni2011
Width: 600
VWidth: 0
Flags: HMW
LayerCount: 2
Fore
SplineSet
121 395 m 1
 527 395 l 1
 512 325 l 1
 106 325 l 1
 121 395 l 1
EndSplineSet
PickledDataWithLists: "(dp0
Vcom.fontlab.hintData
p1
(dp2
Vvhints
p3
(lp4
(dp5
Vposition
p6
L75L
sVwidth
p7
L10L
sa(dp8
g6
L514L
sg7
L10L
sasVhhints
p9
(lp10
(dp11
g6
L301L
sg7
L10L
sa(dp12
g6
L363L
sg7
L10L
sa(dp13
g6
L371L
sg7
L10L
sass."
EndChar

StartChar: figuredash
Encoding: 8210 8210 113
GlifName: figuredash
Width: 660
VWidth: 0
Flags: HMW
LayerCount: 2
Fore
SplineSet
121 395 m 1
 587 395 l 1
 572 325 l 1
 106 325 l 1
 121 395 l 1
EndSplineSet
PickledDataWithLists: "(dp0
Vcom.fontlab.hintData
p1
(dp2
Vvhints
p3
(lp4
(dp5
Vposition
p6
L105L
sVwidth
p7
L10L
sa(dp8
g6
L604L
sg7
L10L
sasVhhints
p9
(lp10
(dp11
g6
L301L
sg7
L10L
sa(dp12
g6
L364L
sg7
L10L
sa(dp13
g6
L371L
sg7
L10L
sass."
EndChar

StartChar: uni2015
Encoding: 8213 8213 114
GlifName: uni2015
Width: 1200
VWidth: 0
Flags: HMW
LayerCount: 2
Fore
SplineSet
121 395 m 1
 1127 395 l 1
 1112 325 l 1
 106 325 l 1
 121 395 l 1
EndSplineSet
PickledDataWithLists: "(dp0
Vcom.fontlab.hintData
p1
(dp2
Vvhints
p3
(lp4
(dp5
Vposition
p6
L90L
sVwidth
p7
L10L
sa(dp8
g6
L1099L
sg7
L10L
sasVhhints
p9
(lp10
(dp11
g6
L299L
sg7
L10L
sa(dp12
g6
L304L
sg7
L10L
sa(dp13
g6
L309L
sg7
L10L
sa(dp14
g6
L361L
sg7
L10L
sa(dp15
g6
L366L
sg7
L10L
sa(dp16
g6
L371L
sg7
L10L
sass."
EndChar

StartChar: endash
Encoding: 8211 8211 115
GlifName: endash
Width: 660
VWidth: 0
Flags: HMW
LayerCount: 2
Fore
SplineSet
121 395 m 1
 587 395 l 1
 572 325 l 1
 106 325 l 1
 121 395 l 1
EndSplineSet
PickledDataWithLists: "(dp0
Vcom.fontlab.hintData
p1
(dp2
Vvhints
p3
(lp4
(dp5
Vposition
p6
L75L
sVwidth
p7
L10L
sa(dp8
g6
L574L
sg7
L10L
sasVhhints
p9
(lp10
(dp11
g6
L301L
sg7
L10L
sa(dp12
g6
L364L
sg7
L10L
sa(dp13
g6
L371L
sg7
L10L
sass."
EndChar

StartChar: emdash
Encoding: 8212 8212 116
GlifName: emdash
Width: 1200
VWidth: 0
Flags: HMW
LayerCount: 2
Fore
SplineSet
121 395 m 1
 1127 395 l 1
 1112 325 l 1
 106 325 l 1
 121 395 l 1
EndSplineSet
PickledDataWithLists: "(dp0
Vcom.fontlab.hintData
p1
(dp2
Vvhints
p3
(lp4
(dp5
Vposition
p6
L90L
sVwidth
p7
L10L
sa(dp8
g6
L1099L
sg7
L10L
sasVhhints
p9
(lp10
(dp11
g6
L299L
sg7
L10L
sa(dp12
g6
L304L
sg7
L10L
sa(dp13
g6
L309L
sg7
L10L
sa(dp14
g6
L361L
sg7
L10L
sa(dp15
g6
L366L
sg7
L10L
sa(dp16
g6
L371L
sg7
L10L
sass."
EndChar

StartChar: quoteleft
Encoding: 8216 8216 117
GlifName: quoteleft
Width: 330
VWidth: 0
Flags: HMW
LayerCount: 2
Fore
SplineSet
316 647 m 0
 307 606 273 577 229 577 c 0
 180 577 160 609 160 651 c 0
 160 662 162 673 164 685 c 0
 186 789 269 862 342 905 c 1
 362 866 l 1
 306 833 255 782 232 709 c 1
 241 712 250 713 260 713 c 0
 295 713 317 693 317 662 c 0
 317 657 317 652 316 647 c 0
EndSplineSet
PickledDataWithLists: "(dp0
Vcom.fontlab.hintData
p1
(dp2
Vvhints
p3
(lp4
(dp5
Vposition
p6
L69L
sVwidth
p7
L10L
sa(dp8
g6
L150L
sg7
L10L
sa(dp9
g6
L255L
sg7
L10L
sasVhhints
p10
(lp11
(dp12
g6
L533L
sg7
L10L
sa(dp13
g6
L602L
sg7
L10L
sa(dp14
g6
L832L
sg7
L10L
sass."
EndChar

StartChar: quoteright
Encoding: 8217 8217 118
GlifName: quoteright
Width: 330
VWidth: 0
Flags: HMW
LayerCount: 2
Fore
SplineSet
203 803 m 0
 212 844 246 873 290 873 c 0
 339 873 358 841 358 799 c 0
 358 788 357 777 355 765 c 0
 333 661 249 588 176 545 c 1
 156 584 l 1
 212 617 264 668 287 741 c 1
 278 738 269 737 259 737 c 0
 224 737 201 757 201 788 c 0
 201 793 202 798 203 803 c 0
EndSplineSet
PickledDataWithLists: "(dp0
Vcom.fontlab.hintData
p1
(dp2
Vvhints
p3
(lp4
(dp5
Vposition
p6
L61L
sVwidth
p7
L10L
sa(dp8
g6
L170L
sg7
L10L
sa(dp9
g6
L251L
sg7
L10L
sasVhhints
p10
(lp11
(dp12
g6
L538L
sg7
L10L
sa(dp13
g6
L768L
sg7
L10L
sa(dp14
g6
L837L
sg7
L10L
sass."
EndChar

StartChar: quotedblleft
Encoding: 8220 8220 119
GlifName: quotedblleft
Width: 570
VWidth: 0
Flags: HMW
LayerCount: 2
Fore
SplineSet
331 647 m 0
 322 606 288 577 244 577 c 0
 195 577 175 609 175 651 c 0
 175 662 177 673 179 685 c 0
 201 789 284 862 357 905 c 1
 377 866 l 1
 321 833 270 782 247 709 c 1
 256 712 265 713 275 713 c 0
 310 713 332 693 332 662 c 0
 332 657 332 652 331 647 c 0
541 647 m 0
 532 606 498 577 454 577 c 0
 405 577 385 609 385 651 c 0
 385 662 387 673 389 685 c 0
 411 789 494 862 567 905 c 1
 587 866 l 1
 531 833 480 782 457 709 c 1
 466 712 475 713 485 713 c 0
 520 713 542 693 542 662 c 0
 542 657 542 652 541 647 c 0
EndSplineSet
PickledDataWithLists: "(dp0
Vcom.fontlab.hintData
p1
(dp2
Vvhints
p3
(lp4
(dp5
Vposition
p6
L69L
sVwidth
p7
L10L
sa(dp8
g6
L150L
sg7
L10L
sa(dp9
g6
L255L
sg7
L10L
sa(dp10
g6
L309L
sg7
L10L
sa(dp11
g6
L390L
sg7
L10L
sa(dp12
g6
L495L
sg7
L10L
sasVhhints
p13
(lp14
(dp15
g6
L533L
sg7
L10L
sa(dp16
g6
L602L
sg7
L10L
sa(dp17
g6
L832L
sg7
L10L
sass."
EndChar

StartChar: quotedblright
Encoding: 8221 8221 120
GlifName: quotedblright
Width: 570
VWidth: 0
Flags: HMW
LayerCount: 2
Fore
SplineSet
218 803 m 0
 227 844 261 873 305 873 c 0
 354 873 373 841 373 799 c 0
 373 788 372 777 370 765 c 0
 348 661 264 588 191 545 c 1
 171 584 l 1
 227 617 279 668 302 741 c 1
 293 738 284 737 274 737 c 0
 239 737 216 757 216 788 c 0
 216 793 217 798 218 803 c 0
428 803 m 0
 437 844 471 873 515 873 c 0
 564 873 583 841 583 799 c 0
 583 788 582 777 580 765 c 0
 558 661 474 588 401 545 c 1
 381 584 l 1
 437 617 489 668 512 741 c 1
 503 738 494 737 484 737 c 0
 449 737 426 757 426 788 c 0
 426 793 427 798 428 803 c 0
EndSplineSet
PickledDataWithLists: "(dp0
Vcom.fontlab.hintData
p1
(dp2
Vvhints
p3
(lp4
(dp5
Vposition
p6
L61L
sVwidth
p7
L10L
sa(dp8
g6
L170L
sg7
L10L
sa(dp9
g6
L251L
sg7
L10L
sa(dp10
g6
L301L
sg7
L10L
sa(dp11
g6
L410L
sg7
L10L
sa(dp12
g6
L491L
sg7
L10L
sasVhhints
p13
(lp14
(dp15
g6
L538L
sg7
L10L
sa(dp16
g6
L768L
sg7
L10L
sa(dp17
g6
L837L
sg7
L10L
sass."
EndChar

StartChar: bullet
Encoding: 8226 8226 121
GlifName: bullet
Width: 660
VWidth: 0
Flags: HMW
LayerCount: 2
Fore
SplineSet
223 360 m 0
 238 430 301 475 371 475 c 0
 432 475 473 441 473 386 c 0
 473 378 473 369 471 360 c 0
 456 290 392 245 322 245 c 0
 261 245 220 279 220 334 c 0
 220 342 221 351 223 360 c 0
EndSplineSet
PickledDataWithLists: "(dp0
Vcom.fontlab.hintData
p1
(dp2
Vvhints
p3
(lp4
(dp5
Vposition
p6
L231L
sVwidth
p7
L10L
sa(dp8
g6
L479L
sg7
L10L
sasVhhints
p9
(lp10
(dp11
g6
L234L
sg7
L10L
sa(dp12
g6
L456L
sg7
L10L
sass."
EndChar

StartChar: ellipsis
Encoding: 8230 8230 122
GlifName: ellipsis
Width: 870
VWidth: 0
GlyphClass: 3
Flags: HMW
LayerCount: 2
Fore
SplineSet
133 133 m 0
 168 133 193 113 193 81 c 0
 193 76 192 71 191 65 c 0
 182 23 145 -3 104 -3 c 0
 69 -3 45 17 45 49 c 0
 45 54 46 59 47 65 c 0
 56 107 92 133 133 133 c 0
403 133 m 0
 438 133 463 113 463 81 c 0
 463 76 462 71 461 65 c 0
 452 23 415 -3 374 -3 c 0
 339 -3 315 17 315 49 c 0
 315 54 316 59 317 65 c 0
 326 107 362 133 403 133 c 0
673 133 m 0
 708 133 733 113 733 81 c 0
 733 76 732 71 731 65 c 0
 722 23 685 -3 644 -3 c 0
 609 -3 585 17 585 49 c 0
 585 54 586 59 587 65 c 0
 596 107 632 133 673 133 c 0
EndSplineSet
PickledDataWithLists: "(dp0
Vcom.fontlab.hintData
p1
(dp2
Vvhints
p3
(lp4
(dp5
Vposition
p6
L60L
sVwidth
p7
L10L
sa(dp8
g6
L200L
sg7
L10L
sa(dp9
g6
L285L
sg7
L10L
sa(dp10
g6
L425L
sg7
L10L
sa(dp11
g6
L510L
sg7
L10L
sa(dp12
g6
L650L
sg7
L10L
sasVhhints
p13
(lp14
(dp15
g6
L2L
sg7
L10L
sa(dp16
g6
L115L
sg7
L10L
sass."
Ligature2: "Latin.liga subtable" period uni200D period uni200D period
Ligature2: "Latin.liga subtable" period period period
EndChar

StartChar: Euro
Encoding: 8364 8364 124
GlifName: E_uro
Width: 660
VWidth: 0
Flags: HMW
LayerCount: 2
Fore
SplineSet
55 438 m 1
 67 492 l 1
 141 492 l 1
 191 649 292 798 478 798 c 0
 632 798 673 680 673 605 c 0
 673 601 673 597 673 593 c 1
 582 584 l 1
 582 588 582 591 582 595 c 0
 582 659 546 729 463 729 c 0
 360 729 280 638 232 492 c 1
 517 492 l 1
 505 438 l 1
 216 438 l 1
 214 428 211 418 209 407 c 2
 201 373 l 2
 199 362 198 352 196 342 c 1
 485 342 l 1
 473 288 l 1
 188 288 l 1
 186 270 186 252 186 236 c 0
 186 121 229 51 319 51 c 0
 407 51 476 129 500 196 c 1
 587 187 l 1
 560 113 467 -18 304 -18 c 0
 143 -18 94 93 94 225 c 0
 94 246 95 267 97 288 c 1
 23 288 l 1
 35 342 l 1
 106 342 l 1
 108 352 109 363 111 373 c 2
 119 407 l 2
 121 417 124 428 126 438 c 1
 55 438 l 1
EndSplineSet
PickledDataWithLists: "(dp0
Vcom.fontlab.hintData
p1
(dp2
Vvhints
p3
(lp4
(dp5
Vposition
p6
L21L
sVwidth
p7
L10L
sa(dp8
g6
L115L
sg7
L10L
sa(dp9
g6
L203L
sg7
L10L
sa(dp10
g6
L484L
sg7
L10L
sa(dp11
g6
L659L
sg7
L10L
sasVhhints
p12
(lp13
(dp14
g6
L-15L
sg7
L10L
sa(dp15
g6
L48L
sg7
L9L
sa(dp16
g6
L165L
sg7
L10L
sa(dp17
g6
L268L
sg7
L10L
sa(dp18
g6
L323L
sg7
L10L
sa(dp19
g6
L448L
sg7
L10L
sa(dp20
g6
L453L
sg7
L10L
sa(dp21
g6
L503L
sg7
L10L
sa(dp22
g6
L590L
sg7
L10L
sa(dp23
g6
L745L
sg7
L10L
sa(dp24
g6
L806L
sg7
L10L
sass."
EndChar

StartChar: trademark
Encoding: 8482 8482 125
GlifName: trademark
Width: 765
VWidth: 0
Flags: HMW
LayerCount: 2
Fore
SplineSet
140 856 m 1
 149 900 l 1
 429 900 l 1
 420 856 l 1
 310 856 l 1
 236 510 l 1
 176 510 l 1
 250 856 l 1
 140 856 l 1
763 510 m 1
 704 510 l 1
 763 787 l 1
 623 608 l 1
 595 608 l 1
 531 787 l 1
 472 510 l 1
 413 510 l 1
 495 894 l 1
 546 900 l 1
 622 669 l 1
 796 900 l 1
 845 894 l 1
 763 510 l 1
EndSplineSet
PickledDataWithLists: "(dp0
Vcom.fontlab.hintData
p1
(dp2
Vvhints
p3
(lp4
(dp5
Vposition
p6
L39L
sVwidth
p7
L10L
sa(dp8
g6
L180L
sg7
L10L
sa(dp9
g6
L251L
sg7
L10L
sa(dp10
g6
L383L
sg7
L10L
sa(dp11
g6
L421L
sg7
L10L
sa(dp12
g6
L440L
sg7
L10L
sa(dp13
g6
L504L
sg7
L10L
sa(dp14
g6
L735L
sg7
L10L
sa(dp15
g6
L800L
sg7
L10L
sa(dp16
g6
L819L
sg7
L10L
sasVhhints
p17
(lp18
(dp19
g6
L381L
sg7
L10L
sa(dp20
g6
L390L
sg7
L10L
sa(dp21
g6
L395L
sg7
L10L
sa(dp22
g6
L473L
sg7
L10L
sa(dp23
g6
L745L
sg7
L10L
sa(dp24
g6
L751L
sg7
L10L
sa(dp25
g6
L803L
sg7
L10L
sass."
EndChar

StartChar: uni25CC
Encoding: 9676 9676 126
GlifName: uni25C_C_
Width: 720
VWidth: 0
GlyphClass: 2
Flags: HMW
AnchorPoint: "LatinCedilla.mark" 320 0 basechar 0
AnchorPoint: "LatinBelow.mark" 300 0 basechar 0
AnchorPoint: "LatinAbove.mark" 300 0 basechar 0
LayerCount: 2
Fore
SplineSet
333 15 m 0
 329 -2 314 -15 297 -15 c 0
 282 -15 272 -6 272 8 c 0
 272 10 273 13 273 15 c 0
 277 32 293 45 310 45 c 0
 325 45 334 36 334 22 c 0
 334 20 333 17 333 15 c 0
454 585 m 0
 450 568 435 555 418 555 c 0
 403 555 394 564 394 578 c 0
 394 580 394 583 394 585 c 0
 398 602 414 615 431 615 c 0
 446 615 455 606 455 592 c 0
 455 590 454 587 454 585 c 0
655 330 m 0
 670 330 679 321 679 307 c 0
 679 305 679 302 679 300 c 0
 675 283 659 270 642 270 c 0
 627 270 618 279 618 293 c 0
 618 295 619 298 619 300 c 0
 623 317 638 330 655 330 c 0
85 330 m 0
 100 330 109 321 109 307 c 0
 109 305 109 302 109 300 c 0
 105 283 89 270 72 270 c 0
 57 270 48 279 48 293 c 0
 48 295 49 298 49 300 c 0
 53 317 68 330 85 330 c 0
130 439 m 0
 145 439 155 430 155 416 c 0
 155 414 154 411 154 409 c 0
 150 392 135 379 118 379 c 0
 103 379 93 388 93 402 c 0
 93 404 94 407 94 409 c 0
 98 426 113 439 130 439 c 0
84 221 m 0
 99 221 108 212 108 198 c 0
 108 196 108 193 108 191 c 0
 104 174 88 161 71 161 c 0
 56 161 47 170 47 184 c 0
 47 186 48 189 48 191 c 0
 52 208 67 221 84 221 c 0
656 439 m 0
 671 439 681 430 681 416 c 0
 681 414 680 411 680 409 c 0
 676 392 661 379 644 379 c 0
 629 379 619 388 619 402 c 0
 619 404 620 407 620 409 c 0
 624 426 639 439 656 439 c 0
610 221 m 0
 625 221 634 212 634 198 c 0
 634 196 634 193 634 191 c 0
 630 174 614 161 597 161 c 0
 582 161 573 170 573 184 c 0
 573 186 574 189 574 191 c 0
 578 208 593 221 610 221 c 0
211 531 m 0
 226 531 235 522 235 508 c 0
 235 506 234 503 234 501 c 0
 230 484 215 471 198 471 c 0
 183 471 174 480 174 494 c 0
 174 496 174 499 174 501 c 0
 178 518 194 531 211 531 c 0
614 531 m 0
 629 531 638 522 638 508 c 0
 638 506 637 503 637 501 c 0
 633 484 618 471 601 471 c 0
 586 471 577 480 577 494 c 0
 577 496 577 499 577 501 c 0
 581 518 597 531 614 531 c 0
125 128 m 0
 140 128 150 119 150 105 c 0
 150 103 149 100 149 98 c 0
 145 81 129 68 112 68 c 0
 97 68 88 77 88 91 c 0
 88 93 89 96 89 98 c 0
 93 115 108 128 125 128 c 0
528 128 m 0
 543 128 553 119 553 105 c 0
 553 103 552 100 552 98 c 0
 548 81 532 68 515 68 c 0
 500 68 491 77 491 91 c 0
 491 93 492 96 492 98 c 0
 496 115 511 128 528 128 c 0
423 67 m 0
 438 67 448 58 448 44 c 0
 448 42 447 39 447 37 c 0
 443 20 427 7 410 7 c 0
 395 7 386 16 386 30 c 0
 386 32 387 35 387 37 c 0
 391 54 406 67 423 67 c 0
205 67 m 0
 220 67 230 58 230 44 c 0
 230 42 229 39 229 37 c 0
 225 20 209 7 192 7 c 0
 177 7 168 16 168 30 c 0
 168 32 169 35 169 37 c 0
 173 54 188 67 205 67 c 0
535 593 m 0
 550 593 559 584 559 570 c 0
 559 568 559 565 559 563 c 0
 555 546 539 533 522 533 c 0
 507 533 498 542 498 556 c 0
 498 558 499 561 499 563 c 0
 503 580 518 593 535 593 c 0
317 593 m 0
 332 593 341 584 341 570 c 0
 341 568 341 565 341 563 c 0
 337 546 321 533 304 533 c 0
 289 533 280 542 280 556 c 0
 280 558 281 561 281 563 c 0
 285 580 300 593 317 593 c 0
EndSplineSet
PickledDataWithLists: "(dp0
Vcom.fontlab.hintData
p1
(dp2
Vvhints
p3
(lp4
(dp5
Vposition
p6
L40L
sVwidth
p7
L10L
sa(dp8
g6
L76L
sg7
L10L
sa(dp9
g6
L90L
sg7
L10L
sa(dp10
g6
L132L
sg7
L10L
sa(dp11
g6
L180L
sg7
L10L
sa(dp12
g6
L238L
sg7
L10L
sa(dp13
g6
L325L
sg7
L10L
sa(dp14
g6
L385L
sg7
L10L
sa(dp15
g6
L472L
sg7
L10L
sa(dp16
g6
L528L
sg7
L10L
sa(dp17
g6
L581L
sg7
L10L
sa(dp18
g6
L620L
sg7
L10L
sa(dp19
g6
L631L
sg7
L10L
sa(dp20
g6
L670L
sg7
L10L
sasVhhints
p21
(lp22
(dp23
g6
L-20L
sg7
L10L
sa(dp24
g6
L16L
sg7
L10L
sa(dp25
g6
L30L
sg7
L10L
sa(dp26
g6
L69L
sg7
L10L
sa(dp27
g6
L122L
sg7
L10L
sa(dp28
g6
L178L
sg7
L10L
sa(dp29
g6
L265L
sg7
L10L
sa(dp30
g6
L325L
sg7
L10L
sa(dp31
g6
L410L
sg7
L10L
sa(dp32
g6
L468L
sg7
L10L
sa(dp33
g6
L518L
sg7
L10L
sa(dp34
g6
L560L
sg7
L10L
sa(dp35
g6
L574L
sg7
L10L
sa(dp36
g6
L610L
sg7
L10L
sass."
Colour: ff00
EndChar

StartChar: uni0E01
Encoding: 3585 3585 127
GlifName: uni0E_01
Width: 655
VWidth: 0
GlyphClass: 2
Flags: HMW
LayerCount: 2
Fore
SplineSet
48 0 m 25
 111 297 l 2
 122 350 155 382 202 396 c 1
 86 419 l 1
 122 523 228 618 386 618 c 0
 522 618 603 550 603 449 c 0
 603 434 601 419 598 403 c 2
 512 0 l 1
 427 0 l 1
 513 403 l 2
 516 417 517 430 517 442 c 0
 517 517 462 554 373 554 c 0
 284 554 217 510 182 441 c 1
 326 411 l 1
 309 374 l 2
 306 374 288 377 278 377 c 0
 235 377 208 353 198 305 c 2
 133 0 l 25
 48 0 l 25
EndSplineSet
PickledDataWithLists: "(dp0
Vcom.fontlab.hintData
p1
(dp2
Vvhints
p3
(lp4
(dp5
Vposition
p6
L91L
sVwidth
p7
L10L
sa(dp8
g6
L105L
sg7
L10L
sa(dp9
g6
L179L
sg7
L10L
sa(dp10
g6
L193L
sg7
L10L
sa(dp11
g6
L467L
sg7
L10L
sa(dp12
g6
L476L
sg7
L10L
sa(dp13
g6
L559L
sg7
L10L
sa(dp14
g6
L564L
sg7
L10L
sasVhhints
p15
(lp16
(dp17
g6
L-16L
sg7
L10L
sa(dp18
g6
L4L
sg7
L10L
sa(dp19
g6
L544L
sg7
L10L
sa(dp20
g6
L606L
sg7
L10L
sass."
EndChar

StartChar: uni0E02
Encoding: 3586 3586 128
GlifName: uni0E_02
Width: 635
VWidth: 0
GlyphClass: 2
Flags: HMW
LayerCount: 2
Fore
SplineSet
178 528 m 0
 147 528 121 506 115 476 c 0
 114 472 114 468 114 464 c 0
 114 441 129 424 156 424 c 0
 187 424 213 446 219 476 c 0
 220 480 221 484 221 488 c 0
 221 511 205 528 178 528 c 0
64 476 m 0
 79 548 155 612 265 612 c 0
 359 612 411 569 411 501 c 0
 411 491 410 480 408 469 c 0
 377 323 210 293 181 155 c 0
 179 146 178 137 178 129 c 0
 178 75 221 46 285 46 c 0
 358 46 422 87 440 174 c 2
 531 600 l 1
 616 600 l 1
 525 174 l 2
 502 66 403 -18 271 -18 c 0
 156 -18 91 37 91 116 c 0
 91 127 93 138 95 149 c 0
 132 323 317 344 345 474 c 0
 347 482 347 489 347 496 c 0
 347 542 311 567 248 567 c 0
 240 567 232 567 225 566 c 1
 255 555 273 531 273 498 c 0
 273 491 272 484 270 476 c 0
 258 419 207 380 147 380 c 0
 95 380 62 409 62 454 c 0
 62 461 62 468 64 476 c 0
EndSplineSet
PickledDataWithLists: "(dp0
Vcom.fontlab.hintData
p1
(dp2
Vvhints
p3
(lp4
(dp5
Vposition
p6
L14L
sVwidth
p7
L10L
sa(dp8
g6
L547L
sg7
L10L
sasVhhints
p9
(lp10
(dp11
g6
L-19L
sg7
L10L
sa(dp12
g6
L432L
sg7
L10L
sa(dp13
g6
L584L
sg7
L10L
sa(dp14
g6
L594L
sg7
L10L
sass."
EndChar

StartChar: uni0E03
Encoding: 3587 3587 129
GlifName: uni0E_03
Width: 635
VWidth: 0
GlyphClass: 2
Flags: HMW
LayerCount: 2
Fore
SplineSet
185 564 m 0
 154 564 128 542 122 512 c 0
 121 508 120 504 120 500 c 0
 120 477 136 460 163 460 c 0
 194 460 220 482 226 512 c 0
 227 516 227 520 227 524 c 0
 227 547 212 564 185 564 c 0
93 148 m 0
 130 322 320 350 350 490 c 0
 351 495 352 500 353 504 c 1
 315 448 258 405 173 405 c 0
 101 405 68 439 68 487 c 0
 68 495 69 503 71 512 c 0
 83 569 134 608 194 608 c 0
 246 608 279 579 279 534 c 0
 279 527 279 520 277 512 c 0
 272 490 262 471 248 456 c 1
 301 484 342 541 364 599 c 1
 398 603 l 1
 406 583 415 559 415 526 c 0
 415 512 414 497 410 480 c 0
 379 334 209 292 180 154 c 0
 178 145 177 137 177 129 c 0
 177 75 220 46 285 46 c 0
 358 46 421 86 439 173 c 2
 530 600 l 1
 615 600 l 1
 524 173 l 2
 501 65 403 -18 271 -18 c 0
 156 -18 90 36 90 115 c 0
 90 125 91 137 93 148 c 0
EndSplineSet
PickledDataWithLists: "(dp0
Vcom.fontlab.hintData
p1
(dp2
Vvhints
p3
(lp4
(dp5
Vposition
p6
L11L
sVwidth
p7
L10L
sa(dp8
g6
L224L
sg7
L10L
sa(dp9
g6
L230L
sg7
L10L
sa(dp10
g6
L297L
sg7
L10L
sasVhhints
p11
(lp12
(dp13
g6
L-24L
sg7
L10L
sa(dp14
g6
L400L
sg7
L10L
sa(dp15
g6
L584L
sg7
L10L
sa(dp16
g6
L603L
sg7
L10L
sass."
EndChar

StartChar: uni0E04
Encoding: 3588 3588 130
GlifName: uni0E_04
Width: 665
VWidth: 0
GlyphClass: 2
Flags: HMW
LayerCount: 2
Fore
SplineSet
349 373 m 0
 318 373 292 351 286 321 c 0
 285 317 285 313 285 309 c 0
 285 286 300 269 327 269 c 0
 358 269 384 291 390 321 c 0
 391 325 392 329 392 333 c 0
 392 356 376 373 349 373 c 0
359 417 m 0
 411 417 445 387 445 342 c 0
 445 335 444 328 442 321 c 0
 430 264 378 225 318 225 c 0
 276 225 246 244 237 275 c 1
 205 234 175 178 152 105 c 1
 126 0 l 1
 33 0 l 1
 33 0 59 73 69 120 c 0
 91 224 71 249 104 403 c 0
 131 529 248 618 401 618 c 0
 535 618 614 550 614 449 c 0
 614 434 612 419 609 403 c 2
 523 0 l 1
 438 0 l 1
 460 105 l 2
 469 145 507 307 527 403 c 0
 530 417 531 430 531 442 c 0
 531 516 476 554 388 554 c 0
 286 554 207 503 186 403 c 0
 166 307 160 255 156 214 c 1
 188 286 232 352 281 389 c 0
 303 406 329 417 359 417 c 0
EndSplineSet
PickledDataWithLists: "(dp0
Vcom.fontlab.hintData
p1
(dp2
Vvhints
p3
(lp4
(dp5
Vposition
p6
L59L
sVwidth
p7
L10L
sa(dp8
g6
L142L
sg7
L10L
sa(dp9
g6
L381L
sg7
L10L
sa(dp10
g6
L439L
sg7
L10L
sa(dp11
g6
L508L
sg7
L10L
sa(dp12
g6
L590L
sg7
L10L
sasVhhints
p13
(lp14
(dp15
g6
L-19L
sg7
L10L
sa(dp16
g6
L-4L
sg7
L10L
sa(dp17
g6
L363L
sg7
L10L
sa(dp18
g6
L551L
sg7
L10L
sa(dp19
g6
L608L
sg7
L10L
sass."
EndChar

StartChar: uni0E05
Encoding: 3589 3589 131
GlifName: uni0E_05
Width: 665
VWidth: 0
GlyphClass: 2
Flags: HMW
LayerCount: 2
Fore
SplineSet
349 373 m 0
 318 373 292 351 286 321 c 0
 285 317 285 313 285 309 c 0
 285 286 300 269 327 269 c 0
 358 269 384 291 390 321 c 0
 391 325 392 329 392 333 c 0
 392 356 376 373 349 373 c 0
359 417 m 0
 411 417 445 387 445 342 c 0
 445 335 444 328 442 321 c 0
 430 264 378 225 318 225 c 0
 276 225 246 244 237 275 c 1
 205 234 175 178 152 105 c 1
 126 0 l 1
 33 0 l 1
 33 0 59 73 69 120 c 0
 91 224 71 249 104 403 c 0
 122 487 176 612 309 612 c 1
 383 530 l 1
 491 612 l 1
 590 612 617 543 617 473 c 0
 617 449 614 425 609 403 c 2
 523 0 l 1
 438 0 l 1
 460 105 l 2
 469 145 507 307 527 403 c 0
 532 428 535 450 535 469 c 0
 535 518 517 547 485 551 c 1
 381 477 l 1
 371 477 l 1
 361 477 l 1
 289 551 l 1
 241 545 202 492 183 403 c 0
 162 305 159 254 155 213 c 1
 187 285 232 352 281 389 c 0
 303 406 329 417 359 417 c 0
EndSplineSet
PickledDataWithLists: "(dp0
Vcom.fontlab.hintData
p1
(dp2
Vvhints
p3
(lp4
(dp5
Vposition
p6
L60L
sVwidth
p7
L10L
sa(dp8
g6
L142L
sg7
L10L
sa(dp9
g6
L444L
sg7
L10L
sa(dp10
g6
L508L
sg7
L10L
sa(dp11
g6
L590L
sg7
L10L
sasVhhints
p12
(lp13
(dp14
g6
L-18L
sg7
L10L
sa(dp15
g6
L-4L
sg7
L10L
sa(dp16
g6
L363L
sg7
L10L
sa(dp17
g6
L469L
sg7
L10L
sa(dp18
g6
L549L
sg7
L10L
sa(dp19
g6
L606L
sg7
L10L
sass."
EndChar

StartChar: uni0E06
Encoding: 3590 3590 132
GlifName: uni0E_06
Width: 650
VWidth: 0
GlyphClass: 2
Flags: HMW
LayerCount: 2
Fore
SplineSet
131 140 m 0
 100 140 74 118 68 88 c 0
 67 84 66 80 66 76 c 0
 66 53 82 36 109 36 c 0
 140 36 166 58 172 88 c 0
 173 92 173 96 173 100 c 0
 173 123 158 140 131 140 c 0
196 564 m 0
 165 564 139 542 133 512 c 0
 132 508 131 504 131 500 c 0
 131 477 147 460 174 460 c 0
 205 460 231 482 237 512 c 0
 238 516 238 520 238 524 c 0
 238 547 223 564 196 564 c 0
205 608 m 0
 257 608 290 579 290 534 c 0
 290 527 290 520 288 512 c 0
 283 490 273 471 259 456 c 1
 312 484 353 541 375 599 c 1
 408 603 l 1
 416 583 425 559 425 526 c 0
 425 512 424 497 420 480 c 0
 391 344 243 299 199 184 c 1
 313 176 386 127 432 76 c 1
 437 106 443 140 449 170 c 2
 541 600 l 1
 626 600 l 1
 498 0 l 1
 420 0 l 1
 385 57 320 115 223 130 c 1
 225 124 225 117 225 110 c 0
 225 103 225 96 223 88 c 0
 211 31 159 -8 99 -8 c 0
 47 -8 14 21 14 66 c 0
 14 73 15 80 17 88 c 0
 27 136 65 171 113 181 c 1
 165 324 333 359 361 490 c 0
 362 495 363 500 364 504 c 1
 326 448 269 405 184 405 c 0
 112 405 79 439 79 487 c 0
 79 495 80 503 82 512 c 0
 94 569 145 608 205 608 c 0
EndSplineSet
PickledDataWithLists: "(dp0
Vcom.fontlab.hintData
p1
(dp2
Vvhints
p3
(lp4
(dp5
Vposition
p6
L11L
sVwidth
p7
L10L
sa(dp8
g6
L35L
sg7
L10L
sa(dp9
g6
L110L
sg7
L10L
sa(dp10
g6
L239L
sg7
L10L
sa(dp11
g6
L251L
sg7
L10L
sa(dp12
g6
L317L
sg7
L10L
sa(dp13
g6
L325L
sg7
L10L
sa(dp14
g6
L486L
sg7
L10L
sa(dp15
g6
L494L
sg7
L10L
sa(dp16
g6
L566L
sg7
L10L
sa(dp17
g6
L576L
sg7
L10L
sasVhhints
p18
(lp19
(dp20
g6
L-27L
sg7
L10L
sa(dp21
g6
L223L
sg7
L10L
sa(dp22
g6
L277L
sg7
L10L
sa(dp23
g6
L403L
sg7
L10L
sa(dp24
g6
L598L
sg7
L10L
sa(dp25
g6
L608L
sg7
L10L
sass."
EndChar

StartChar: uni0E07
Encoding: 3591 3591 133
GlifName: uni0E_07
Width: 525
VWidth: 0
GlyphClass: 2
Flags: HMW
AnchorPoint: "ThaiAbove.mark" 485 0 basechar 0
LayerCount: 2
Fore
SplineSet
366 564 m 0
 335 564 309 542 303 512 c 0
 302 508 301 504 301 500 c 0
 301 477 317 460 344 460 c 0
 375 460 401 482 407 512 c 0
 408 516 408 520 408 524 c 0
 408 547 393 564 366 564 c 0
29 333 m 1
 91 381 l 1
 320 68 l 1
 319 75 319 84 319 94 c 0
 319 110 321 130 325 150 c 2
 358 308 l 2
 371 370 388 392 401 434 c 1
 381 422 359 416 334 416 c 0
 282 416 249 445 249 490 c 0
 249 497 250 504 252 512 c 0
 264 569 315 608 375 608 c 0
 450 608 487 571 487 509 c 0
 487 496 485 482 482 467 c 0
 470 410 455 371 440 300 c 2
 376 0 l 1
 285 0 l 1
 29 333 l 1
EndSplineSet
PickledDataWithLists: "(dp0
Vcom.fontlab.hintData
p1
(dp2
Vvhints
p3
(lp4
(dp5
Vposition
p6
L41L
sVwidth
p7
L10L
sa(dp8
g6
L151L
sg7
L10L
sa(dp9
g6
L381L
sg7
L10L
sa(dp10
g6
L469L
sg7
L10L
sasVhhints
p11
(lp12
(dp13
g6
L-26L
sg7
L10L
sa(dp14
g6
L355L
sg7
L10L
sa(dp15
g6
L504L
sg7
L10L
sa(dp16
g6
L549L
sg7
L10L
sa(dp17
g6
L611L
sg7
L10L
sass."
EndChar

StartChar: uni0E08
Encoding: 3592 3592 134
GlifName: uni0E_08
Width: 590
VWidth: 0
GlyphClass: 2
Flags: HMW
AnchorPoint: "ThaiBelow.mark" 500 0 basechar 0
LayerCount: 2
Fore
SplineSet
70 434 m 1
 102 530 200 618 346 618 c 0
 471 618 547 555 547 461 c 0
 547 448 545 434 542 420 c 0
 510 268 435 198 412 90 c 2
 393 0 l 1
 301 0 l 1
 305 31 308 61 308 90 c 0
 308 143 300 190 285 226 c 1
 263 191 222 168 177 168 c 0
 125 168 92 197 92 242 c 0
 92 249 92 256 94 264 c 0
 106 321 158 360 218 360 c 0
 325 360 354 245 354 132 c 1
 379 236 429 289 457 420 c 0
 460 432 461 444 461 455 c 0
 461 522 411 554 333 554 c 0
 245 554 181 506 154 428 c 1
 70 434 l 1
186 212 m 0
 217 212 243 234 249 264 c 0
 250 268 250 272 250 276 c 0
 250 299 235 316 208 316 c 0
 177 316 151 294 145 264 c 0
 144 260 144 256 144 252 c 0
 144 229 159 212 186 212 c 0
EndSplineSet
PickledDataWithLists: "(dp0
Vcom.fontlab.hintData
p1
(dp2
Vvhints
p3
(lp4
(dp5
Vposition
p6
L31L
sVwidth
p7
L10L
sa(dp8
g6
L101L
sg7
L10L
sa(dp9
g6
L444L
sg7
L10L
sa(dp10
g6
L529L
sg7
L10L
sasVhhints
p11
(lp12
(dp13
g6
L-11L
sg7
L10L
sa(dp14
g6
L229L
sg7
L10L
sa(dp15
g6
L307L
sg7
L10L
sa(dp16
g6
L429L
sg7
L10L
sa(dp17
g6
L552L
sg7
L9L
sa(dp18
g6
L614L
sg7
L10L
sass."
EndChar

StartChar: uni0E09
Encoding: 3593 3593 135
GlifName: uni0E_09
Width: 645
VWidth: 0
GlyphClass: 2
Flags: HMW
LayerCount: 2
Fore
SplineSet
88 0 m 1
 112 114 l 2
 117 136 127 154 138 168 c 1
 136 168 133 168 131 168 c 0
 79 168 46 197 46 242 c 0
 46 249 46 256 48 264 c 0
 60 321 112 360 172 360 c 0
 224 360 257 331 257 286 c 0
 257 279 256 272 254 264 c 0
 243 210 210 189 199 135 c 2
 186 74 l 1
 249 128 333 182 435 187 c 1
 444 196 450 205 453 218 c 2
 495 412 l 2
 498 425 499 438 499 449 c 0
 499 519 447 554 363 554 c 0
 268 554 200 502 171 420 c 1
 88 426 l 1
 123 526 224 618 376 618 c 0
 506 618 584 554 584 456 c 0
 584 442 583 427 580 412 c 2
 541 232 l 2
 536 209 520 192 500 180 c 1
 534 171 555 146 555 110 c 0
 555 103 555 96 553 88 c 0
 541 31 489 -8 429 -8 c 0
 377 -8 344 21 344 66 c 0
 344 73 345 80 347 88 c 0
 350 102 355 115 362 126 c 1
 286 104 218 52 166 0 c 1
 88 0 l 1
461 140 m 0
 430 140 404 118 398 88 c 0
 397 84 396 80 396 76 c 0
 396 53 412 36 439 36 c 0
 470 36 496 58 502 88 c 0
 503 92 503 96 503 100 c 0
 503 123 488 140 461 140 c 0
162 316 m 0
 131 316 105 294 99 264 c 0
 98 260 98 256 98 252 c 0
 98 229 113 212 140 212 c 0
 171 212 197 234 203 264 c 0
 204 268 204 272 204 276 c 0
 204 299 189 316 162 316 c 0
EndSplineSet
PickledDataWithLists: "(dp0
Vcom.fontlab.hintData
p1
(dp2
Vvhints
p3
(lp4
(dp5
Vposition
p6
L33L
sVwidth
p7
L10L
sa(dp8
g6
L87L
sg7
L10L
sa(dp9
g6
L156L
sg7
L10L
sa(dp10
g6
L410L
sg7
L10L
sa(dp11
g6
L426L
sg7
L10L
sa(dp12
g6
L480L
sg7
L10L
sa(dp13
g6
L498L
sg7
L10L
sa(dp14
g6
L570L
sg7
L10L
sa(dp15
g6
L640L
sg7
L10L
sasVhhints
p16
(lp17
(dp18
g6
L-19L
sg7
L10L
sa(dp19
g6
L29L
sg7
L10L
sa(dp20
g6
L231L
sg7
L10L
sa(dp21
g6
L279L
sg7
L10L
sa(dp22
g6
L318L
sg7
L10L
sa(dp23
g6
L431L
sg7
L10L
sa(dp24
g6
L557L
sg7
L10L
sa(dp25
g6
L616L
sg7
L10L
sass."
EndChar

StartChar: uni0E0A
Encoding: 3594 3594 136
GlifName: uni0E_0A_
Width: 640
VWidth: 0
GlyphClass: 2
Flags: HMW
LayerCount: 2
Fore
SplineSet
178 528 m 0
 147 528 121 506 115 476 c 0
 114 472 114 468 114 464 c 0
 114 441 129 424 156 424 c 0
 187 424 213 446 219 476 c 0
 220 480 221 484 221 488 c 0
 221 511 205 528 178 528 c 0
410 479 m 1
 499 489 565 541 586 622 c 1
 669 615 l 1
 649 539 576 479 488 456 c 1
 534 444 567 420 567 379 c 0
 567 373 566 367 565 360 c 2
 525 174 l 2
 502 66 403 -18 271 -18 c 0
 156 -18 91 37 91 116 c 0
 91 127 93 138 95 149 c 0
 132 323 317 344 345 474 c 0
 347 482 347 489 347 496 c 0
 347 542 311 567 248 567 c 0
 240 567 232 567 225 566 c 1
 255 555 273 531 273 498 c 0
 273 491 272 484 270 476 c 0
 258 419 207 380 147 380 c 0
 95 380 62 409 62 454 c 0
 62 461 62 468 64 476 c 0
 79 548 155 612 265 612 c 0
 359 612 411 569 411 501 c 0
 411 494 411 486 410 479 c 1
396 432 m 1
 348 317 208 280 181 155 c 0
 179 146 178 137 178 129 c 0
 178 75 221 46 285 46 c 0
 358 46 422 87 440 174 c 2
 480 360 l 2
 481 365 481 371 481 376 c 0
 481 407 457 428 396 432 c 1
EndSplineSet
PickledDataWithLists: "(dp0
Vcom.fontlab.hintData
p1
(dp2
Vvhints
p3
(lp4
(dp5
Vposition
p6
L44L
sVwidth
p7
L10L
sa(dp8
g6
L186L
sg7
L10L
sa(dp9
g6
L197L
sg7
L10L
sa(dp10
g6
L268L
sg7
L10L
sa(dp11
g6
L279L
sg7
L10L
sa(dp12
g6
L473L
sg7
L10L
sa(dp13
g6
L555L
sg7
L10L
sa(dp14
g6
L586L
sg7
L10L
sasVhhints
p15
(lp16
(dp17
g6
L-29L
sg7
L10L
sa(dp18
g6
L29L
sg7
L10L
sa(dp19
g6
L437L
sg7
L10L
sa(dp20
g6
L599L
sg7
L10L
sa(dp21
g6
L644L
sg7
L10L
sass."
EndChar

StartChar: uni0E0B
Encoding: 3595 3595 137
GlifName: uni0E_0B_
Width: 640
VWidth: 0
GlyphClass: 2
Flags: HMW
LayerCount: 2
Fore
SplineSet
93 148 m 0
 130 322 320 350 350 490 c 0
 351 495 352 500 353 504 c 1
 315 448 258 405 173 405 c 0
 101 405 68 439 68 487 c 0
 68 495 69 503 71 512 c 0
 83 569 134 608 194 608 c 0
 246 608 279 579 279 534 c 0
 279 527 279 520 277 512 c 0
 272 490 262 471 248 456 c 1
 301 484 342 541 364 599 c 1
 398 603 l 1
 406 583 415 559 415 526 c 0
 415 512 414 497 410 480 c 0
 410 479 l 1
 499 490 564 541 585 622 c 1
 668 615 l 1
 648 539 575 479 487 456 c 1
 533 444 566 420 566 379 c 0
 566 373 565 367 564 360 c 2
 524 173 l 2
 501 65 403 -18 271 -18 c 0
 156 -18 90 36 90 115 c 0
 90 125 91 137 93 148 c 0
185 564 m 0
 154 564 128 542 122 512 c 0
 121 508 120 504 120 500 c 0
 120 477 136 460 163 460 c 0
 194 460 220 482 226 512 c 0
 227 516 227 520 227 524 c 0
 227 547 212 564 185 564 c 0
479 360 m 2
 480 365 480 371 480 376 c 0
 480 407 456 428 394 432 c 1
 341 323 206 276 180 154 c 0
 178 145 177 137 177 129 c 0
 177 75 220 46 285 46 c 0
 358 46 421 86 439 173 c 2
 479 360 l 2
EndSplineSet
PickledDataWithLists: "(dp0
Vcom.fontlab.hintData
p1
(dp2
Vvhints
p3
(lp4
(dp5
Vposition
p6
L11L
sVwidth
p7
L10L
sa(dp8
g6
L199L
sg7
L10L
sa(dp9
g6
L226L
sg7
L10L
sa(dp10
g6
L278L
sg7
L10L
sa(dp11
g6
L296L
sg7
L10L
sa(dp12
g6
L474L
sg7
L10L
sa(dp13
g6
L556L
sg7
L10L
sa(dp14
g6
L586L
sg7
L10L
sasVhhints
p15
(lp16
(dp17
g6
L-24L
sg7
L10L
sa(dp18
g6
L34L
sg7
L10L
sa(dp19
g6
L398L
sg7
L10L
sa(dp20
g6
L603L
sg7
L10L
sa(dp21
g6
L608L
sg7
L10L
sa(dp22
g6
L644L
sg7
L10L
sass."
EndChar

StartChar: uni0E0C
Encoding: 3596 3596 138
GlifName: uni0E_0C_
Width: 950
VWidth: 0
GlyphClass: 2
Flags: HMW
LayerCount: 2
Fore
SplineSet
168 140 m 0
 137 140 111 118 105 88 c 0
 104 84 103 80 103 76 c 0
 103 53 119 36 146 36 c 0
 177 36 203 58 209 88 c 0
 210 92 210 96 210 100 c 0
 210 123 195 140 168 140 c 0
177 184 m 0
 229 184 262 155 262 110 c 0
 262 103 262 96 260 88 c 0
 248 31 196 -8 136 -8 c 0
 84 -8 51 21 51 66 c 0
 51 73 52 80 54 88 c 0
 64 134 84 166 93 210 c 2
 111 297 l 2
 122 350 155 382 202 396 c 1
 86 419 l 1
 122 523 228 618 386 618 c 0
 522 618 603 550 603 449 c 0
 603 434 601 419 598 403 c 2
 558 218 l 2
 555 203 554 190 554 179 c 1
 642 169 696 123 731 75 c 1
 736 105 742 140 748 170 c 2
 840 600 l 1
 925 600 l 1
 797 0 l 1
 719 0 l 1
 687 58 638 113 557 127 c 1
 557 116 556 103 553 88 c 0
 541 31 489 -8 429 -8 c 0
 377 -8 344 21 344 66 c 0
 344 73 345 80 347 88 c 0
 359 145 410 184 470 184 c 0
 473 184 477 184 480 184 c 1
 477 193 475 203 475 215 c 0
 475 223 476 231 478 240 c 2
 513 403 l 2
 516 417 517 430 517 442 c 0
 517 517 462 554 373 554 c 0
 284 554 217 510 182 441 c 1
 326 411 l 1
 309 374 l 2
 306 374 288 377 278 377 c 0
 235 377 208 353 198 305 c 2
 184 240 l 2
 179 217 171 198 161 183 c 1
 166 184 171 184 177 184 c 0
461 140 m 0
 430 140 404 118 398 88 c 0
 397 84 396 80 396 76 c 0
 396 53 412 36 439 36 c 0
 470 36 496 58 502 88 c 0
 503 92 503 96 503 100 c 0
 503 123 488 140 461 140 c 0
EndSplineSet
PickledDataWithLists: "(dp0
Vcom.fontlab.hintData
p1
(dp2
Vvhints
p3
(lp4
(dp5
Vposition
p6
L84L
sVwidth
p7
L10L
sa(dp8
g6
L93L
sg7
L10L
sa(dp9
g6
L114L
sg7
L10L
sa(dp10
g6
L166L
sg7
L10L
sa(dp11
g6
L196L
sg7
L10L
sa(dp12
g6
L343L
sg7
L10L
sa(dp13
g6
L414L
sg7
L10L
sa(dp14
g6
L502L
sg7
L10L
sa(dp15
g6
L507L
sg7
L10L
sa(dp16
g6
L576L
sg7
L10L
sa(dp17
g6
L780L
sg7
L10L
sa(dp18
g6
L789L
sg7
L10L
sa(dp19
g6
L861L
sg7
L10L
sa(dp20
g6
L871L
sg7
L10L
sasVhhints
p21
(lp22
(dp23
g6
L-26L
sg7
L10L
sa(dp24
g6
L-17L
sg7
L10L
sa(dp25
g6
L41L
sg7
L10L
sa(dp26
g6
L234L
sg7
L10L
sa(dp27
g6
L286L
sg7
L10L
sa(dp28
g6
L546L
sg7
L10L
sa(dp29
g6
L593L
sg7
L10L
sa(dp30
g6
L604L
sg7
L10L
sass."
EndChar

StartChar: uni0E0D
Encoding: 3597 3597 139
GlifName: uni0E_0D_
Width: 950
VWidth: 0
GlyphClass: 2
Flags: HMW
LayerCount: 2
Fore
SplineSet
168 140 m 0
 137 140 111 118 105 88 c 0
 104 84 103 80 103 76 c 0
 103 53 119 36 146 36 c 0
 177 36 203 58 209 88 c 0
 210 92 210 96 210 100 c 0
 210 123 195 140 168 140 c 0
177 184 m 0
 229 184 262 155 262 110 c 0
 262 103 262 96 260 88 c 0
 248 31 196 -8 136 -8 c 0
 84 -8 51 21 51 66 c 0
 51 73 52 80 54 88 c 0
 64 134 84 166 93 210 c 2
 111 297 l 2
 122 350 155 382 202 396 c 1
 86 419 l 1
 122 523 228 618 386 618 c 0
 522 618 603 550 603 449 c 0
 603 434 601 419 598 403 c 2
 544 150 l 2
 542 139 540 129 540 120 c 0
 540 69 575 46 624 46 c 0
 682 46 734 78 749 150 c 2
 845 600 l 1
 930 600 l 1
 834 150 l 2
 814 56 726 -18 610 -18 c 0
 510 -18 455 37 455 113 c 0
 455 125 456 137 459 150 c 2
 513 403 l 2
 516 417 517 430 517 442 c 0
 517 517 462 554 373 554 c 0
 284 554 217 510 182 441 c 1
 326 411 l 1
 309 374 l 2
 306 374 288 377 278 377 c 0
 235 377 208 353 198 305 c 2
 184 240 l 2
 179 217 171 198 161 183 c 1
 166 184 171 184 177 184 c 0
494 -109 m 0
 470 -109 449 -126 444 -150 c 0
 443 -153 443 -157 443 -160 c 0
 443 -179 455 -191 476 -191 c 0
 500 -191 521 -174 526 -150 c 0
 527 -147 527 -143 527 -140 c 0
 527 -121 515 -109 494 -109 c 0
502 -71 m 0
 545 -71 572 -94 572 -131 c 0
 572 -137 571 -143 570 -150 c 0
 564 -176 550 -197 529 -211 c 1
 535 -211 541 -211 547 -211 c 2
 572 -211 l 2
 636 -211 694 -178 714 -84 c 1
 778 -91 l 1
 756 -193 673 -254 573 -254 c 2
 518 -254 l 2
 442 -254 398 -224 398 -172 c 0
 398 -165 398 -158 400 -150 c 0
 410 -102 452 -71 502 -71 c 0
EndSplineSet
PickledDataWithLists: "(dp0
Vcom.fontlab.hintData
p1
(dp2
Vvhints
p3
(lp4
(dp5
Vposition
p6
L81L
sVwidth
p7
L10L
sa(dp8
g6
L101L
sg7
L10L
sa(dp9
g6
L169L
sg7
L10L
sa(dp10
g6
L189L
sg7
L10L
sa(dp11
g6
L315L
sg7
L10L
sa(dp12
g6
L471L
sg7
L10L
sa(dp13
g6
L476L
sg7
L10L
sa(dp14
g6
L513L
sg7
L10L
sa(dp15
g6
L559L
sg7
L10L
sa(dp16
g6
L564L
sg7
L10L
sa(dp17
g6
L591L
sg7
L10L
sa(dp18
g6
L771L
sg7
L10L
sa(dp19
g6
L781L
sg7
L10L
sa(dp20
g6
L859L
sg7
L10L
sa(dp21
g6
L869L
sg7
L10L
sa(dp22
g6
L879L
sg7
L10L
sasVhhints
p23
(lp24
(dp25
g6
L-252L
sg7
L10L
sa(dp26
g6
L-197L
sg7
L10L
sa(dp27
g6
L-98L
sg7
L10L
sa(dp28
g6
L-19L
sg7
L10L
sa(dp29
g6
L43L
sg7
L10L
sa(dp30
g6
L56L
sg7
L10L
sa(dp31
g6
L544L
sg7
L10L
sa(dp32
g6
L595L
sg7
L10L
sa(dp33
g6
L606L
sg7
L10L
sass."
Substitution2: "ThaiRC.rd subtable" uni0E0D.rd
Colour: ff00ff
EndChar

StartChar: uni0E0D.rd
Encoding: 63642 63642 140
GlifName: uni0E_0D_.rd
Width: 950
VWidth: 0
GlyphClass: 2
Flags: HMW
LayerCount: 2
Fore
SplineSet
168 140 m 0
 137 140 111 118 105 88 c 0
 104 84 103 80 103 76 c 0
 103 53 119 36 146 36 c 0
 177 36 203 58 209 88 c 0
 210 92 210 96 210 100 c 0
 210 123 195 140 168 140 c 0
177 184 m 0
 229 184 262 155 262 110 c 0
 262 103 262 96 260 88 c 0
 248 31 196 -8 136 -8 c 0
 84 -8 51 21 51 66 c 0
 51 73 52 80 54 88 c 0
 64 134 84 166 93 210 c 2
 111 297 l 2
 122 350 155 382 202 396 c 1
 86 419 l 1
 122 523 228 618 386 618 c 0
 522 618 603 550 603 449 c 0
 603 434 601 419 598 403 c 2
 544 150 l 2
 542 139 540 129 540 120 c 0
 540 69 575 46 624 46 c 0
 682 46 734 78 749 150 c 2
 845 600 l 1
 930 600 l 1
 834 150 l 2
 814 56 726 -18 610 -18 c 0
 510 -18 455 37 455 113 c 0
 455 125 456 137 459 150 c 2
 513 403 l 2
 516 417 517 430 517 442 c 0
 517 517 462 554 373 554 c 0
 284 554 217 510 182 441 c 1
 326 411 l 1
 309 374 l 2
 306 374 288 377 278 377 c 0
 235 377 208 353 198 305 c 2
 184 240 l 2
 179 217 171 198 161 183 c 1
 166 184 171 184 177 184 c 0
EndSplineSet
PickledDataWithLists: "(dp0
Vcom.fontlab.hintData
p1
(dp2
Vvhints
p3
(lp4
(dp5
Vposition
p6
L81L
sVwidth
p7
L10L
sa(dp8
g6
L101L
sg7
L10L
sa(dp9
g6
L169L
sg7
L10L
sa(dp10
g6
L189L
sg7
L10L
sa(dp11
g6
L315L
sg7
L10L
sa(dp12
g6
L471L
sg7
L10L
sa(dp13
g6
L476L
sg7
L10L
sa(dp14
g6
L559L
sg7
L10L
sa(dp15
g6
L564L
sg7
L10L
sa(dp16
g6
L771L
sg7
L10L
sa(dp17
g6
L781L
sg7
L10L
sa(dp18
g6
L859L
sg7
L10L
sa(dp19
g6
L869L
sg7
L10L
sasVhhints
p20
(lp21
(dp22
g6
L-19L
sg7
L10L
sa(dp23
g6
L43L
sg7
L10L
sa(dp24
g6
L56L
sg7
L10L
sa(dp25
g6
L544L
sg7
L10L
sa(dp26
g6
L595L
sg7
L10L
sa(dp27
g6
L606L
sg7
L10L
sass."
EndChar

StartChar: uni0E0E
Encoding: 3598 3598 141
GlifName: uni0E_0E_
Width: 665
VWidth: 0
GlyphClass: 2
Flags: HMW
LayerCount: 2
Fore
SplineSet
170 -111 m 1
 159 -109 150 -108 141 -108 c 0
 115 -108 86 -123 79 -157 c 0
 78 -161 77 -165 77 -169 c 0
 77 -193 95 -206 117 -206 c 0
 147 -206 174 -185 180 -157 c 0
 181 -152 181 -147 181 -142 c 0
 181 -129 177 -118 170 -111 c 1
396 618 m 0
 532 618 613 550 613 449 c 0
 613 434 611 419 608 403 c 2
 505 -80 l 1
 472 -235 l 1
 395 -235 l 1
 347 -197 283 -153 223 -128 c 1
 225 -136 225 -146 223 -157 c 0
 214 -201 168 -246 106 -246 c 0
 56 -246 25 -218 25 -177 c 0
 25 -171 27 -164 28 -157 c 0
 39 -103 88 -68 147 -68 c 0
 229 -68 326 -125 402 -179 c 1
 405 -154 411 -121 420 -80 c 2
 523 403 l 2
 526 417 527 430 527 442 c 0
 527 517 472 554 383 554 c 0
 294 554 229 511 193 442 c 1
 361 411 l 1
 344 374 l 2
 341 374 323 377 313 377 c 0
 270 377 243 353 233 305 c 2
 213 210 l 2
 210 196 209 183 209 170 c 0
 209 156 210 144 210 130 c 0
 210 117 209 103 206 88 c 0
 194 31 142 -8 82 -8 c 0
 30 -8 -3 21 -3 66 c 0
 -3 73 -2 80 -0 88 c 0
 12 145 63 184 123 184 c 0
 127 184 130 184 134 184 c 1
 132 192 131 201 131 211 c 0
 131 220 132 230 134 240 c 2
 146 297 l 2
 157 349 190 381 236 395 c 1
 96 419 l 1
 132 523 238 618 396 618 c 0
114 140 m 0
 83 140 57 118 51 88 c 0
 50 84 49 80 49 76 c 0
 49 53 65 36 92 36 c 0
 123 36 149 58 155 88 c 0
 156 92 156 96 156 100 c 0
 156 123 141 140 114 140 c 0
EndSplineSet
PickledDataWithLists: "(dp0
Vcom.fontlab.hintData
p1
(dp2
Vvhints
p3
(lp4
(dp5
Vposition
p6
L26L
sVwidth
p7
L10L
sa(dp8
g6
L81L
sg7
L10L
sa(dp9
g6
L126L
sg7
L10L
sa(dp10
g6
L219L
sg7
L10L
sa(dp11
g6
L470L
sg7
L10L
sa(dp12
g6
L476L
sg7
L10L
sa(dp13
g6
L556L
sg7
L10L
sa(dp14
g6
L564L
sg7
L10L
sasVhhints
p15
(lp16
(dp17
g6
L-242L
sg7
L10L
sa(dp18
g6
L-235L
sg7
L10L
sa(dp19
g6
L-137L
sg7
L10L
sa(dp20
g6
L-87L
sg7
L10L
sa(dp21
g6
L-16L
sg7
L10L
sa(dp22
g6
L66L
sg7
L10L
sa(dp23
g6
L544L
sg7
L10L
sa(dp24
g6
L606L
sg7
L10L
sass."
EndChar

StartChar: uni0E0F
Encoding: 3599 3599 142
GlifName: uni0E_0F_
Width: 665
VWidth: 0
GlyphClass: 2
Flags: HMW
LayerCount: 2
Fore
SplineSet
114 140 m 0
 83 140 57 118 51 88 c 0
 50 84 49 80 49 76 c 0
 49 53 65 36 92 36 c 0
 123 36 149 58 155 88 c 0
 156 92 156 96 156 100 c 0
 156 123 141 140 114 140 c 0
396 618 m 0
 532 618 613 550 613 449 c 0
 613 434 611 419 608 403 c 2
 505 -80 l 1
 472 -235 l 1
 395 -235 l 1
 288 -134 l 1
 273 -154 250 -178 222 -199 c 0
 186 -225 141 -246 95 -246 c 0
 44 -246 11 -219 11 -177 c 0
 11 -171 12 -164 14 -157 c 0
 25 -105 72 -68 130 -68 c 0
 184 -68 210 -102 210 -140 c 0
 210 -146 210 -151 209 -157 c 0
 208 -160 207 -163 207 -165 c 1
 240 -137 265 -97 275 -80 c 1
 302 -80 l 1
 402 -178 l 1
 405 -153 411 -120 420 -80 c 2
 523 403 l 2
 526 417 527 430 527 442 c 0
 527 517 472 554 383 554 c 0
 294 554 229 511 193 442 c 1
 361 411 l 1
 344 374 l 2
 341 374 323 377 313 377 c 0
 270 377 243 353 233 305 c 2
 213 210 l 2
 210 196 209 183 209 170 c 0
 209 156 210 144 210 130 c 0
 210 117 209 103 206 88 c 0
 194 31 142 -8 82 -8 c 0
 30 -8 -3 21 -3 66 c 0
 -3 73 -2 80 -0 88 c 0
 12 145 63 184 123 184 c 0
 127 184 130 184 134 184 c 1
 132 192 131 201 131 211 c 0
 131 220 132 230 134 240 c 2
 146 297 l 2
 157 349 190 381 236 395 c 1
 96 419 l 1
 132 523 238 618 396 618 c 0
65 -157 m 0
 64 -161 63 -165 63 -169 c 0
 63 -194 82 -206 105 -206 c 0
 116 -206 127 -205 138 -202 c 1
 150 -192 162 -177 166 -157 c 0
 167 -153 167 -149 167 -146 c 0
 167 -123 150 -108 124 -108 c 0
 99 -108 72 -125 65 -157 c 0
EndSplineSet
PickledDataWithLists: "(dp0
Vcom.fontlab.hintData
p1
(dp2
Vvhints
p3
(lp4
(dp5
Vposition
p6
L26L
sVwidth
p7
L10L
sa(dp8
g6
L81L
sg7
L10L
sa(dp9
g6
L97L
sg7
L10L
sa(dp10
g6
L131L
sg7
L10L
sa(dp11
g6
L166L
sg7
L10L
sa(dp12
g6
L179L
sg7
L10L
sa(dp13
g6
L221L
sg7
L10L
sa(dp14
g6
L470L
sg7
L10L
sa(dp15
g6
L476L
sg7
L10L
sa(dp16
g6
L553L
sg7
L10L
sa(dp17
g6
L564L
sg7
L10L
sasVhhints
p18
(lp19
(dp20
g6
L-240L
sg7
L10L
sa(dp21
g6
L-234L
sg7
L10L
sa(dp22
g6
L-191L
sg7
L10L
sa(dp23
g6
L-88L
sg7
L10L
sa(dp24
g6
L-83L
sg7
L10L
sa(dp25
g6
L-16L
sg7
L10L
sa(dp26
g6
L66L
sg7
L10L
sa(dp27
g6
L544L
sg7
L10L
sa(dp28
g6
L606L
sg7
L10L
sass."
EndChar

StartChar: uni0E10
Encoding: 3600 3600 143
GlifName: uni0E_10
Width: 555
VWidth: 0
GlyphClass: 2
Flags: HMW
AnchorPoint: "ThaiTone.mark" 475 0 basechar 0
AnchorPoint: "ThaiAbove.mark" 515 0 basechar 0
LayerCount: 2
Fore
SplineSet
161 286 m 0
 130 286 104 264 98 234 c 0
 97 230 96 226 96 222 c 0
 96 199 112 182 139 182 c 0
 170 182 196 204 202 234 c 0
 203 238 203 242 203 246 c 0
 203 269 188 286 161 286 c 0
170 330 m 0
 281 330 310 211 310 104 c 1
 327 167 370 234 384 300 c 0
 385 306 386 312 386 317 c 0
 386 381 295 408 84 408 c 1
 88 428 l 2
 112 543 213 618 333 618 c 0
 415 618 460 583 483 553 c 1
 486 558 488 563 491 566 c 2
 529 612 l 1
 591 600 l 1
 590 596 l 1
 488 492 l 1
 461 492 l 1
 450 515 416 560 334 560 c 0
 266 560 199 527 173 449 c 1
 361 443 470 415 470 333 c 0
 470 326 470 318 468 310 c 0
 450 227 382 140 365 60 c 2
 352 0 l 1
 261 0 l 1
 265 25 266 50 266 74 c 0
 266 124 259 170 243 206 c 1
 222 165 178 138 129 138 c 0
 77 138 44 167 44 212 c 0
 44 219 45 226 47 234 c 0
 59 291 110 330 170 330 c 0
30 -157 m 0
 29 -161 28 -165 28 -169 c 0
 28 -194 47 -206 70 -206 c 0
 81 -206 92 -205 103 -202 c 1
 115 -192 127 -177 131 -157 c 0
 132 -153 132 -149 132 -146 c 0
 132 -123 115 -108 89 -108 c 0
 64 -108 37 -125 30 -157 c 0
172 -165 m 1
 205 -137 230 -97 240 -80 c 1
 267 -80 l 1
 338 -171 l 1
 342 -147 347 -117 355 -80 c 1
 420 -80 l 1
 387 -235 l 1
 330 -235 l 1
 250 -136 l 1
 235 -156 214 -179 187 -199 c 0
 151 -225 106 -246 60 -246 c 0
 9 -246 -24 -219 -24 -177 c 0
 -24 -171 -23 -164 -21 -157 c 0
 -10 -105 37 -68 95 -68 c 0
 149 -68 175 -102 175 -140 c 0
 175 -146 175 -151 174 -157 c 0
 173 -160 172 -163 172 -165 c 1
EndSplineSet
PickledDataWithLists: "(dp0
Vcom.fontlab.hintData
p1
(dp2
Vvhints
p3
(lp4
(dp5
Vposition
p6
L30L
sVwidth
p7
L10L
sa(dp8
g6
L80L
sg7
L10L
sa(dp9
g6
L89L
sg7
L10L
sa(dp10
g6
L110L
sg7
L10L
sa(dp11
g6
L149L
sg7
L10L
sa(dp12
g6
L160L
sg7
L10L
sa(dp13
g6
L434L
sg7
L10L
sa(dp14
g6
L504L
sg7
L10L
sa(dp15
g6
L510L
sg7
L10L
sa(dp16
g6
L516L
sg7
L10L
sa(dp17
g6
L569L
sg7
L10L
sasVhhints
p18
(lp19
(dp20
g6
L-237L
sg7
L10L
sa(dp21
g6
L-229L
sg7
L10L
sa(dp22
g6
L-189L
sg7
L10L
sa(dp23
g6
L-92L
sg7
L10L
sa(dp24
g6
L-87L
sg7
L10L
sa(dp25
g6
L-72L
sg7
L10L
sa(dp26
g6
L-9L
sg7
L10L
sa(dp27
g6
L197L
sg7
L10L
sa(dp28
g6
L215L
sg7
L10L
sa(dp29
g6
L272L
sg7
L10L
sa(dp30
g6
L366L
sg7
L10L
sa(dp31
g6
L420L
sg7
L10L
sa(dp32
g6
L558L
sg7
L10L
sa(dp33
g6
L612L
sg7
L10L
sa(dp34
g6
L652L
sg7
L10L
sass."
Substitution2: "ThaiRC.rd subtable" uni0E10.rd
Colour: ff00ff
EndChar

StartChar: uni0E10.rd
Encoding: 63646 63646 144
GlifName: uni0E_10.rd
Width: 555
VWidth: 0
GlyphClass: 2
Flags: HMW
AnchorPoint: "ThaiBelow.mark" 450 0 basechar 0
AnchorPoint: "ThaiTone.mark" 475 0 basechar 0
AnchorPoint: "ThaiAbove.mark" 515 0 basechar 0
LayerCount: 2
Fore
SplineSet
161 286 m 0
 130 286 104 264 98 234 c 0
 97 230 96 226 96 222 c 0
 96 199 112 182 139 182 c 0
 170 182 196 204 202 234 c 0
 203 238 203 242 203 246 c 0
 203 269 188 286 161 286 c 0
170 330 m 0
 281 330 310 211 310 104 c 1
 327 167 370 234 384 300 c 0
 385 306 386 312 386 317 c 0
 386 381 295 408 84 408 c 1
 88 428 l 2
 112 543 213 618 333 618 c 0
 415 618 460 583 483 553 c 1
 486 558 488 563 491 566 c 2
 529 612 l 1
 591 600 l 1
 590 596 l 1
 488 492 l 1
 461 492 l 1
 450 515 416 560 334 560 c 0
 266 560 199 527 173 449 c 1
 361 443 470 415 470 333 c 0
 470 326 470 318 468 310 c 0
 450 227 382 140 365 60 c 2
 352 0 l 1
 261 0 l 1
 265 25 266 50 266 74 c 0
 266 124 259 170 243 206 c 1
 222 165 178 138 129 138 c 0
 77 138 44 167 44 212 c 0
 44 219 45 226 47 234 c 0
 59 291 110 330 170 330 c 0
EndSplineSet
PickledDataWithLists: "(dp0
Vcom.fontlab.hintData
p1
(dp2
Vvhints
p3
(lp4
(dp5
Vposition
p6
L30L
sVwidth
p7
L10L
sa(dp8
g6
L89L
sg7
L10L
sa(dp9
g6
L110L
sg7
L10L
sa(dp10
g6
L430L
sg7
L10L
sa(dp11
g6
L510L
sg7
L10L
sa(dp12
g6
L569L
sg7
L10L
sasVhhints
p13
(lp14
(dp15
g6
L-9L
sg7
L10L
sa(dp16
g6
L197L
sg7
L10L
sa(dp17
g6
L215L
sg7
L10L
sa(dp18
g6
L272L
sg7
L10L
sa(dp19
g6
L366L
sg7
L10L
sa(dp20
g6
L420L
sg7
L10L
sa(dp21
g6
L558L
sg7
L10L
sa(dp22
g6
L612L
sg7
L10L
sa(dp23
g6
L652L
sg7
L10L
sass."
EndChar

StartChar: uni0E11
Encoding: 3601 3601 145
GlifName: uni0E_11
Width: 665
VWidth: 0
GlyphClass: 2
Flags: HMW
LayerCount: 2
Fore
SplineSet
186 564 m 0
 155 564 129 542 123 512 c 0
 122 508 121 504 121 500 c 0
 121 477 137 460 164 460 c 0
 195 460 221 482 227 512 c 0
 228 516 228 520 228 524 c 0
 228 547 213 564 186 564 c 0
195 608 m 0
 247 608 280 579 280 534 c 0
 280 527 280 520 278 512 c 0
 273 490 263 471 249 456 c 1
 302 484 343 541 365 599 c 1
 398 603 l 1
 406 584 415 560 415 527 c 0
 415 521 415 514 414 507 c 1
 460 560 515 608 562 608 c 0
 614 608 628 574 628 537 c 0
 628 521 625 504 622 490 c 2
 518 0 l 1
 433 0 l 1
 534 476 l 2
 536 487 538 497 538 506 c 0
 538 524 532 536 517 537 c 1
 485 530 427 469 390 424 c 1
 338 321 221 273 196 155 c 2
 163 0 l 1
 78 0 l 1
 110 149 l 2
 147 323 321 350 351 490 c 0
 352 495 353 500 354 504 c 1
 316 448 259 405 174 405 c 0
 102 405 69 439 69 487 c 0
 69 495 70 503 72 512 c 0
 84 569 135 608 195 608 c 0
EndSplineSet
PickledDataWithLists: "(dp0
Vcom.fontlab.hintData
p1
(dp2
Vvhints
p3
(lp4
(dp5
Vposition
p6
L11L
sVwidth
p7
L10L
sa(dp8
g6
L161L
sg7
L10L
sa(dp9
g6
L235L
sg7
L10L
sa(dp10
g6
L283L
sg7
L10L
sa(dp11
g6
L524L
sg7
L10L
sa(dp12
g6
L529L
sg7
L10L
sa(dp13
g6
L606L
sg7
L10L
sa(dp14
g6
L608L
sg7
L10L
sasVhhints
p15
(lp16
(dp17
g6
L-15L
sg7
L10L
sa(dp18
g6
L-8L
sg7
L10L
sa(dp19
g6
L398L
sg7
L10L
sa(dp20
g6
L602L
sg7
L10L
sa(dp21
g6
L611L
sg7
L10L
sass."
EndChar

StartChar: uni0E12
Encoding: 3602 3602 146
GlifName: uni0E_12
Width: 960
VWidth: 0
GlyphClass: 2
Flags: HMW
LayerCount: 2
Fore
SplineSet
349 373 m 0
 318 373 292 351 286 321 c 0
 285 317 285 313 285 309 c 0
 285 286 300 269 327 269 c 0
 358 269 384 291 390 321 c 0
 391 325 392 329 392 333 c 0
 392 356 376 373 349 373 c 0
472 140 m 0
 441 140 415 118 409 88 c 0
 408 84 407 80 407 76 c 0
 407 53 423 36 450 36 c 0
 481 36 507 58 513 88 c 0
 514 92 514 96 514 100 c 0
 514 123 499 140 472 140 c 0
309 612 m 1
 383 530 l 1
 491 612 l 1
 590 612 617 543 617 473 c 0
 617 449 614 425 609 403 c 2
 569 218 l 2
 566 203 565 190 565 179 c 1
 653 169 707 123 742 75 c 1
 747 105 753 140 759 170 c 2
 851 600 l 1
 936 600 l 1
 808 0 l 1
 730 0 l 1
 698 58 649 113 568 127 c 1
 568 116 567 103 564 88 c 0
 552 31 500 -8 440 -8 c 0
 388 -8 355 21 355 66 c 0
 355 73 356 80 358 88 c 0
 370 145 421 184 481 184 c 0
 485 184 489 183 493 183 c 1
 490 191 489 200 489 211 c 0
 489 220 490 230 492 240 c 2
 527 403 l 2
 532 428 535 450 535 469 c 0
 535 518 517 547 485 551 c 1
 381 477 l 1
 371 477 l 1
 361 477 l 1
 289 551 l 1
 241 545 202 492 183 403 c 0
 152 257 166 224 151 155 c 2
 136 84 l 1
 198 144 281 178 338 227 c 1
 331 226 325 225 318 225 c 0
 266 225 233 254 233 299 c 0
 233 306 233 313 235 321 c 0
 247 378 299 417 359 417 c 0
 411 417 444 388 444 343 c 0
 444 336 443 329 441 321 c 0
 407 163 191 124 130 0 c 1
 33 0 l 1
 33 0 59 73 69 120 c 0
 91 224 71 249 104 403 c 0
 122 487 176 612 309 612 c 1
EndSplineSet
PickledDataWithLists: "(dp0
Vcom.fontlab.hintData
p1
(dp2
Vvhints
p3
(lp4
(dp5
Vposition
p6
L64L
sVwidth
p7
L10L
sa(dp8
g6
L146L
sg7
L10L
sa(dp9
g6
L322L
sg7
L10L
sa(dp10
g6
L328L
sg7
L10L
sa(dp11
g6
L375L
sg7
L10L
sa(dp12
g6
L445L
sg7
L10L
sa(dp13
g6
L535L
sg7
L10L
sa(dp14
g6
L605L
sg7
L10L
sa(dp15
g6
L781L
sg7
L10L
sa(dp16
g6
L789L
sg7
L10L
sa(dp17
g6
L861L
sg7
L10L
sa(dp18
g6
L871L
sg7
L10L
sasVhhints
p19
(lp20
(dp21
g6
L-19L
sg7
L10L
sa(dp22
g6
L-15L
sg7
L10L
sa(dp23
g6
L37L
sg7
L10L
sa(dp24
g6
L241L
sg7
L10L
sa(dp25
g6
L289L
sg7
L10L
sa(dp26
g6
L412L
sg7
L10L
sa(dp27
g6
L546L
sg7
L10L
sa(dp28
g6
L587L
sg7
L10L
sa(dp29
g6
L593L
sg7
L10L
sa(dp30
g6
L603L
sg7
L10L
sass."
EndChar

StartChar: uni0E13
Encoding: 3603 3603 147
GlifName: uni0E_13
Width: 960
VWidth: 0
GlyphClass: 2
Flags: HMW
LayerCount: 2
Fore
SplineSet
168 140 m 0
 137 140 111 118 105 88 c 0
 104 84 103 80 103 76 c 0
 103 53 119 36 146 36 c 0
 177 36 203 58 209 88 c 0
 210 92 210 96 210 100 c 0
 210 123 195 140 168 140 c 0
177 184 m 0
 229 184 262 155 262 110 c 0
 262 103 262 96 260 88 c 0
 248 31 196 -8 136 -8 c 0
 84 -8 51 21 51 66 c 0
 51 73 52 80 54 88 c 0
 64 134 84 166 93 210 c 2
 111 297 l 2
 122 350 155 382 202 396 c 1
 86 419 l 1
 122 523 228 618 386 618 c 0
 522 618 603 550 603 449 c 0
 603 434 601 419 598 403 c 2
 548 170 l 2
 542 143 535 112 528 84 c 1
 584 136 656 182 745 187 c 1
 754 196 760 205 763 218 c 2
 845 600 l 1
 930 600 l 1
 851 232 l 2
 846 209 830 192 810 180 c 1
 844 171 865 146 865 110 c 0
 865 103 865 96 863 88 c 0
 851 31 799 -8 739 -8 c 0
 687 -8 654 21 654 66 c 0
 654 73 655 80 657 88 c 0
 660 101 664 113 670 124 c 1
 606 102 549 54 505 0 c 1
 427 0 l 1
 513 403 l 2
 516 417 517 430 517 442 c 0
 517 517 462 554 373 554 c 0
 284 554 217 510 182 441 c 1
 326 411 l 1
 309 374 l 2
 306 374 288 377 278 377 c 0
 235 377 208 353 198 305 c 2
 184 240 l 2
 179 217 171 198 161 183 c 1
 166 184 171 184 177 184 c 0
771 140 m 0
 740 140 714 118 708 88 c 0
 707 84 706 80 706 76 c 0
 706 53 722 36 749 36 c 0
 780 36 806 58 812 88 c 0
 813 92 813 96 813 100 c 0
 813 123 798 140 771 140 c 0
EndSplineSet
PickledDataWithLists: "(dp0
Vcom.fontlab.hintData
p1
(dp2
Vvhints
p3
(lp4
(dp5
Vposition
p6
L84L
sVwidth
p7
L10L
sa(dp8
g6
L104L
sg7
L10L
sa(dp9
g6
L166L
sg7
L10L
sa(dp10
g6
L186L
sg7
L10L
sa(dp11
g6
L311L
sg7
L10L
sa(dp12
g6
L454L
sg7
L10L
sa(dp13
g6
L469L
sg7
L10L
sa(dp14
g6
L540L
sg7
L10L
sa(dp15
g6
L551L
sg7
L10L
sa(dp16
g6
L709L
sg7
L10L
sa(dp17
g6
L780L
sg7
L10L
sa(dp18
g6
L816L
sg7
L10L
sa(dp19
g6
L865L
sg7
L10L
sa(dp20
g6
L935L
sg7
L10L
sasVhhints
p21
(lp22
(dp23
g6
L-17L
sg7
L10L
sa(dp24
g6
L29L
sg7
L10L
sa(dp25
g6
L41L
sg7
L10L
sa(dp26
g6
L54L
sg7
L10L
sa(dp27
g6
L241L
sg7
L10L
sa(dp28
g6
L289L
sg7
L10L
sa(dp29
g6
L546L
sg7
L10L
sa(dp30
g6
L594L
sg7
L10L
sa(dp31
g6
L604L
sg7
L10L
sass."
EndChar

StartChar: uni0E14
Encoding: 3604 3604 148
GlifName: uni0E_14
Width: 665
VWidth: 0
GlyphClass: 2
Flags: HMW
LayerCount: 2
Fore
SplineSet
438 0 m 1
 460 105 l 2
 469 145 507 307 527 403 c 0
 530 417 531 430 531 442 c 0
 531 516 476 554 388 554 c 0
 286 554 204 503 183 403 c 0
 152 257 166 224 151 155 c 2
 136 84 l 1
 198 144 281 178 338 227 c 1
 331 226 325 225 318 225 c 0
 266 225 233 254 233 299 c 0
 233 306 233 313 235 321 c 0
 247 378 299 417 359 417 c 0
 411 417 444 388 444 343 c 0
 444 336 443 329 441 321 c 0
 407 163 191 124 130 0 c 1
 33 0 l 1
 33 0 59 73 69 120 c 0
 91 224 71 249 104 403 c 0
 131 529 248 618 401 618 c 0
 535 618 614 550 614 449 c 0
 614 434 612 419 609 403 c 2
 523 0 l 1
 438 0 l 1
349 373 m 0
 318 373 292 351 286 321 c 0
 285 317 285 313 285 309 c 0
 285 286 300 269 327 269 c 0
 358 269 384 291 390 321 c 0
 391 325 392 329 392 333 c 0
 392 356 376 373 349 373 c 0
EndSplineSet
PickledDataWithLists: "(dp0
Vcom.fontlab.hintData
p1
(dp2
Vvhints
p3
(lp4
(dp5
Vposition
p6
L60L
sVwidth
p7
L10L
sa(dp8
g6
L149L
sg7
L10L
sa(dp9
g6
L306L
sg7
L10L
sa(dp10
g6
L394L
sg7
L10L
sa(dp11
g6
L495L
sg7
L10L
sa(dp12
g6
L501L
sg7
L10L
sa(dp13
g6
L584L
sg7
L10L
sa(dp14
g6
L589L
sg7
L10L
sasVhhints
p15
(lp16
(dp17
g6
L-23L
sg7
L10L
sa(dp18
g6
L-15L
sg7
L10L
sa(dp19
g6
L40L
sg7
L10L
sa(dp20
g6
L140L
sg7
L10L
sa(dp21
g6
L547L
sg7
L10L
sa(dp22
g6
L609L
sg7
L10L
sass."
EndChar

StartChar: uni0E15
Encoding: 3605 3605 149
GlifName: uni0E_15
Width: 665
VWidth: 0
GlyphClass: 2
Flags: HMW
LayerCount: 2
Fore
SplineSet
438 0 m 1
 460 105 l 2
 469 145 507 307 527 403 c 0
 532 428 535 450 535 469 c 0
 535 518 517 547 485 551 c 1
 381 477 l 1
 371 477 l 1
 361 477 l 1
 289 551 l 1
 241 545 202 492 183 403 c 0
 152 257 166 224 151 155 c 2
 136 84 l 1
 198 144 281 178 338 227 c 1
 331 226 325 225 318 225 c 0
 266 225 233 254 233 299 c 0
 233 306 233 313 235 321 c 0
 247 378 299 417 359 417 c 0
 411 417 444 388 444 343 c 0
 444 336 443 329 441 321 c 0
 407 163 191 124 130 0 c 1
 33 0 l 1
 33 0 59 73 69 120 c 0
 91 224 71 249 104 403 c 0
 122 487 176 612 309 612 c 1
 383 530 l 1
 491 612 l 1
 590 612 617 543 617 473 c 0
 617 449 614 425 609 403 c 2
 523 0 l 1
 438 0 l 1
349 373 m 0
 318 373 292 351 286 321 c 0
 285 317 285 313 285 309 c 0
 285 286 300 269 327 269 c 0
 358 269 384 291 390 321 c 0
 391 325 392 329 392 333 c 0
 392 356 376 373 349 373 c 0
EndSplineSet
PickledDataWithLists: "(dp0
Vcom.fontlab.hintData
p1
(dp2
Vvhints
p3
(lp4
(dp5
Vposition
p6
L64L
sVwidth
p7
L10L
sa(dp8
g6
L146L
sg7
L10L
sa(dp9
g6
L309L
sg7
L10L
sa(dp10
g6
L332L
sg7
L10L
sa(dp11
g6
L337L
sg7
L10L
sa(dp12
g6
L391L
sg7
L10L
sa(dp13
g6
L405L
sg7
L10L
sa(dp14
g6
L513L
sg7
L10L
sa(dp15
g6
L597L
sg7
L10L
sa(dp16
g6
L602L
sg7
L10L
sasVhhints
p17
(lp18
(dp19
g6
L-21L
sg7
L10L
sa(dp20
g6
L-13L
sg7
L10L
sa(dp21
g6
L36L
sg7
L10L
sa(dp22
g6
L133L
sg7
L10L
sa(dp23
g6
L412L
sg7
L10L
sa(dp24
g6
L546L
sg7
L10L
sa(dp25
g6
L590L
sg7
L10L
sa(dp26
g6
L603L
sg7
L10L
sass."
EndChar

StartChar: uni0E16
Encoding: 3606 3606 150
GlifName: uni0E_16
Width: 655
VWidth: 0
GlyphClass: 2
Flags: HMW
LayerCount: 2
Fore
SplineSet
386 618 m 0
 522 618 603 550 603 449 c 0
 603 434 601 419 598 403 c 2
 512 0 l 1
 427 0 l 1
 513 403 l 2
 516 417 517 430 517 442 c 0
 517 517 462 554 373 554 c 0
 284 554 217 510 182 441 c 1
 326 411 l 1
 309 374 l 2
 306 374 288 377 278 377 c 0
 235 377 208 353 198 305 c 2
 184 240 l 2
 179 217 171 198 161 183 c 1
 166 184 171 184 177 184 c 0
 229 184 262 155 262 110 c 0
 262 103 262 96 260 88 c 0
 248 31 196 -8 136 -8 c 0
 84 -8 51 21 51 66 c 0
 51 73 52 80 54 88 c 0
 64 134 84 166 93 210 c 2
 111 297 l 2
 122 350 155 382 202 396 c 1
 86 419 l 1
 122 523 228 618 386 618 c 0
168 140 m 0
 137 140 111 118 105 88 c 0
 104 84 103 80 103 76 c 0
 103 53 119 36 146 36 c 0
 177 36 203 58 209 88 c 0
 210 92 210 96 210 100 c 0
 210 123 195 140 168 140 c 0
EndSplineSet
PickledDataWithLists: "(dp0
Vcom.fontlab.hintData
p1
(dp2
Vvhints
p3
(lp4
(dp5
Vposition
p6
L81L
sVwidth
p7
L10L
sa(dp8
g6
L86L
sg7
L10L
sa(dp9
g6
L111L
sg7
L10L
sa(dp10
g6
L169L
sg7
L10L
sa(dp11
g6
L199L
sg7
L10L
sa(dp12
g6
L315L
sg7
L10L
sa(dp13
g6
L465L
sg7
L10L
sa(dp14
g6
L476L
sg7
L10L
sa(dp15
g6
L556L
sg7
L10L
sa(dp16
g6
L564L
sg7
L10L
sasVhhints
p17
(lp18
(dp19
g6
L-19L
sg7
L10L
sa(dp20
g6
L43L
sg7
L10L
sa(dp21
g6
L56L
sg7
L10L
sa(dp22
g6
L544L
sg7
L10L
sa(dp23
g6
L606L
sg7
L10L
sass."
EndChar

StartChar: uni0E17
Encoding: 3607 3607 151
GlifName: uni0E_17
Width: 660
VWidth: 0
GlyphClass: 2
Flags: HMW
LayerCount: 2
Fore
SplineSet
170 460 m 0
 201 460 227 482 233 512 c 0
 234 516 234 520 234 524 c 0
 234 547 219 564 192 564 c 0
 161 564 135 542 129 512 c 0
 128 508 127 504 127 500 c 0
 127 477 143 460 170 460 c 0
160 416 m 0
 108 416 75 445 75 490 c 0
 75 497 76 504 78 512 c 0
 90 569 141 608 201 608 c 0
 253 608 286 579 286 534 c 0
 286 527 286 520 284 512 c 0
 274 466 245 434 236 390 c 2
 207 253 l 1
 284 401 411 608 532 608 c 0
 600 608 620 562 620 519 c 0
 620 508 619 498 617 488 c 2
 513 0 l 1
 427 0 l 1
 528 474 l 2
 530 482 530 489 530 496 c 0
 530 518 522 534 501 536 c 1
 399 512 232 231 177 115 c 1
 153 0 l 1
 68 0 l 1
 145 360 l 2
 150 382 158 401 169 416 c 1
 166 416 163 416 160 416 c 0
EndSplineSet
PickledDataWithLists: "(dp0
Vcom.fontlab.hintData
p1
(dp2
Vvhints
p3
(lp4
(dp5
Vposition
p6
L58L
sVwidth
p7
L10L
sa(dp8
g6
L104L
sg7
L10L
sa(dp9
g6
L479L
sg7
L10L
sa(dp10
g6
L484L
sg7
L10L
sa(dp11
g6
L561L
sg7
L10L
sa(dp12
g6
L566L
sg7
L10L
sasVhhints
p13
(lp14
(dp15
g6
L-13L
sg7
L10L
sa(dp16
g6
L-8L
sg7
L10L
sa(dp17
g6
L546L
sg7
L10L
sa(dp18
g6
L604L
sg7
L10L
sass."
EndChar

StartChar: uni0E18
Encoding: 3608 3608 152
GlifName: uni0E_18
Width: 585
VWidth: 0
GlyphClass: 2
Flags: HMW
AnchorPoint: "ThaiTone.mark" 505 0 basechar 0
LayerCount: 2
Fore
SplineSet
59 174 m 2
 86 300 l 1
 171 300 l 1
 144 174 l 2
 141 161 140 150 140 139 c 0
 140 76 184 46 245 46 c 0
 317 46 381 87 399 174 c 2
 423 288 l 2
 424 293 425 298 425 303 c 0
 425 370 320 403 98 403 c 1
 103 428 l 2
 127 543 228 618 348 618 c 0
 430 618 475 583 498 553 c 1
 501 558 503 563 506 566 c 2
 544 612 l 1
 606 600 l 1
 605 596 l 1
 503 492 l 1
 476 492 l 1
 465 515 431 560 349 560 c 0
 280 560 213 526 188 447 c 1
 389 441 513 406 513 320 c 0
 513 313 512 306 510 298 c 2
 484 174 l 2
 461 66 363 -18 231 -18 c 0
 117 -18 54 45 54 132 c 0
 54 146 56 159 59 174 c 2
EndSplineSet
PickledDataWithLists: "(dp0
Vcom.fontlab.hintData
p1
(dp2
Vvhints
p3
(lp4
(dp5
Vposition
p6
L64L
sVwidth
p7
L10L
sa(dp8
g6
L109L
sg7
L10L
sa(dp9
g6
L146L
sg7
L10L
sa(dp10
g6
L195L
sg7
L10L
sa(dp11
g6
L430L
sg7
L10L
sa(dp12
g6
L513L
sg7
L10L
sasVhhints
p13
(lp14
(dp15
g6
L-14L
sg7
L10L
sa(dp16
g6
L44L
sg7
L10L
sa(dp17
g6
L294L
sg7
L10L
sa(dp18
g6
L496L
sg7
L10L
sa(dp19
g6
L555L
sg7
L10L
sa(dp20
g6
L612L
sg7
L10L
sass."
EndChar

StartChar: uni0E19
Encoding: 3609 3609 153
GlifName: uni0E_19
Width: 650
VWidth: 0
GlyphClass: 2
Flags: HMW
LayerCount: 2
Fore
SplineSet
68 0 m 1
 145 360 l 2
 150 383 159 401 170 416 c 1
 167 416 163 416 160 416 c 0
 108 416 75 445 75 490 c 0
 75 497 76 504 78 512 c 0
 90 569 141 608 201 608 c 0
 253 608 286 579 286 534 c 0
 286 527 286 520 284 512 c 0
 273 458 245 436 234 382 c 2
 189 170 l 2
 183 141 173 107 166 77 c 1
 233 130 327 182 437 187 c 1
 446 196 451 205 454 218 c 2
 536 600 l 1
 621 600 l 1
 542 232 l 2
 537 209 521 192 501 180 c 1
 535 171 556 146 556 110 c 0
 556 103 556 96 554 88 c 0
 542 31 490 -8 430 -8 c 0
 378 -8 345 21 345 66 c 0
 345 73 346 80 348 88 c 0
 351 103 356 116 364 128 c 1
 278 107 201 53 146 0 c 1
 68 0 l 1
462 140 m 0
 431 140 405 118 399 88 c 0
 398 84 397 80 397 76 c 0
 397 53 413 36 440 36 c 0
 471 36 497 58 503 88 c 0
 504 92 504 96 504 100 c 0
 504 123 489 140 462 140 c 0
170 460 m 0
 201 460 227 482 233 512 c 0
 234 516 234 520 234 524 c 0
 234 547 219 564 192 564 c 0
 161 564 135 542 129 512 c 0
 128 508 127 504 127 500 c 0
 127 477 143 460 170 460 c 0
EndSplineSet
PickledDataWithLists: "(dp0
Vcom.fontlab.hintData
p1
(dp2
Vvhints
p3
(lp4
(dp5
Vposition
p6
L64L
sVwidth
p7
L10L
sa(dp8
g6
L84L
sg7
L10L
sa(dp9
g6
L168L
sg7
L10L
sa(dp10
g6
L387L
sg7
L10L
sa(dp11
g6
L457L
sg7
L10L
sa(dp12
g6
L491L
sg7
L10L
sa(dp13
g6
L550L
sg7
L10L
sa(dp14
g6
L625L
sg7
L10L
sasVhhints
p15
(lp16
(dp17
g6
L-27L
sg7
L10L
sa(dp18
g6
L-20L
sg7
L10L
sa(dp19
g6
L22L
sg7
L10L
sa(dp20
g6
L248L
sg7
L10L
sa(dp21
g6
L307L
sg7
L10L
sa(dp22
g6
L589L
sg7
L10L
sa(dp23
g6
L598L
sg7
L10L
sass."
EndChar

StartChar: uni0E1A
Encoding: 3610 3610 154
GlifName: uni0E_1A_
Width: 700
VWidth: 0
GlyphClass: 2
Flags: HMW
LayerCount: 2
Fore
SplineSet
165 460 m 0
 196 460 222 482 228 512 c 0
 229 516 229 520 229 524 c 0
 229 547 214 564 187 564 c 0
 156 564 130 542 124 512 c 0
 123 508 122 504 122 500 c 0
 122 477 138 460 165 460 c 0
155 416 m 0
 103 416 70 445 70 490 c 0
 70 497 71 504 73 512 c 0
 85 569 136 608 196 608 c 0
 248 608 281 579 281 534 c 0
 281 527 281 520 279 512 c 0
 269 466 240 434 231 390 c 2
 187 184 l 2
 184 171 183 159 183 148 c 0
 183 80 234 46 315 46 c 0
 409 46 482 92 502 184 c 2
 591 600 l 1
 676 600 l 1
 587 184 l 2
 562 66 447 -18 301 -18 c 0
 173 -18 97 47 97 142 c 0
 97 156 99 169 102 184 c 2
 140 360 l 2
 145 382 153 401 164 416 c 1
 161 416 158 416 155 416 c 0
EndSplineSet
PickledDataWithLists: "(dp0
Vcom.fontlab.hintData
p1
(dp2
Vvhints
p3
(lp4
(dp5
Vposition
p6
L81L
sVwidth
p7
L10L
sa(dp8
g6
L106L
sg7
L10L
sa(dp9
g6
L194L
sg7
L10L
sa(dp10
g6
L511L
sg7
L10L
sa(dp11
g6
L516L
sg7
L10L
sa(dp12
g6
L599L
sg7
L10L
sa(dp13
g6
L604L
sg7
L10L
sasVhhints
p14
(lp15
(dp16
g6
L-26L
sg7
L10L
sa(dp17
g6
L36L
sg7
L10L
sa(dp18
g6
L596L
sg7
L10L
sass."
EndChar

StartChar: uni0E1B
Encoding: 3611 3611 155
GlifName: uni0E_1B_
Width: 700
VWidth: 0
GlyphClass: 2
Flags: HMW
LayerCount: 2
Fore
SplineSet
165 460 m 0
 196 460 222 482 228 512 c 0
 229 516 229 520 229 524 c 0
 229 547 214 564 187 564 c 0
 156 564 130 542 124 512 c 0
 123 508 122 504 122 500 c 0
 122 477 138 460 165 460 c 0
155 416 m 0
 103 416 70 445 70 490 c 0
 70 497 71 504 73 512 c 0
 85 569 136 608 196 608 c 0
 248 608 281 579 281 534 c 0
 281 527 281 520 279 512 c 0
 269 466 240 434 231 390 c 2
 187 184 l 2
 184 171 183 159 183 148 c 0
 183 80 234 46 315 46 c 0
 409 46 482 92 502 184 c 2
 635 810 l 1
 720 810 l 1
 587 184 l 2
 562 66 447 -18 301 -18 c 0
 173 -18 97 47 97 142 c 0
 97 156 99 169 102 184 c 2
 140 360 l 2
 145 382 153 401 164 416 c 1
 161 416 158 416 155 416 c 0
EndSplineSet
PickledDataWithLists: "(dp0
Vcom.fontlab.hintData
p1
(dp2
Vvhints
p3
(lp4
(dp5
Vposition
p6
L81L
sVwidth
p7
L10L
sa(dp8
g6
L106L
sg7
L10L
sa(dp9
g6
L194L
sg7
L10L
sa(dp10
g6
L521L
sg7
L10L
sa(dp11
g6
L526L
sg7
L10L
sa(dp12
g6
L609L
sg7
L10L
sa(dp13
g6
L614L
sg7
L10L
sasVhhints
p14
(lp15
(dp16
g6
L-26L
sg7
L10L
sa(dp17
g6
L36L
sg7
L10L
sa(dp18
g6
L600L
sg7
L10L
sa(dp19
g6
L836L
sg7
L10L
sass."
EndChar

StartChar: uni0E1C
Encoding: 3612 3612 156
GlifName: uni0E_1C_
Width: 715
VWidth: 0
GlyphClass: 2
Flags: HMW
LayerCount: 2
Fore
SplineSet
514 162 m 2
 608 600 l 1
 691 600 l 1
 563 0 l 1
 484 0 l 1
 361 298 l 1
 112 0 l 1
 32 0 l 1
 96 300 l 2
 112 373 105 410 117 467 c 0
 135 554 197 608 287 608 c 0
 339 608 372 579 372 534 c 0
 372 527 372 520 370 512 c 0
 358 455 306 416 246 416 c 0
 220 416 199 424 184 437 c 1
 184 432 183 427 183 422 c 0
 183 402 186 386 186 365 c 0
 186 349 184 332 179 308 c 2
 148 162 l 2
 143 139 137 116 130 97 c 1
 349 360 l 1
 375 360 l 1
 399 360 l 1
 507 97 l 1
 508 116 509 139 514 162 c 2
256 460 m 0
 287 460 313 482 319 512 c 0
 320 516 320 520 320 524 c 0
 320 547 305 564 278 564 c 0
 247 564 221 542 215 512 c 0
 214 508 213 504 213 500 c 0
 213 477 229 460 256 460 c 0
EndSplineSet
PickledDataWithLists: "(dp0
Vcom.fontlab.hintData
p1
(dp2
Vvhints
p3
(lp4
(dp5
Vposition
p6
L64L
sVwidth
p7
L10L
sa(dp8
g6
L148L
sg7
L10L
sa(dp9
g6
L372L
sg7
L10L
sa(dp10
g6
L559L
sg7
L10L
sa(dp11
g6
L643L
sg7
L10L
sa(dp12
g6
L653L
sg7
L10L
sasVhhints
p13
(lp14
(dp15
g6
L-14L
sg7
L10L
sa(dp16
g6
L-8L
sg7
L10L
sa(dp17
g6
L318L
sg7
L10L
sa(dp18
g6
L514L
sg7
L10L
sa(dp19
g6
L544L
sg7
L10L
sa(dp20
g6
L599L
sg7
L10L
sa(dp21
g6
L604L
sg7
L10L
sass."
EndChar

StartChar: uni0E1D
Encoding: 3613 3613 157
GlifName: uni0E_1D_
Width: 715
VWidth: 0
GlyphClass: 2
Flags: HMW
LayerCount: 2
Fore
SplineSet
514 162 m 2
 652 810 l 1
 735 810 l 1
 563 0 l 1
 484 0 l 1
 361 298 l 1
 112 0 l 1
 32 0 l 1
 96 300 l 2
 112 373 105 410 117 467 c 0
 135 554 197 608 287 608 c 0
 339 608 372 579 372 534 c 0
 372 527 372 520 370 512 c 0
 358 455 306 416 246 416 c 0
 220 416 199 424 184 437 c 1
 184 432 183 427 183 422 c 0
 183 402 186 386 186 365 c 0
 186 349 184 332 179 308 c 2
 148 162 l 2
 143 139 137 116 130 97 c 1
 349 360 l 1
 375 360 l 1
 399 360 l 1
 507 97 l 1
 508 116 509 139 514 162 c 2
256 460 m 0
 287 460 313 482 319 512 c 0
 320 516 320 520 320 524 c 0
 320 547 305 564 278 564 c 0
 247 564 221 542 215 512 c 0
 214 508 213 504 213 500 c 0
 213 477 229 460 256 460 c 0
EndSplineSet
PickledDataWithLists: "(dp0
Vcom.fontlab.hintData
p1
(dp2
Vvhints
p3
(lp4
(dp5
Vposition
p6
L64L
sVwidth
p7
L10L
sa(dp8
g6
L148L
sg7
L10L
sa(dp9
g6
L372L
sg7
L10L
sa(dp10
g6
L559L
sg7
L10L
sa(dp11
g6
L643L
sg7
L10L
sa(dp12
g6
L653L
sg7
L10L
sasVhhints
p13
(lp14
(dp15
g6
L-14L
sg7
L10L
sa(dp16
g6
L-8L
sg7
L10L
sa(dp17
g6
L318L
sg7
L10L
sa(dp18
g6
L514L
sg7
L10L
sa(dp19
g6
L544L
sg7
L10L
sa(dp20
g6
L604L
sg7
L10L
sa(dp21
g6
L834L
sg7
L10L
sass."
EndChar

StartChar: uni0E1E
Encoding: 3614 3614 158
GlifName: uni0E_1E_
Width: 735
VWidth: 0
GlyphClass: 2
Flags: HMW
LayerCount: 2
Fore
SplineSet
711 600 m 1
 583 0 l 1
 509 0 l 1
 411 410 l 1
 139 0 l 1
 67 0 l 1
 144 360 l 2
 149 383 158 401 169 416 c 1
 165 416 162 416 158 416 c 0
 106 416 73 445 73 490 c 0
 73 497 74 504 76 512 c 0
 88 569 139 608 199 608 c 0
 251 608 284 579 284 534 c 0
 284 527 284 520 282 512 c 0
 272 463 241 433 231 385 c 2
 190 192 l 2
 186 175 180 155 174 138 c 1
 408 495 l 1
 429 495 l 1
 450 495 l 1
 534 135 l 1
 536 152 538 174 542 192 c 2
 629 600 l 1
 711 600 l 1
168 460 m 0
 199 460 225 482 231 512 c 0
 232 516 232 520 232 524 c 0
 232 547 217 564 190 564 c 0
 159 564 133 542 127 512 c 0
 126 508 125 504 125 500 c 0
 125 477 141 460 168 460 c 0
EndSplineSet
PickledDataWithLists: "(dp0
Vcom.fontlab.hintData
p1
(dp2
Vvhints
p3
(lp4
(dp5
Vposition
p6
L58L
sVwidth
p7
L10L
sa(dp8
g6
L104L
sg7
L10L
sa(dp9
g6
L182L
sg7
L10L
sa(dp10
g6
L556L
sg7
L10L
sa(dp11
g6
L656L
sg7
L10L
sasVhhints
p12
(lp13
(dp14
g6
L-12L
sg7
L10L
sa(dp15
g6
L540L
sg7
L10L
sa(dp16
g6
L604L
sg7
L10L
sass."
EndChar

StartChar: uni0E1F
Encoding: 3615 3615 159
GlifName: uni0E_1F_
Width: 735
VWidth: 0
GlyphClass: 2
Flags: HMW
LayerCount: 2
Fore
SplineSet
755 810 m 1
 583 0 l 1
 509 0 l 1
 411 410 l 1
 139 0 l 1
 67 0 l 1
 144 360 l 2
 149 383 158 401 169 416 c 1
 165 416 162 416 158 416 c 0
 106 416 73 445 73 490 c 0
 73 497 74 504 76 512 c 0
 88 569 139 608 199 608 c 0
 251 608 284 579 284 534 c 0
 284 527 284 520 282 512 c 0
 272 463 241 433 231 385 c 2
 190 192 l 2
 186 175 180 155 174 138 c 1
 408 495 l 1
 429 495 l 1
 450 495 l 1
 534 135 l 1
 536 152 538 174 542 192 c 2
 673 810 l 1
 755 810 l 1
168 460 m 0
 199 460 225 482 231 512 c 0
 232 516 232 520 232 524 c 0
 232 547 217 564 190 564 c 0
 159 564 133 542 127 512 c 0
 126 508 125 504 125 500 c 0
 125 477 141 460 168 460 c 0
EndSplineSet
PickledDataWithLists: "(dp0
Vcom.fontlab.hintData
p1
(dp2
Vvhints
p3
(lp4
(dp5
Vposition
p6
L58L
sVwidth
p7
L10L
sa(dp8
g6
L104L
sg7
L10L
sa(dp9
g6
L182L
sg7
L10L
sa(dp10
g6
L565L
sg7
L10L
sa(dp11
g6
L641L
sg7
L9L
sa(dp12
g6
L686L
sg7
L11L
sasVhhints
p13
(lp14
(dp15
g6
L-12L
sg7
L10L
sa(dp16
g6
L540L
sg7
L10L
sa(dp17
g6
L604L
sg7
L10L
sa(dp18
g6
L834L
sg7
L10L
sass."
EndChar

StartChar: uni0E20
Encoding: 3616 3616 160
GlifName: uni0E_20
Width: 665
VWidth: 0
GlyphClass: 2
Flags: HMW
LayerCount: 2
Fore
SplineSet
114 140 m 0
 83 140 57 118 51 88 c 0
 50 84 49 80 49 76 c 0
 49 53 65 36 92 36 c 0
 123 36 149 58 155 88 c 0
 156 92 156 96 156 100 c 0
 156 123 141 140 114 140 c 0
396 618 m 0
 532 618 613 550 613 449 c 0
 613 434 611 419 608 403 c 2
 522 0 l 1
 437 0 l 1
 523 403 l 2
 526 417 527 430 527 442 c 0
 527 517 472 554 383 554 c 0
 294 554 229 511 193 442 c 1
 361 411 l 1
 344 374 l 2
 341 374 323 377 313 377 c 0
 270 377 243 353 233 305 c 2
 213 210 l 2
 210 196 209 183 209 170 c 0
 209 156 210 144 210 130 c 0
 210 117 209 103 206 88 c 0
 194 31 142 -8 82 -8 c 0
 30 -8 -3 21 -3 66 c 0
 -3 73 -2 80 -0 88 c 0
 12 145 63 184 123 184 c 0
 127 184 130 184 134 184 c 1
 132 192 131 201 131 211 c 0
 131 220 132 230 134 240 c 2
 146 297 l 2
 157 349 190 381 236 395 c 1
 96 419 l 1
 132 523 238 618 396 618 c 0
EndSplineSet
PickledDataWithLists: "(dp0
Vcom.fontlab.hintData
p1
(dp2
Vvhints
p3
(lp4
(dp5
Vposition
p6
L26L
sVwidth
p7
L10L
sa(dp8
g6
L81L
sg7
L10L
sa(dp9
g6
L131L
sg7
L10L
sa(dp10
g6
L219L
sg7
L10L
sa(dp11
g6
L465L
sg7
L10L
sa(dp12
g6
L476L
sg7
L10L
sa(dp13
g6
L556L
sg7
L10L
sa(dp14
g6
L564L
sg7
L10L
sasVhhints
p15
(lp16
(dp17
g6
L-16L
sg7
L10L
sa(dp18
g6
L66L
sg7
L10L
sa(dp19
g6
L544L
sg7
L10L
sa(dp20
g6
L606L
sg7
L10L
sass."
EndChar

StartChar: uni0E21
Encoding: 3617 3617 161
GlifName: uni0E_21
Width: 645
VWidth: 0
GlyphClass: 2
Flags: HMW
LayerCount: 2
Fore
SplineSet
122 140 m 0
 91 140 65 118 59 88 c 0
 58 84 57 80 57 76 c 0
 57 53 73 36 100 36 c 0
 131 36 157 58 163 88 c 0
 164 92 164 96 164 100 c 0
 164 123 149 140 122 140 c 0
180 460 m 0
 211 460 237 482 243 512 c 0
 244 516 244 520 244 524 c 0
 244 547 229 564 202 564 c 0
 171 564 145 542 139 512 c 0
 138 508 137 504 137 500 c 0
 137 477 153 460 180 460 c 0
170 416 m 0
 118 416 85 445 85 490 c 0
 85 497 86 504 88 512 c 0
 100 569 151 608 211 608 c 0
 263 608 296 579 296 534 c 0
 296 527 296 520 294 512 c 0
 283 458 255 436 244 382 c 2
 209 218 l 2
 206 204 206 193 207 182 c 1
 313 172 382 124 427 75 c 1
 432 105 438 140 444 170 c 2
 536 600 l 1
 621 600 l 1
 493 0 l 1
 415 0 l 1
 380 57 316 114 216 130 c 1
 217 125 217 120 217 115 c 0
 217 107 216 98 214 88 c 0
 202 31 150 -8 90 -8 c 0
 38 -8 5 21 5 66 c 0
 5 73 6 80 8 88 c 0
 20 145 71 184 131 184 c 0
 132 184 132 184 133 184 c 1
 129 194 127 205 127 218 c 0
 127 225 127 232 129 240 c 2
 155 360 l 2
 160 383 169 401 180 416 c 1
 177 416 173 416 170 416 c 0
EndSplineSet
PickledDataWithLists: "(dp0
Vcom.fontlab.hintData
p1
(dp2
Vvhints
p3
(lp4
(dp5
Vposition
p6
L25L
sVwidth
p7
L10L
sa(dp8
g6
L56L
sg7
L10L
sa(dp9
g6
L100L
sg7
L10L
sa(dp10
g6
L200L
sg7
L10L
sa(dp11
g6
L280L
sg7
L10L
sa(dp12
g6
L476L
sg7
L10L
sa(dp13
g6
L484L
sg7
L10L
sa(dp14
g6
L556L
sg7
L10L
sa(dp15
g6
L566L
sg7
L10L
sasVhhints
p16
(lp17
(dp18
g6
L-27L
sg7
L10L
sa(dp19
g6
L243L
sg7
L10L
sa(dp20
g6
L297L
sg7
L10L
sa(dp21
g6
L528L
sg7
L10L
sa(dp22
g6
L548L
sg7
L10L
sa(dp23
g6
L588L
sg7
L10L
sa(dp24
g6
L602L
sg7
L10L
sass."
EndChar

StartChar: uni0E22
Encoding: 3618 3618 162
GlifName: uni0E_22
Width: 645
VWidth: 0
GlyphClass: 2
Flags: HMW
LayerCount: 2
Fore
SplineSet
267 460 m 0
 298 460 324 482 330 512 c 0
 331 516 331 520 331 524 c 0
 331 547 316 564 289 564 c 0
 258 564 232 542 226 512 c 0
 225 508 224 504 224 500 c 0
 224 477 240 460 267 460 c 0
541 600 m 1
 626 600 l 1
 537 184 l 2
 512 66 397 -18 251 -18 c 0
 122 -18 46 43 46 135 c 0
 46 148 47 160 50 174 c 0
 67 253 127 295 193 313 c 1
 144 333 108 373 108 432 c 0
 108 443 109 455 112 467 c 0
 130 551 202 608 298 608 c 0
 350 608 383 579 383 534 c 0
 383 527 383 520 381 512 c 0
 369 455 317 416 257 416 c 0
 210 416 179 440 173 477 c 1
 173 475 172 472 172 470 c 0
 170 460 169 450 169 441 c 0
 169 368 238 340 337 340 c 1
 327 290 l 1
 233 290 153 260 136 178 c 0
 134 166 132 155 132 145 c 0
 132 79 184 46 265 46 c 0
 359 46 432 92 452 184 c 2
 541 600 l 1
EndSplineSet
PickledDataWithLists: "(dp0
Vcom.fontlab.hintData
p1
(dp2
Vvhints
p3
(lp4
(dp5
Vposition
p6
L44L
sVwidth
p7
L10L
sa(dp8
g6
L114L
sg7
L10L
sa(dp9
g6
L126L
sg7
L10L
sa(dp10
g6
L196L
sg7
L10L
sa(dp11
g6
L335L
sg7
L10L
sa(dp12
g6
L352L
sg7
L10L
sa(dp13
g6
L474L
sg7
L10L
sa(dp14
g6
L562L
sg7
L10L
sasVhhints
p15
(lp16
(dp17
g6
L-26L
sg7
L10L
sa(dp18
g6
L36L
sg7
L10L
sa(dp19
g6
L517L
sg7
L10L
sa(dp20
g6
L546L
sg7
L10L
sa(dp21
g6
L596L
sg7
L10L
sa(dp22
g6
L604L
sg7
L10L
sass."
EndChar

StartChar: uni0E23
Encoding: 3619 3619 163
GlifName: uni0E_23
Width: 530
VWidth: 0
GlyphClass: 2
Flags: HMW
AnchorPoint: "ThaiBelow.mark" 440 0 basechar 0
AnchorPoint: "ThaiTone.mark" 450 0 basechar 0
AnchorPoint: "ThaiAbove.mark" 500 0 basechar 0
LayerCount: 2
Fore
SplineSet
448 554 m 1
 451 559 453 563 456 566 c 2
 494 612 l 1
 556 600 l 1
 555 596 l 1
 454 493 l 1
 427 493 l 1
 416 516 385 560 305 560 c 0
 238 560 174 526 149 447 c 1
 312 441 417 414 417 334 c 0
 417 327 416 319 414 311 c 2
 386 180 l 1
 372 111 l 2
 357 41 302 -8 224 -8 c 0
 172 -8 139 21 139 66 c 0
 139 73 140 80 142 88 c 0
 154 145 205 184 265 184 c 0
 280 184 294 182 305 177 c 1
 305 190 306 203 309 215 c 2
 327 301 l 2
 328 307 329 313 329 318 c 0
 329 381 241 403 59 403 c 1
 64 428 l 2
 88 543 186 618 304 618 c 0
 384 618 426 584 448 554 c 1
256 140 m 0
 225 140 199 118 193 88 c 0
 192 84 191 80 191 76 c 0
 191 53 207 36 234 36 c 0
 265 36 291 58 297 88 c 0
 298 92 298 96 298 100 c 0
 298 123 283 140 256 140 c 0
EndSplineSet
PickledDataWithLists: "(dp0
Vcom.fontlab.hintData
p1
(dp2
Vvhints
p3
(lp4
(dp5
Vposition
p6
L31L
sVwidth
p7
L10L
sa(dp8
g6
L111L
sg7
L10L
sa(dp9
g6
L116L
sg7
L10L
sa(dp10
g6
L362L
sg7
L10L
sa(dp11
g6
L446L
sg7
L10L
sa(dp12
g6
L479L
sg7
L10L
sasVhhints
p13
(lp14
(dp15
g6
L-16L
sg7
L10L
sa(dp16
g6
L46L
sg7
L10L
sa(dp17
g6
L91L
sg7
L10L
sa(dp18
g6
L494L
sg7
L10L
sa(dp19
g6
L548L
sg7
L10L
sa(dp20
g6
L610L
sg7
L10L
sass."
EndChar

StartChar: uni0E24
Encoding: 3620 3620 164
GlifName: uni0E_24
Width: 655
VWidth: 0
GlyphClass: 2
Flags: HMW
LayerCount: 2
Fore
SplineSet
386 618 m 0
 522 618 603 550 603 449 c 0
 603 434 601 419 598 403 c 2
 467 -210 l 1
 382 -210 l 1
 513 403 l 2
 516 417 517 430 517 442 c 0
 517 517 462 554 373 554 c 0
 284 554 217 510 182 441 c 1
 326 411 l 1
 309 374 l 2
 306 374 288 377 278 377 c 0
 235 377 208 353 198 305 c 2
 184 240 l 2
 179 217 171 198 161 183 c 1
 166 184 171 184 177 184 c 0
 229 184 262 155 262 110 c 0
 262 103 262 96 260 88 c 0
 248 31 196 -8 136 -8 c 0
 84 -8 51 21 51 66 c 0
 51 73 52 80 54 88 c 0
 64 134 84 166 93 210 c 2
 111 297 l 2
 122 350 155 382 202 396 c 1
 86 419 l 1
 122 523 228 618 386 618 c 0
168 140 m 0
 137 140 111 118 105 88 c 0
 104 84 103 80 103 76 c 0
 103 53 119 36 146 36 c 0
 177 36 203 58 209 88 c 0
 210 92 210 96 210 100 c 0
 210 123 195 140 168 140 c 0
EndSplineSet
PickledDataWithLists: "(dp0
Vcom.fontlab.hintData
p1
(dp2
Vvhints
p3
(lp4
(dp5
Vposition
p6
L81L
sVwidth
p7
L10L
sa(dp8
g6
L86L
sg7
L10L
sa(dp9
g6
L111L
sg7
L10L
sa(dp10
g6
L169L
sg7
L10L
sa(dp11
g6
L199L
sg7
L10L
sa(dp12
g6
L315L
sg7
L10L
sa(dp13
g6
L465L
sg7
L10L
sa(dp14
g6
L476L
sg7
L10L
sa(dp15
g6
L556L
sg7
L10L
sa(dp16
g6
L564L
sg7
L10L
sasVhhints
p17
(lp18
(dp19
g6
L-246L
sg7
L10L
sa(dp20
g6
L-19L
sg7
L10L
sa(dp21
g6
L43L
sg7
L10L
sa(dp22
g6
L56L
sg7
L10L
sa(dp23
g6
L544L
sg7
L10L
sa(dp24
g6
L606L
sg7
L10L
sass."
EndChar

StartChar: uni0E240E45.liga
Encoding: 63617 63617 165
GlifName: uni0E_240E_45.liga
Width: 950
VWidth: 0
GlyphClass: 3
Flags: HMW
LayerCount: 2
Fore
SplineSet
168 140 m 0
 137 140 111 118 105 88 c 0
 104 84 103 80 103 76 c 0
 103 53 119 36 146 36 c 0
 177 36 203 58 209 88 c 0
 210 92 210 96 210 100 c 0
 210 123 195 140 168 140 c 0
177 184 m 0
 229 184 262 155 262 110 c 0
 262 103 262 96 260 88 c 0
 248 31 196 -8 136 -8 c 0
 84 -8 51 21 51 66 c 0
 51 73 52 80 54 88 c 0
 64 134 84 166 93 210 c 2
 111 297 l 2
 122 350 155 382 202 396 c 1
 86 419 l 1
 122 523 228 618 386 618 c 0
 480 618 547 585 580 532 c 1
 617 577 673 612 749 612 c 0
 848 612 900 556 900 480 c 0
 900 467 899 454 896 440 c 2
 757 -210 l 1
 672 -210 l 1
 811 440 l 2
 814 452 814 463 814 473 c 0
 814 525 780 548 733 548 c 0
 670 548 625 501 602 448 c 1
 602 434 601 419 598 403 c 2
 467 -210 l 1
 382 -210 l 1
 513 403 l 2
 516 417 517 430 517 442 c 0
 517 517 462 554 373 554 c 0
 284 554 217 510 182 441 c 1
 326 411 l 1
 309 374 l 2
 306 374 288 377 278 377 c 0
 235 377 208 353 198 305 c 2
 184 240 l 2
 179 217 171 198 161 183 c 1
 166 184 171 184 177 184 c 0
EndSplineSet
PickledDataWithLists: "(dp0
Vcom.fontlab.hintData
p1
(dp2
Vvhints
p3
(lp4
(dp5
Vposition
p6
L81L
sVwidth
p7
L10L
sa(dp8
g6
L86L
sg7
L10L
sa(dp9
g6
L111L
sg7
L10L
sa(dp10
g6
L169L
sg7
L10L
sa(dp11
g6
L199L
sg7
L10L
sa(dp12
g6
L315L
sg7
L10L
sa(dp13
g6
L465L
sg7
L10L
sa(dp14
g6
L476L
sg7
L10L
sa(dp15
g6
L556L
sg7
L10L
sa(dp16
g6
L563L
sg7
L10L
sa(dp17
g6
L756L
sg7
L10L
sa(dp18
g6
L782L
sg7
L10L
sa(dp19
g6
L844L
sg7
L10L
sa(dp20
g6
L870L
sg7
L10L
sasVhhints
p21
(lp22
(dp23
g6
L-245L
sg7
L10L
sa(dp24
g6
L-19L
sg7
L10L
sa(dp25
g6
L43L
sg7
L10L
sa(dp26
g6
L56L
sg7
L10L
sa(dp27
g6
L544L
sg7
L10L
sa(dp28
g6
L606L
sg7
L10L
sass."
Ligature2: "Thai.liga subtable" uni0E24 uni200D uni0E45
Ligature2: "Thai.liga subtable" uni0E24 uni0E45
Colour: ff00ff
EndChar

StartChar: uni0E25
Encoding: 3621 3621 166
GlifName: uni0E_25
Width: 635
VWidth: 0
GlyphClass: 2
Flags: HMW
LayerCount: 2
Fore
SplineSet
40 106 m 2
 61 206 l 2
 76 277 127 354 243 354 c 0
 354 354 418 280 451 209 c 1
 495 412 l 2
 498 425 499 438 499 449 c 0
 499 519 447 554 363 554 c 0
 268 554 200 502 171 420 c 1
 88 426 l 1
 123 526 224 618 376 618 c 0
 506 618 584 554 584 456 c 0
 584 442 583 427 580 412 c 2
 492 0 l 1
 407 0 l 1
 431 113 l 1
 418 180 355 296 236 296 c 0
 185 296 152 262 143 218 c 0
 139 198 134 184 130 176 c 1
 143 181 158 183 173 183 c 0
 225 183 258 154 258 109 c 0
 258 102 257 95 255 87 c 0
 243 30 192 -9 132 -9 c 0
 116 -9 102 -6 90 -1 c 0
 55 12 36 41 36 79 c 0
 36 88 38 96 40 106 c 2
164 139 m 0
 133 139 106 117 100 87 c 0
 99 83 99 79 99 75 c 0
 99 52 114 35 141 35 c 0
 172 35 198 57 204 87 c 0
 205 91 206 95 206 99 c 0
 206 122 191 139 164 139 c 0
EndSplineSet
PickledDataWithLists: "(dp0
Vcom.fontlab.hintData
p1
(dp2
Vvhints
p3
(lp4
(dp5
Vposition
p6
L41L
sVwidth
p7
L10L
sa(dp8
g6
L91L
sg7
L10L
sa(dp9
g6
L179L
sg7
L10L
sa(dp10
g6
L504L
sg7
L10L
sa(dp11
g6
L589L
sg7
L10L
sasVhhints
p12
(lp13
(dp14
g6
L-16L
sg7
L10L
sa(dp15
g6
L-6L
sg7
L10L
sa(dp16
g6
L296L
sg7
L10L
sa(dp17
g6
L414L
sg7
L10L
sa(dp18
g6
L549L
sg7
L10L
sa(dp19
g6
L610L
sg7
L10L
sass."
EndChar

StartChar: uni0E26
Encoding: 3622 3622 167
GlifName: uni0E_26
Width: 670
VWidth: 0
GlyphClass: 2
Flags: HMW
LayerCount: 2
Fore
SplineSet
114 140 m 0
 83 140 57 118 51 88 c 0
 50 84 49 80 49 76 c 0
 49 53 65 36 92 36 c 0
 123 36 149 58 155 88 c 0
 156 92 156 96 156 100 c 0
 156 123 141 140 114 140 c 0
396 618 m 0
 532 618 613 550 613 449 c 0
 613 434 611 419 608 403 c 2
 477 -210 l 1
 392 -210 l 1
 523 403 l 2
 526 417 527 430 527 442 c 0
 527 517 472 554 383 554 c 0
 294 554 229 511 193 442 c 1
 361 411 l 1
 344 374 l 2
 341 374 323 377 313 377 c 0
 270 377 243 353 233 305 c 2
 213 210 l 2
 210 196 209 183 209 170 c 0
 209 156 210 144 210 130 c 0
 210 117 209 103 206 88 c 0
 194 31 142 -8 82 -8 c 0
 30 -8 -3 21 -3 66 c 0
 -3 73 -2 80 -0 88 c 0
 12 145 63 184 123 184 c 0
 127 184 130 184 134 184 c 1
 132 192 131 201 131 211 c 0
 131 220 132 230 134 240 c 2
 146 297 l 2
 157 349 190 381 236 395 c 1
 96 419 l 1
 132 523 238 618 396 618 c 0
EndSplineSet
PickledDataWithLists: "(dp0
Vcom.fontlab.hintData
p1
(dp2
Vvhints
p3
(lp4
(dp5
Vposition
p6
L26L
sVwidth
p7
L10L
sa(dp8
g6
L81L
sg7
L10L
sa(dp9
g6
L131L
sg7
L10L
sa(dp10
g6
L219L
sg7
L10L
sa(dp11
g6
L465L
sg7
L10L
sa(dp12
g6
L476L
sg7
L10L
sa(dp13
g6
L556L
sg7
L10L
sa(dp14
g6
L564L
sg7
L10L
sasVhhints
p15
(lp16
(dp17
g6
L-246L
sg7
L10L
sa(dp18
g6
L-16L
sg7
L10L
sa(dp19
g6
L66L
sg7
L10L
sa(dp20
g6
L544L
sg7
L10L
sa(dp21
g6
L606L
sg7
L10L
sass."
EndChar

StartChar: uni0E260E45.liga
Encoding: 63618 63618 168
GlifName: uni0E_260E_45.liga
Width: 960
VWidth: 0
GlyphClass: 3
Flags: HMW
LayerCount: 2
Fore
SplineSet
114 140 m 0
 83 140 57 118 51 88 c 0
 50 84 49 80 49 76 c 0
 49 53 65 36 92 36 c 0
 123 36 149 58 155 88 c 0
 156 92 156 96 156 100 c 0
 156 123 141 140 114 140 c 0
96 419 m 1
 132 523 238 618 396 618 c 0
 490 618 557 585 590 532 c 1
 627 577 683 612 759 612 c 0
 858 612 910 556 910 480 c 0
 910 467 909 454 906 440 c 2
 767 -210 l 1
 682 -210 l 1
 821 440 l 2
 824 452 824 463 824 473 c 0
 824 525 790 548 743 548 c 0
 680 548 635 501 612 448 c 1
 612 434 611 419 608 403 c 2
 477 -210 l 1
 392 -210 l 1
 523 403 l 2
 526 417 527 430 527 442 c 0
 527 517 472 554 383 554 c 0
 294 554 229 511 193 442 c 1
 361 411 l 1
 344 374 l 2
 341 374 323 377 313 377 c 0
 270 377 243 353 233 305 c 2
 213 210 l 2
 210 196 209 183 209 170 c 0
 209 156 210 144 210 130 c 0
 210 117 209 103 206 88 c 0
 194 31 142 -8 82 -8 c 0
 30 -8 -3 21 -3 66 c 0
 -3 73 -2 80 -0 88 c 0
 12 145 63 184 123 184 c 0
 127 184 130 184 134 184 c 1
 132 192 131 201 131 211 c 0
 131 220 132 230 134 240 c 2
 146 297 l 2
 157 349 190 381 236 395 c 1
 96 419 l 1
EndSplineSet
PickledDataWithLists: "(dp0
Vcom.fontlab.hintData
p1
(dp2
Vvhints
p3
(lp4
(dp5
Vposition
p6
L26L
sVwidth
p7
L10L
sa(dp8
g6
L81L
sg7
L10L
sa(dp9
g6
L131L
sg7
L10L
sa(dp10
g6
L219L
sg7
L10L
sa(dp11
g6
L465L
sg7
L10L
sa(dp12
g6
L476L
sg7
L10L
sa(dp13
g6
L556L
sg7
L10L
sa(dp14
g6
L563L
sg7
L10L
sa(dp15
g6
L756L
sg7
L10L
sa(dp16
g6
L782L
sg7
L10L
sa(dp17
g6
L844L
sg7
L10L
sa(dp18
g6
L870L
sg7
L10L
sasVhhints
p19
(lp20
(dp21
g6
L-245L
sg7
L10L
sa(dp22
g6
L-16L
sg7
L10L
sa(dp23
g6
L66L
sg7
L10L
sa(dp24
g6
L544L
sg7
L10L
sa(dp25
g6
L606L
sg7
L10L
sass."
Ligature2: "Thai.liga subtable" uni0E26 uni200D uni0E45
Ligature2: "Thai.liga subtable" uni0E26 uni0E45
Colour: ff00ff
EndChar

StartChar: uni0E27
Encoding: 3623 3623 169
GlifName: uni0E_27
Width: 535
VWidth: 0
GlyphClass: 2
Flags: HMW
AnchorPoint: "ThaiAbove.mark" 485 0 basechar 0
LayerCount: 2
Fore
SplineSet
60 454 m 1
 89 536 175 618 306 618 c 0
 420 618 483 555 483 468 c 0
 483 454 482 441 479 426 c 2
 426 180 l 1
 412 111 l 2
 397 41 342 -8 264 -8 c 0
 212 -8 179 21 179 66 c 0
 179 73 180 80 182 88 c 0
 194 145 245 184 305 184 c 0
 320 184 334 182 345 177 c 1
 345 190 346 203 349 215 c 2
 394 426 l 2
 397 439 398 450 398 461 c 0
 398 524 354 554 293 554 c 0
 220 554 166 513 142 448 c 1
 60 454 l 1
296 140 m 0
 265 140 239 118 233 88 c 0
 232 84 231 80 231 76 c 0
 231 53 247 36 274 36 c 0
 305 36 331 58 337 88 c 0
 338 92 338 96 338 100 c 0
 338 123 323 140 296 140 c 0
EndSplineSet
PickledDataWithLists: "(dp0
Vcom.fontlab.hintData
p1
(dp2
Vvhints
p3
(lp4
(dp5
Vposition
p6
L21L
sVwidth
p7
L10L
sa(dp8
g6
L168L
sg7
L10L
sa(dp9
g6
L255L
sg7
L10L
sa(dp10
g6
L411L
sg7
L10L
sa(dp11
g6
L499L
sg7
L10L
sasVhhints
p12
(lp13
(dp14
g6
L-15L
sg7
L10L
sa(dp15
g6
L46L
sg7
L10L
sa(dp16
g6
L136L
sg7
L10L
sa(dp17
g6
L394L
sg7
L10L
sa(dp18
g6
L552L
sg7
L9L
sa(dp19
g6
L614L
sg7
L10L
sass."
EndChar

StartChar: uni0E28
Encoding: 3624 3624 170
GlifName: uni0E_28
Width: 680
VWidth: 0
GlyphClass: 2
Flags: HMW
LayerCount: 2
Fore
SplineSet
349 373 m 0
 318 373 292 351 286 321 c 0
 285 317 285 313 285 309 c 0
 285 286 300 269 327 269 c 0
 358 269 384 291 390 321 c 0
 391 325 392 329 392 333 c 0
 392 356 376 373 349 373 c 0
353 417 m 1
 397 452 447 490 495 523 c 1
 470 543 434 554 388 554 c 0
 286 554 207 503 186 403 c 0
 166 307 160 255 156 214 c 1
 188 286 232 352 281 389 c 0
 301 405 326 416 353 417 c 1
520 491 m 1
 480 465 440 437 402 409 c 1
 429 398 445 373 445 342 c 0
 445 335 444 328 442 321 c 0
 430 264 378 225 318 225 c 0
 276 225 246 244 237 275 c 1
 205 234 175 178 152 105 c 1
 126 0 l 1
 33 0 l 1
 33 0 59 73 69 120 c 0
 91 224 71 249 104 403 c 0
 131 529 248 618 401 618 c 0
 468 618 520 601 557 571 c 1
 598 603 647 636 704 642 c 1
 704 568 l 1
 665 566 627 554 591 533 c 1
 606 509 614 481 614 449 c 0
 614 434 612 419 609 403 c 2
 523 0 l 1
 438 0 l 1
 460 105 l 2
 469 145 507 307 527 403 c 0
 530 417 531 429 531 441 c 0
 531 460 527 477 520 491 c 1
EndSplineSet
PickledDataWithLists: "(dp0
Vcom.fontlab.hintData
p1
(dp2
Vvhints
p3
(lp4
(dp5
Vposition
p6
L59L
sVwidth
p7
L10L
sa(dp8
g6
L142L
sg7
L10L
sa(dp9
g6
L439L
sg7
L10L
sa(dp10
g6
L508L
sg7
L10L
sa(dp11
g6
L590L
sg7
L10L
sa(dp12
g6
L637L
sg7
L10L
sasVhhints
p13
(lp14
(dp15
g6
L-18L
sg7
L10L
sa(dp16
g6
L-4L
sg7
L10L
sa(dp17
g6
L551L
sg7
L10L
sa(dp18
g6
L608L
sg7
L10L
sa(dp19
g6
L654L
sg7
L10L
sass."
EndChar

StartChar: uni0E29
Encoding: 3625 3625 171
GlifName: uni0E_29
Width: 710
VWidth: 0
GlyphClass: 2
Flags: HMW
LayerCount: 2
Fore
SplineSet
165 460 m 0
 196 460 222 482 228 512 c 0
 229 516 229 520 229 524 c 0
 229 547 214 564 187 564 c 0
 156 564 130 542 124 512 c 0
 123 508 122 504 122 500 c 0
 122 477 138 460 165 460 c 0
155 416 m 0
 103 416 70 445 70 490 c 0
 70 497 71 504 73 512 c 0
 85 569 136 608 196 608 c 0
 248 608 281 579 281 534 c 0
 281 527 281 520 279 512 c 0
 269 466 240 434 231 390 c 2
 187 184 l 2
 184 171 183 159 183 148 c 0
 183 80 234 46 315 46 c 0
 409 46 482 92 502 184 c 2
 518 257 l 1
 488 253 456 251 423 251 c 0
 355 251 311 276 311 325 c 0
 311 331 311 338 313 345 c 0
 322 389 363 420 409 420 c 0
 449 420 475 397 475 362 c 0
 475 357 474 351 473 345 c 0
 468 323 456 304 439 291 c 1
 444 292 450 292 454 292 c 0
 478 292 502 294 526 298 c 1
 591 600 l 1
 676 600 l 1
 616 321 l 1
 647 331 675 342 700 354 c 1
 705 308 l 1
 675 296 643 283 606 274 c 1
 587 184 l 2
 562 66 447 -18 301 -18 c 0
 173 -18 97 47 97 142 c 0
 97 156 99 169 102 184 c 2
 140 360 l 2
 145 382 153 401 164 416 c 1
 161 416 158 416 155 416 c 0
402 385 m 0
 378 385 359 368 354 345 c 0
 353 341 353 338 353 335 c 0
 353 317 365 305 385 305 c 0
 409 305 427 322 432 345 c 0
 433 349 433 352 433 355 c 0
 433 373 422 385 402 385 c 0
EndSplineSet
PickledDataWithLists: "(dp0
Vcom.fontlab.hintData
p1
(dp2
Vvhints
p3
(lp4
(dp5
Vposition
p6
L84L
sVwidth
p7
L10L
sa(dp8
g6
L109L
sg7
L10L
sa(dp9
g6
L191L
sg7
L10L
sa(dp10
g6
L312L
sg7
L10L
sa(dp11
g6
L375L
sg7
L10L
sa(dp12
g6
L524L
sg7
L10L
sa(dp13
g6
L529L
sg7
L10L
sa(dp14
g6
L606L
sg7
L10L
sa(dp15
g6
L708L
sg7
L10L
sasVhhints
p16
(lp17
(dp18
g6
L-24L
sg7
L10L
sa(dp19
g6
L34L
sg7
L10L
sa(dp20
g6
L391L
sg7
L10L
sa(dp21
g6
L439L
sg7
L10L
sa(dp22
g6
L561L
sg7
L10L
sa(dp23
g6
L599L
sg7
L10L
sa(dp24
g6
L609L
sg7
L10L
sa(dp25
g6
L629L
sg7
L10L
sass."
EndChar

StartChar: uni0E2A
Encoding: 3626 3626 172
GlifName: uni0E_2A_
Width: 650
VWidth: 0
GlyphClass: 2
Flags: HMW
LayerCount: 2
Fore
SplineSet
40 106 m 2
 61 206 l 2
 76 277 127 354 243 354 c 0
 244 354 l 0
 299 402 387 470 467 525 c 1
 443 545 408 554 363 554 c 0
 268 554 200 502 171 420 c 1
 88 426 l 1
 123 526 224 618 376 618 c 0
 441 618 494 601 530 573 c 1
 571 604 617 637 673 642 c 1
 673 568 l 1
 635 566 599 555 564 535 c 1
 578 513 584 486 584 456 c 0
 584 442 583 427 580 412 c 2
 492 0 l 1
 407 0 l 1
 431 113 l 1
 418 180 355 296 236 296 c 0
 185 296 152 262 143 218 c 0
 139 198 134 184 130 176 c 1
 143 181 158 183 173 183 c 0
 225 183 258 154 258 109 c 0
 258 102 257 95 255 87 c 0
 243 30 192 -9 132 -9 c 0
 116 -9 102 -6 90 -1 c 0
 55 12 36 41 36 79 c 0
 36 88 38 96 40 106 c 2
164 139 m 0
 133 139 106 117 100 87 c 0
 99 83 99 79 99 75 c 0
 99 52 114 35 141 35 c 0
 172 35 198 57 204 87 c 0
 205 91 206 95 206 99 c 0
 206 122 191 139 164 139 c 0
294 348 m 1
 374 330 424 269 451 209 c 1
 495 412 l 2
 498 425 499 438 499 450 c 0
 499 466 497 480 491 492 c 1
 420 446 346 391 294 348 c 1
EndSplineSet
PickledDataWithLists: "(dp0
Vcom.fontlab.hintData
p1
(dp2
Vvhints
p3
(lp4
(dp5
Vposition
p6
L54L
sVwidth
p7
L10L
sa(dp8
g6
L94L
sg7
L10L
sa(dp9
g6
L136L
sg7
L10L
sa(dp10
g6
L176L
sg7
L10L
sa(dp11
g6
L504L
sg7
L10L
sa(dp12
g6
L586L
sg7
L10L
sa(dp13
g6
L616L
sg7
L10L
sasVhhints
p14
(lp15
(dp16
g6
L-14L
sg7
L10L
sa(dp17
g6
L-4L
sg7
L10L
sa(dp18
g6
L294L
sg7
L10L
sa(dp19
g6
L370L
sg7
L10L
sa(dp20
g6
L429L
sg7
L10L
sa(dp21
g6
L548L
sg7
L10L
sa(dp22
g6
L606L
sg7
L10L
sa(dp23
g6
L654L
sg7
L10L
sass."
EndChar

StartChar: uni0E2B
Encoding: 3627 3627 173
GlifName: uni0E_2B_
Width: 660
VWidth: 0
GlyphClass: 2
Flags: HMW
LayerCount: 2
Fore
SplineSet
530 460 m 0
 561 460 587 482 593 512 c 0
 594 516 594 520 594 524 c 0
 594 547 579 564 552 564 c 0
 521 564 495 542 489 512 c 0
 488 508 487 504 487 500 c 0
 487 477 503 460 530 460 c 0
170 460 m 0
 201 460 227 482 233 512 c 0
 234 516 234 520 234 524 c 0
 234 547 219 564 192 564 c 0
 161 564 135 542 129 512 c 0
 128 508 127 504 127 500 c 0
 127 477 143 460 170 460 c 0
160 416 m 0
 108 416 75 445 75 490 c 0
 75 497 76 504 78 512 c 0
 90 569 141 608 201 608 c 0
 253 608 286 579 286 534 c 0
 286 527 286 520 284 512 c 0
 274 466 245 434 236 390 c 2
 202 230 l 1
 268 316 361 399 460 435 c 1
 444 448 436 468 436 491 c 0
 436 498 436 505 438 512 c 0
 450 569 501 608 561 608 c 0
 613 608 646 579 646 534 c 0
 646 527 646 520 644 512 c 0
 634 467 600 433 557 421 c 1
 575 408 591 393 591 371 c 0
 591 368 591 364 590 360 c 2
 513 0 l 1
 428 0 l 1
 508 375 l 2
 509 382 509 389 507 395 c 1
 380 367 231 225 173 94 c 1
 153 0 l 1
 68 0 l 1
 145 360 l 2
 150 382 158 401 169 416 c 1
 166 416 163 416 160 416 c 0
EndSplineSet
PickledDataWithLists: "(dp0
Vcom.fontlab.hintData
p1
(dp2
Vvhints
p3
(lp4
(dp5
Vposition
p6
L84L
sVwidth
p7
L10L
sa(dp8
g6
L166L
sg7
L10L
sa(dp9
g6
L191L
sg7
L11L
sa(dp10
g6
L320L
sg7
L10L
sa(dp11
g6
L395L
sg7
L10L
sa(dp12
g6
L493L
sg7
L10L
sa(dp13
g6
L525L
sg7
L10L
sa(dp14
g6
L600L
sg7
L10L
sa(dp15
g6
L638L
sg7
L10L
sasVhhints
p16
(lp17
(dp18
g6
L-24L
sg7
L10L
sa(dp19
g6
L-12L
sg7
L10L
sa(dp20
g6
L553L
sg7
L10L
sa(dp21
g6
L589L
sg7
L10L
sa(dp22
g6
L602L
sg7
L10L
sass."
EndChar

StartChar: uni0E2C
Encoding: 3628 3628 174
GlifName: uni0E_2C_
Width: 760
VWidth: 0
GlyphClass: 2
Flags: HMW
AnchorPoint: "ThaiBelow.mark" 660 0 basechar 0
AnchorPoint: "ThaiTone.mark" 660 0 basechar 0
AnchorPoint: "ThaiAbove.mark" 660 0 basechar 0
LayerCount: 2
Fore
SplineSet
541 192 m 2
 589 420 l 2
 591 430 595 440 600 448 c 1
 593 447 586 446 579 446 c 0
 527 446 494 475 494 520 c 0
 494 527 494 534 496 542 c 0
 508 599 560 638 620 638 c 0
 672 638 705 609 705 564 c 0
 705 557 704 550 702 542 c 0
 702 540 701 537 701 535 c 1
 721 556 735 584 748 628 c 1
 799 622 l 1
 774 549 735 510 687 484 c 1
 683 470 678 456 674 435 c 2
 582 0 l 1
 509 0 l 1
 508 0 l 1
 508 2 l 1
 405 380 l 1
 139 0 l 1
 67 0 l 1
 144 360 l 2
 149 383 158 401 169 416 c 1
 165 416 162 416 158 416 c 0
 106 416 73 445 73 490 c 0
 73 497 74 504 76 512 c 0
 88 569 139 608 199 608 c 0
 251 608 284 579 284 534 c 0
 284 527 284 520 282 512 c 0
 272 463 241 433 231 385 c 2
 190 192 l 2
 186 171 177 147 170 129 c 1
 402 465 l 1
 423 465 l 1
 444 465 l 1
 531 129 l 1
 533 147 537 172 541 192 c 2
588 490 m 0
 619 490 645 512 651 542 c 0
 652 546 653 550 653 554 c 0
 653 577 637 594 610 594 c 0
 579 594 553 572 547 542 c 0
 546 538 546 534 546 530 c 0
 546 507 561 490 588 490 c 0
168 460 m 0
 199 460 225 482 231 512 c 0
 232 516 232 520 232 524 c 0
 232 547 217 564 190 564 c 0
 159 564 133 542 127 512 c 0
 126 508 125 504 125 500 c 0
 125 477 141 460 168 460 c 0
EndSplineSet
PickledDataWithLists: "(dp0
Vcom.fontlab.hintData
p1
(dp2
Vvhints
p3
(lp4
(dp5
Vposition
p6
L58L
sVwidth
p7
L10L
sa(dp8
g6
L104L
sg7
L10L
sa(dp9
g6
L185L
sg7
L10L
sa(dp10
g6
L367L
sg7
L10L
sa(dp11
g6
L430L
sg7
L10L
sa(dp12
g6
L587L
sg7
L10L
sa(dp13
g6
L661L
sg7
L10L
sa(dp14
g6
L760L
sg7
L10L
sasVhhints
p15
(lp16
(dp17
g6
L-18L
sg7
L10L
sa(dp18
g6
L-13L
sg7
L10L
sa(dp19
g6
L329L
sg7
L10L
sa(dp20
g6
L391L
sg7
L10L
sa(dp21
g6
L439L
sg7
L10L
sa(dp22
g6
L561L
sg7
L10L
sa(dp23
g6
L604L
sg7
L10L
sa(dp24
g6
L609L
sg7
L10L
sa(dp25
g6
L629L
sg7
L10L
sass."
EndChar

StartChar: uni0E2D
Encoding: 3629 3629 175
GlifName: uni0E_2D_
Width: 635
VWidth: 0
GlyphClass: 2
Flags: HMW
LayerCount: 2
Fore
SplineSet
88 426 m 1
 123 526 224 618 376 618 c 0
 506 618 584 554 584 456 c 0
 584 442 583 427 580 412 c 2
 530 180 l 2
 506 65 397 -18 255 -18 c 0
 131 -18 61 45 61 137 c 0
 61 151 62 165 65 180 c 2
 83 264 l 2
 95 321 147 360 207 360 c 0
 259 360 292 331 292 286 c 0
 292 279 291 272 289 264 c 0
 277 207 226 168 166 168 c 0
 158 168 150 169 143 170 c 1
 142 162 141 154 141 147 c 0
 141 79 194 46 269 46 c 0
 355 46 426 90 445 180 c 2
 495 412 l 2
 498 425 499 438 499 449 c 0
 499 519 447 554 363 554 c 0
 268 554 200 502 171 420 c 1
 88 426 l 1
197 316 m 0
 166 316 140 294 134 264 c 0
 133 260 133 256 133 252 c 0
 133 229 148 212 175 212 c 0
 206 212 232 234 238 264 c 0
 239 268 239 272 239 276 c 0
 239 299 224 316 197 316 c 0
EndSplineSet
PickledDataWithLists: "(dp0
Vcom.fontlab.hintData
p1
(dp2
Vvhints
p3
(lp4
(dp5
Vposition
p6
L50L
sVwidth
p7
L10L
sa(dp8
g6
L61L
sg7
L10L
sa(dp9
g6
L149L
sg7
L10L
sa(dp10
g6
L289L
sg7
L10L
sa(dp11
g6
L481L
sg7
L10L
sa(dp12
g6
L569L
sg7
L10L
sasVhhints
p13
(lp14
(dp15
g6
L-19L
sg7
L10L
sa(dp16
g6
L43L
sg7
L10L
sa(dp17
g6
L215L
sg7
L10L
sa(dp18
g6
L230L
sg7
L10L
sa(dp19
g6
L292L
sg7
L10L
sa(dp20
g6
L414L
sg7
L10L
sa(dp21
g6
L549L
sg7
L9L
sa(dp22
g6
L611L
sg7
L10L
sass."
EndChar

StartChar: uni0E2E
Encoding: 3630 3630 176
GlifName: uni0E_2E_
Width: 640
VWidth: 0
GlyphClass: 2
Flags: HMW
LayerCount: 2
Fore
SplineSet
193 316 m 0
 162 316 136 294 130 264 c 0
 129 260 129 256 129 252 c 0
 129 229 144 212 171 212 c 0
 202 212 228 234 234 264 c 0
 235 268 235 272 235 276 c 0
 235 299 220 316 193 316 c 0
203 360 m 0
 255 360 288 331 288 286 c 0
 288 279 287 272 285 264 c 0
 273 207 222 168 162 168 c 0
 154 168 146 169 139 170 c 1
 138 162 137 154 137 147 c 0
 137 79 190 46 265 46 c 0
 351 46 422 90 441 180 c 2
 467 300 l 2
 481 364 491 385 498 420 c 0
 500 429 501 437 502 445 c 1
 462 420 403 398 315 398 c 0
 187 398 107 436 107 485 c 0
 107 488 107 492 108 495 c 0
 120 550 208 618 360 618 c 0
 466 618 521 578 545 540 c 1
 566 562 582 591 590 622 c 1
 669 615 l 1
 658 567 618 524 572 495 c 1
 577 482 580 466 580 448 c 0
 580 439 579 429 577 420 c 2
 526 180 l 2
 502 65 393 -18 251 -18 c 0
 127 -18 57 45 57 137 c 0
 57 151 58 165 61 180 c 2
 79 264 l 2
 91 321 143 360 203 360 c 0
188 490 m 0
 188 469 219 443 324 443 c 0
 409 443 461 466 495 492 c 1
 477 539 426 567 350 567 c 0
 254 567 188 531 188 490 c 0
EndSplineSet
PickledDataWithLists: "(dp0
Vcom.fontlab.hintData
p1
(dp2
Vvhints
p3
(lp4
(dp5
Vposition
p6
L54L
sVwidth
p7
L10L
sa(dp8
g6
L64L
sg7
L10L
sa(dp9
g6
L136L
sg7
L10L
sa(dp10
g6
L146L
sg7
L10L
sa(dp11
g6
L286L
sg7
L10L
sa(dp12
g6
L484L
sg7
L10L
sa(dp13
g6
L566L
sg7
L10L
sa(dp14
g6
L616L
sg7
L10L
sasVhhints
p15
(lp16
(dp17
g6
L-18L
sg7
L10L
sa(dp18
g6
L40L
sg7
L10L
sa(dp19
g6
L216L
sg7
L10L
sa(dp20
g6
L233L
sg7
L10L
sa(dp21
g6
L289L
sg7
L10L
sa(dp22
g6
L363L
sg7
L10L
sa(dp23
g6
L420L
sg7
L10L
sa(dp24
g6
L552L
sg7
L10L
sa(dp25
g6
L610L
sg7
L10L
sa(dp26
g6
L654L
sg7
L10L
sass."
EndChar

StartChar: uni0E2F
Encoding: 3631 3631 177
GlifName: uni0E_2F_
Width: 495
VWidth: 0
GlyphClass: 2
Flags: HMW
LayerCount: 2
Fore
SplineSet
210 564 m 0
 179 564 153 542 147 512 c 0
 146 508 145 504 145 500 c 0
 145 477 161 460 188 460 c 0
 219 460 245 482 251 512 c 0
 252 516 252 520 252 524 c 0
 252 547 237 564 210 564 c 0
219 608 m 0
 271 608 304 579 304 534 c 0
 304 527 304 520 302 512 c 0
 297 488 285 468 269 452 c 1
 343 473 391 532 416 596 c 1
 457 600 l 1
 463 590 466 577 466 561 c 0
 466 540 461 513 454 480 c 2
 383 145 l 2
 358 29 223 -4 98 -18 c 1
 98 44 l 1
 217 58 283 76 298 145 c 2
 354 410 l 2
 360 437 371 453 380 471 c 1
 337 432 277 405 203 405 c 0
 128 405 93 440 93 488 c 0
 93 496 94 504 96 512 c 0
 108 569 159 608 219 608 c 0
EndSplineSet
PickledDataWithLists: "(dp0
Vcom.fontlab.hintData
p1
(dp2
Vvhints
p3
(lp4
(dp5
Vposition
p6
L31L
sVwidth
p7
L10L
sa(dp8
g6
L119L
sg7
L10L
sa(dp9
g6
L153L
sg7
L10L
sa(dp10
g6
L356L
sg7
L10L
sa(dp11
g6
L356L
sg7
L10L
sa(dp12
g6
L434L
sg7
L10L
sa(dp13
g6
L439L
sg7
L10L
sasVhhints
p14
(lp15
(dp16
g6
L-16L
sg7
L10L
sa(dp17
g6
L394L
sg7
L10L
sa(dp18
g6
L456L
sg7
L10L
sa(dp19
g6
L589L
sg7
L10L
sa(dp20
g6
L596L
sg7
L10L
sass."
EndChar

StartChar: uni0E30
Encoding: 3632 3632 178
GlifName: uni0E_30
Width: 540
VWidth: 0
GlyphClass: 2
Flags: HMW
LayerCount: 2
Fore
SplineSet
219 512 m 0
 188 512 162 490 156 460 c 0
 155 456 154 452 154 448 c 0
 154 425 170 408 197 408 c 0
 228 408 254 430 260 460 c 0
 261 464 261 468 261 472 c 0
 261 495 246 512 219 512 c 0
228 556 m 0
 280 556 313 527 313 482 c 0
 313 475 313 468 311 460 c 0
 305 433 291 411 271 394 c 1
 311 394 l 2
 383 394 432 450 454 536 c 1
 524 527 l 1
 499 427 424 347 304 347 c 2
 228 347 l 2
 142 347 102 386 102 437 c 0
 102 444 103 452 105 460 c 0
 117 517 168 556 228 556 c 0
155 212 m 0
 124 212 98 190 92 160 c 0
 91 156 91 152 91 148 c 0
 91 125 106 108 133 108 c 0
 164 108 190 130 196 160 c 0
 197 164 197 168 197 172 c 0
 197 195 182 212 155 212 c 0
164 256 m 0
 216 256 249 227 249 182 c 0
 249 175 249 168 247 160 c 0
 241 133 227 111 207 94 c 1
 247 94 l 2
 319 94 368 150 390 236 c 1
 460 227 l 1
 435 127 360 47 240 47 c 2
 164 47 l 2
 78 47 38 86 38 137 c 0
 38 144 39 152 41 160 c 0
 53 217 104 256 164 256 c 0
EndSplineSet
PickledDataWithLists: "(dp0
Vcom.fontlab.hintData
p1
(dp2
Vvhints
p3
(lp4
(dp5
Vposition
p6
L51L
sVwidth
p7
L10L
sa(dp8
g6
L60L
sg7
L10L
sa(dp9
g6
L139L
sg7
L10L
sa(dp10
g6
L144L
sg7
L10L
sa(dp11
g6
L154L
sg7
L10L
sa(dp12
g6
L450L
sg7
L10L
sasVhhints
p13
(lp14
(dp15
g6
L60L
sg7
L10L
sa(dp16
g6
L122L
sg7
L10L
sa(dp17
g6
L228L
sg7
L10L
sa(dp18
g6
L360L
sg7
L10L
sa(dp19
g6
L421L
sg7
L10L
sa(dp20
g6
L536L
sg7
L10L
sass."
EndChar

StartChar: uni0E31
Encoding: 3633 3633 179
GlifName: uni0E_31
Width: 0
VWidth: 0
GlyphClass: 4
Flags: HMW
AnchorPoint: "ThaiExtendedAbove.mkmk" -60 0 basemark 0
AnchorPoint: "ThaiAbove.mark" -60 0 mark 0
LayerCount: 2
Fore
SplineSet
-149 851 m 0
 -173 851 -194 834 -199 810 c 0
 -200 807 -200 803 -200 800 c 0
 -200 781 -188 769 -167 769 c 0
 -143 769 -122 786 -117 810 c 0
 -116 813 -116 817 -116 820 c 0
 -116 839 -128 851 -149 851 c 0
-141 889 m 0
 -98 889 -71 866 -71 829 c 0
 -71 823 -72 817 -73 810 c 0
 -79 784 -93 763 -114 749 c 1
 -108 749 -102 749 -96 749 c 2
 -71 749 l 2
 -7 749 51 782 71 876 c 1
 135 869 l 1
 113 767 30 706 -70 706 c 2
 -125 706 l 2
 -201 706 -245 736 -245 788 c 0
 -245 795 -245 802 -243 810 c 0
 -233 858 -191 889 -141 889 c 0
EndSplineSet
PickledDataWithLists: "(dp0
Vcom.fontlab.hintData
p1
(dp2
Vvhints
p3
(lp4
(dp5
Vposition
p6
L-391L
sVwidth
p7
L10L
sa(dp8
g6
L-313L
sg7
L10L
sa(dp9
g6
L-306L
sg7
L10L
sa(dp10
g6
L55L
sg7
L10L
sasVhhints
p11
(lp12
(dp13
g6
L717L
sg7
L10L
sa(dp14
g6
L772L
sg7
L10L
sa(dp15
g6
L882L
sg7
L10L
sa(dp16
g6
L952L
sg7
L10L
sass."
Substitution2: "Thai.sl subtable" uni0E31.sl
EndChar

StartChar: uni0E32
Encoding: 3634 3634 180
GlifName: uni0E_32
Width: 485
VWidth: 0
GlyphClass: 2
Flags: HMW
LayerCount: 2
Fore
SplineSet
62 472 m 1
 87 544 164 618 281 618 c 0
 382 618 436 562 436 485 c 0
 436 472 435 459 432 446 c 2
 337 0 l 1
 252 0 l 1
 347 446 l 2
 350 458 351 469 351 479 c 0
 351 532 316 554 268 554 c 0
 210 554 166 520 146 464 c 1
 62 472 l 1
EndSplineSet
PickledDataWithLists: "(dp0
Vcom.fontlab.hintData
p1
(dp2
Vvhints
p3
(lp4
(dp5
Vposition
p6
L15L
sVwidth
p7
L10L
sa(dp8
g6
L291L
sg7
L10L
sa(dp9
g6
L312L
sg7
L10L
sa(dp10
g6
L379L
sg7
L10L
sa(dp11
g6
L400L
sg7
L10L
sasVhhints
p12
(lp13
(dp14
g6
L-25L
sg7
L10L
sa(dp15
g6
L399L
sg7
L10L
sa(dp16
g6
L545L
sg7
L10L
sa(dp17
g6
L606L
sg7
L10L
sass."
EndChar

StartChar: uni0E33
Encoding: 3635 3635 181
GlifName: uni0E_33
Width: 485
VWidth: 0
GlyphClass: 2
Flags: HMW
LayerCount: 2
Fore
SplineSet
-54 876 m 0
 -2 876 31 847 31 802 c 0
 31 795 31 788 29 780 c 0
 17 723 -35 684 -95 684 c 0
 -147 684 -180 713 -180 758 c 0
 -180 765 -179 772 -177 780 c 0
 -165 837 -114 876 -54 876 c 0
-63 832 m 0
 -94 832 -120 810 -126 780 c 0
 -127 776 -128 772 -128 768 c 0
 -128 745 -112 728 -85 728 c 0
 -54 728 -28 750 -22 780 c 0
 -21 784 -21 788 -21 792 c 0
 -21 815 -36 832 -63 832 c 0
62 472 m 1
 87 544 164 618 281 618 c 0
 382 618 436 562 436 485 c 0
 436 472 435 459 432 446 c 2
 337 0 l 1
 252 0 l 1
 347 446 l 2
 350 458 351 469 351 479 c 0
 351 532 316 554 268 554 c 0
 210 554 166 520 146 464 c 1
 62 472 l 1
EndSplineSet
PickledDataWithLists: "(dp0
Vcom.fontlab.hintData
p1
(dp2
Vvhints
p3
(lp4
(dp5
Vposition
p6
L-282L
sVwidth
p7
L10L
sa(dp8
g6
L-218L
sg7
L10L
sa(dp9
g6
L-122L
sg7
L10L
sa(dp10
g6
L-58L
sg7
L10L
sa(dp11
g6
L15L
sg7
L10L
sa(dp12
g6
L291L
sg7
L10L
sa(dp13
g6
L312L
sg7
L10L
sa(dp14
g6
L379L
sg7
L10L
sa(dp15
g6
L400L
sg7
L10L
sasVhhints
p16
(lp17
(dp18
g6
L-25L
sg7
L10L
sa(dp19
g6
L399L
sg7
L10L
sa(dp20
g6
L545L
sg7
L10L
sa(dp21
g6
L606L
sg7
L10L
sa(dp22
g6
L703L
sg7
L10L
sa(dp23
g6
L747L
sg7
L10L
sa(dp24
g6
L863L
sg7
L10L
sa(dp25
g6
L907L
sg7
L10L
sass."
MultipleSubs2: "ThaiDecomp subtable" uni0E4D uni200D uni0E32
Colour: ff00ff
EndChar

StartChar: uni0E34
Encoding: 3636 3636 182
GlifName: uni0E_34
Width: 0
VWidth: 0
GlyphClass: 4
Flags: HMW
AnchorPoint: "ThaiExtendedAbove.mkmk" -60 0 basemark 0
AnchorPoint: "ThaiAbove.mark" -60 0 mark 0
LayerCount: 2
Fore
SplineSet
-342 767 m 1
 -82 723 l 1
 -98 769 -138 838 -235 838 c 0
 -281 838 -322 814 -342 767 c 1
-24 695 m 1
 -35 680 l 1
 -420 740 l 1
 -404 814 -337 885 -227 885 c 0
 -61 885 -32 731 -24 695 c 1
EndSplineSet
PickledDataWithLists: "(dp0
Vcom.fontlab.hintData
p1
(dp2
Vvhints
p3
(lp4
(dp5
Vposition
p6
L-534L
sVwidth
p7
L10L
sa(dp8
g6
L-456L
sg7
L10L
sasVhhints
p9
(lp10
(dp11
g6
L682L
sg7
L10L
sa(dp12
g6
L871L
sg7
L9L
sa(dp13
g6
L919L
sg7
L10L
sass."
Substitution2: "Thai.sl subtable" uni0E34.sl
EndChar

StartChar: uni0E35
Encoding: 3637 3637 183
GlifName: uni0E_35
Width: 0
VWidth: 0
GlyphClass: 4
Flags: HMW
AnchorPoint: "ThaiExtendedAbove.mkmk" -60 0 basemark 0
AnchorPoint: "ThaiAbove.mark" -60 0 mark 0
LayerCount: 2
Fore
SplineSet
-54 810 m 2
 -37 890 l 1
 25 878 l 1
 -16 687 l 1
 -29 675 l 1
 -421 735 l 1
 -405 809 -338 880 -233 880 c 0
 -127 880 -79 807 -56 750 c 1
 -57 759 -57 768 -57 777 c 0
 -57 789 -56 800 -54 810 c 2
-343 763 m 1
 -70 717 l 1
 -88 763 -133 833 -236 833 c 0
 -282 833 -323 810 -343 763 c 1
EndSplineSet
PickledDataWithLists: "(dp0
Vcom.fontlab.hintData
p1
(dp2
Vvhints
p3
(lp4
(dp5
Vposition
p6
L-530L
sVwidth
p7
L10L
sa(dp8
g6
L-460L
sg7
L10L
sa(dp9
g6
L-189L
sg7
L10L
sa(dp10
g6
L-175L
sg7
L10L
sa(dp11
g6
L-116L
sg7
L10L
sasVhhints
p12
(lp13
(dp14
g6
L691L
sg7
L10L
sa(dp15
g6
L861L
sg7
L10L
sa(dp16
g6
L909L
sg7
L10L
sa(dp17
g6
L929L
sg7
L10L
sass."
Substitution2: "Thai.sl subtable" uni0E35.sl
EndChar

StartChar: uni0E36
Encoding: 3638 3638 184
GlifName: uni0E_36
Width: 0
VWidth: 0
GlyphClass: 4
Flags: HMW
AnchorPoint: "ThaiExtendedAbove.mkmk" -60 0 basemark 0
AnchorPoint: "ThaiAbove.mark" -60 0 mark 0
LayerCount: 2
Fore
SplineSet
-67 837 m 0
 -98 837 -124 815 -130 785 c 0
 -131 781 -132 777 -132 773 c 0
 -132 750 -116 733 -89 733 c 0
 -58 733 -32 755 -26 785 c 0
 -25 789 -25 793 -25 797 c 0
 -25 820 -40 837 -67 837 c 0
-58 881 m 0
 -6 881 27 852 27 807 c 0
 27 800 27 793 25 785 c 0
 13 728 -39 689 -99 689 c 0
 -118 689 -133 693 -147 700 c 1
 -421 735 l 1
 -405 809 -338 880 -233 880 c 0
 -193 880 -166 866 -146 847 c 1
 -124 868 -92 881 -58 881 c 0
-171 813 m 1
 -186 825 -207 833 -236 833 c 0
 -282 833 -323 810 -343 763 c 1
 -180 739 l 1
 -182 746 -184 754 -184 763 c 0
 -184 770 -183 777 -181 785 c 0
 -179 795 -176 804 -171 813 c 1
EndSplineSet
PickledDataWithLists: "(dp0
Vcom.fontlab.hintData
p1
(dp2
Vvhints
p3
(lp4
(dp5
Vposition
p6
L-544L
sVwidth
p7
L10L
sa(dp8
g6
L-466L
sg7
L10L
sa(dp9
g6
L-208L
sg7
L10L
sa(dp10
g6
L-134L
sg7
L10L
sa(dp11
g6
L-84L
sg7
L10L
sasVhhints
p12
(lp13
(dp14
g6
L689L
sg7
L10L
sa(dp15
g6
L723L
sg7
L10L
sa(dp16
g6
L824L
sg7
L21L
sa(dp17
g6
L861L
sg7
L10L
sa(dp18
g6
L892L
sg7
L10L
sa(dp19
g6
L909L
sg7
L10L
sass."
Substitution2: "Thai.sl subtable" uni0E36.sl
EndChar

StartChar: uni0E37
Encoding: 3639 3639 185
GlifName: uni0E_37
Width: 0
VWidth: 0
GlyphClass: 4
Flags: HMW
AnchorPoint: "ThaiExtendedAbove.mkmk" -60 0 basemark 0
AnchorPoint: "ThaiAbove.mark" -60 0 mark 0
LayerCount: 2
Fore
SplineSet
-144 860 m 2
 -133 915 l 1
 -81 903 l 1
 -119 725 l 1
 -55 714 l 1
 -56 720 -57 726 -57 734 c 0
 -57 742 -56 751 -54 760 c 2
 -27 890 l 1
 25 878 l 1
 -16 687 l 1
 -29 675 l 1
 -421 735 l 1
 -405 809 -343 880 -243 880 c 0
 -192 880 -163 859 -146 833 c 1
 -147 842 -146 852 -144 860 c 2
-139 728 m 1
 -147 777 -171 833 -246 833 c 0
 -288 833 -325 810 -344 763 c 1
 -139 728 l 1
EndSplineSet
PickledDataWithLists: "(dp0
Vcom.fontlab.hintData
p1
(dp2
Vvhints
p3
(lp4
(dp5
Vposition
p6
L-554L
sVwidth
p7
L10L
sa(dp8
g6
L-476L
sg7
L10L
sa(dp9
g6
L-280L
sg7
L10L
sa(dp10
g6
L-218L
sg7
L10L
sa(dp11
g6
L-159L
sg7
L10L
sa(dp12
g6
L-148L
sg7
L10L
sa(dp13
g6
L-100L
sg7
L10L
sasVhhints
p14
(lp15
(dp16
g6
L698L
sg7
L10L
sa(dp17
g6
L861L
sg7
L10L
sa(dp18
g6
L909L
sg7
L10L
sa(dp19
g6
L922L
sg7
L10L
sa(dp20
g6
L932L
sg7
L10L
sass."
Substitution2: "Thai.sl subtable" uni0E37.sl
EndChar

StartChar: uni0E38
Encoding: 3640 3640 186
GlifName: uni0E_38
Width: 0
VWidth: 0
GlyphClass: 4
Flags: HMW
AnchorPoint: "ThaiExtendedBelow.mkmk" -60 0 mark 0
AnchorPoint: "ThaiExtendedBelow.mkmk" -120 -280 basemark 0
AnchorPoint: "ThaiBelow.mark" -60 0 mark 0
LayerCount: 2
Fore
SplineSet
-263 -109 m 0
 -287 -109 -308 -126 -313 -150 c 0
 -314 -153 -314 -157 -314 -160 c 0
 -314 -179 -302 -191 -281 -191 c 0
 -257 -191 -236 -174 -231 -150 c 0
 -230 -147 -230 -143 -230 -140 c 0
 -230 -121 -242 -109 -263 -109 c 0
-288 -305 m 1
 -276 -250 l 2
 -274 -241 -270 -234 -266 -227 c 1
 -273 -228 -281 -229 -289 -229 c 0
 -332 -229 -359 -206 -359 -169 c 0
 -359 -163 -358 -157 -357 -150 c 0
 -347 -102 -305 -71 -255 -71 c 0
 -212 -71 -185 -94 -185 -131 c 0
 -185 -137 -186 -143 -187 -150 c 0
 -196 -191 -206 -204 -213 -236 c 2
 -228 -305 l 1
 -288 -305 l 1
EndSplineSet
PickledDataWithLists: "(dp0
Vcom.fontlab.hintData
p1
(dp2
Vvhints
p3
(lp4
(dp5
Vposition
p6
L-285L
sVwidth
p7
L10L
sa(dp8
g6
L-185L
sg7
L10L
sa(dp9
g6
L-104L
sg7
L10L
sasVhhints
p10
(lp11
(dp12
g6
L-322L
sg7
L10L
sa(dp13
g6
L-172L
sg7
L10L
sa(dp14
g6
L-98L
sg7
L10L
sass."
Substitution2: "ThaiBV.sd subtable" uni0E38.sd
EndChar

StartChar: uni0E39
Encoding: 3641 3641 187
GlifName: uni0E_39
Width: 0
VWidth: 0
GlyphClass: 4
Flags: HMW
AnchorPoint: "ThaiExtendedBelow.mkmk" -60 0 mark 0
AnchorPoint: "ThaiExtendedBelow.mkmk" -120 -280 basemark 0
AnchorPoint: "ThaiBelow.mark" -90 0 mark 0
LayerCount: 2
Fore
SplineSet
-423 -109 m 0
 -447 -109 -468 -126 -473 -150 c 0
 -474 -153 -474 -157 -474 -160 c 0
 -474 -179 -462 -191 -441 -191 c 0
 -417 -191 -396 -174 -391 -150 c 0
 -390 -147 -390 -143 -390 -140 c 0
 -390 -121 -402 -109 -423 -109 c 0
-347 -150 m 0
 -355 -188 -367 -199 -372 -221 c 2
 -376 -240 l 2
 -376 -242 -377 -244 -377 -246 c 0
 -377 -260 -363 -270 -329 -270 c 0
 -290 -270 -274 -257 -270 -240 c 2
 -235 -77 l 1
 -176 -77 l 1
 -212 -245 l 2
 -221 -289 -274 -310 -338 -310 c 0
 -396 -310 -436 -297 -436 -262 c 0
 -436 -258 -436 -254 -435 -250 c 2
 -430 -228 l 1
 -436 -229 -443 -229 -449 -229 c 0
 -492 -229 -519 -206 -519 -169 c 0
 -519 -163 -518 -157 -517 -150 c 0
 -507 -102 -465 -71 -415 -71 c 0
 -372 -71 -345 -94 -345 -131 c 0
 -345 -137 -346 -143 -347 -150 c 0
EndSplineSet
PickledDataWithLists: "(dp0
Vcom.fontlab.hintData
p1
(dp2
Vvhints
p3
(lp4
(dp5
Vposition
p6
L-401L
sVwidth
p7
L10L
sa(dp8
g6
L-115L
sg7
L10L
sasVhhints
p9
(lp10
(dp11
g6
L-331L
sg7
L10L
sa(dp12
g6
L-267L
sg7
L21L
sa(dp13
g6
L-154L
sg7
L10L
sa(dp14
g6
L-106L
sg7
L10L
sass."
Substitution2: "ThaiBV.sd subtable" uni0E39.sd
EndChar

StartChar: uni0E3A
Encoding: 3642 3642 188
GlifName: uni0E_3A_
Width: 0
VWidth: 0
GlyphClass: 4
Flags: HMW
AnchorPoint: "ThaiExtendedBelow.mkmk" -60 0 mark 0
AnchorPoint: "ThaiExtendedBelow.mkmk" -105 -210 basemark 0
AnchorPoint: "ThaiBelow.mark" -60 0 mark 0
LayerCount: 2
Fore
SplineSet
-227 -82 m 0
 -192 -82 -168 -102 -168 -134 c 0
 -168 -139 -169 -144 -170 -150 c 0
 -179 -192 -215 -218 -256 -218 c 0
 -291 -218 -316 -198 -316 -166 c 0
 -316 -161 -315 -156 -314 -150 c 0
 -305 -108 -268 -82 -227 -82 c 0
EndSplineSet
PickledDataWithLists: "(dp0
Vcom.fontlab.hintData
p1
(dp2
Vvhints
p3
(lp4
(dp5
Vposition
p6
L-229L
sVwidth
p7
L10L
sa(dp8
g6
L-81L
sg7
L10L
sasVhhints
p9
(lp10
(dp11
g6
L-231L
sg7
L10L
sa(dp12
g6
L-110L
sg7
L10L
sass."
Substitution2: "ThaiBV.sd subtable" uni0E3A.sd
EndChar

